<?xml version="1.0" encoding="UTF-8" standalone="no"?>
<!DOCTYPE svg PUBLIC "-//W3C//DTD SVG 1.1//EN" "http://www.w3.org/Graphics/SVG/1.1/DTD/svg11.dtd">
<svg width="100%" height="100%" viewBox="0 0 523 207" version="1.1" xmlns="http://www.w3.org/2000/svg" xmlns:xlink="http://www.w3.org/1999/xlink" xml:space="preserve" xmlns:serif="http://www.serif.com/" style="fill-rule:evenodd;clip-rule:evenodd;stroke-linejoin:round;stroke-miterlimit:1.41421;">
    <g transform="matrix(1,0,0,1,-703.086,-222.178)">
        <g id="logo" transform="matrix(1.11882,6.89527e-33,0,1.11882,244.667,-53.8086)">
            <g id="logo_shadow" transform="matrix(0.893798,-5.50845e-33,0,0.893798,-218.682,85.6335)">
                <path d="M911.136,379.963C911.405,379.963 911.636,380.067 911.831,380.274L913.77,382.378C912.697,383.707 911.377,384.725 909.81,385.433C908.243,386.14 906.362,386.494 904.167,386.494C902.204,386.494 900.438,386.158 898.871,385.488C897.304,384.817 895.966,383.884 894.856,382.689C893.746,381.494 892.896,380.067 892.304,378.408C891.713,376.75 891.417,374.939 891.417,372.976C891.417,370.988 891.746,369.168 892.405,367.515C893.063,365.863 893.99,364.439 895.185,363.244C896.38,362.049 897.81,361.119 899.475,360.455C901.14,359.79 902.978,359.458 904.99,359.458C906.953,359.458 908.67,359.772 910.139,360.4C911.609,361.028 912.868,361.86 913.917,362.897L912.27,365.183C912.173,365.329 912.048,365.457 911.895,365.567C911.743,365.677 911.533,365.732 911.264,365.732C910.984,365.732 910.697,365.622 910.405,365.403C910.112,365.183 909.74,364.945 909.289,364.689C908.838,364.433 908.267,364.195 907.578,363.976C906.889,363.756 906.014,363.647 904.953,363.647C903.71,363.647 902.566,363.863 901.524,364.296C900.481,364.729 899.585,365.348 898.835,366.153C898.085,366.957 897.499,367.936 897.079,369.088C896.658,370.241 896.448,371.537 896.448,372.976C896.448,374.463 896.658,375.787 897.079,376.945C897.499,378.104 898.069,379.079 898.789,379.872C899.508,380.664 900.356,381.271 901.332,381.692C902.307,382.113 903.356,382.323 904.478,382.323C905.149,382.323 905.755,382.286 906.298,382.213C906.841,382.14 907.341,382.024 907.798,381.866C908.255,381.707 908.688,381.503 909.097,381.253C909.505,381.003 909.911,380.695 910.313,380.329C910.435,380.219 910.563,380.131 910.697,380.064C910.831,379.997 910.978,379.963 911.136,379.963ZM756.109,372.976C756.109,374.915 755.786,376.71 755.14,378.363C754.493,380.015 753.585,381.445 752.414,382.652C751.243,383.86 749.835,384.802 748.189,385.478C746.542,386.155 744.719,386.494 742.719,386.494C740.719,386.494 738.893,386.155 737.241,385.478C735.588,384.802 734.174,383.86 732.997,382.652C731.82,381.445 730.908,380.015 730.262,378.363C729.616,376.71 729.293,374.915 729.293,372.976C729.293,371.037 729.616,369.241 730.262,367.589C730.908,365.936 731.82,364.506 732.997,363.299C734.174,362.092 735.588,361.15 737.241,360.473C738.893,359.796 740.719,359.458 742.719,359.458C744.719,359.458 746.542,359.799 748.189,360.482C749.835,361.165 751.243,362.107 752.414,363.308C753.585,364.509 754.493,365.936 755.14,367.589C755.786,369.241 756.109,371.037 756.109,372.976ZM928.13,376.799C928.13,378.286 927.947,379.628 927.581,380.823C927.215,382.018 926.669,383.036 925.944,383.878C925.218,384.719 924.313,385.366 923.227,385.817C922.142,386.268 920.88,386.494 919.441,386.494C918.782,386.494 918.136,386.454 917.502,386.375C916.868,386.295 916.203,386.17 915.508,386L915.764,383.073C915.789,382.805 915.889,382.588 916.066,382.424C916.243,382.259 916.502,382.177 916.843,382.177C917.051,382.177 917.322,382.219 917.657,382.305C917.993,382.39 918.417,382.433 918.929,382.433C919.624,382.433 920.24,382.332 920.776,382.131C921.313,381.93 921.761,381.61 922.121,381.171C922.481,380.732 922.752,380.161 922.935,379.46C923.118,378.759 923.209,377.908 923.209,376.908L923.209,359.75L928.13,359.75L928.13,376.799ZM1048.38,386.201L1044.58,386.201C1044.15,386.201 1043.8,386.094 1043.53,385.881C1043.25,385.667 1043.05,385.402 1042.93,385.085L1040.96,379.689L1030,379.689L1028.02,385.085C1027.93,385.366 1027.73,385.622 1027.45,385.853C1027.16,386.085 1026.81,386.201 1026.4,386.201L1022.57,386.201L1032.96,359.75L1037.99,359.75L1048.38,386.201ZM1095.47,386.201L1091.13,386.201L1091.13,359.75L1094.85,359.75C1095.07,359.75 1095.25,359.756 1095.41,359.769C1095.57,359.781 1095.71,359.811 1095.84,359.86C1095.97,359.909 1096.09,359.988 1096.2,360.098C1096.31,360.208 1096.41,360.354 1096.51,360.537L1104.41,375.226C1104.62,375.616 1104.81,376.021 1104.99,376.442C1105.17,376.863 1105.34,377.286 1105.51,377.713C1105.68,377.274 1105.86,376.841 1106.04,376.415C1106.22,375.988 1106.42,375.579 1106.63,375.189L1114.45,360.537C1114.55,360.354 1114.65,360.208 1114.76,360.098C1114.86,359.988 1114.98,359.909 1115.1,359.86C1115.23,359.811 1115.38,359.781 1115.53,359.769C1115.69,359.756 1115.88,359.75 1116.1,359.75L1119.82,359.75L1119.82,386.201L1115.48,386.201L1115.48,369.116C1115.48,368.799 1115.49,368.451 1115.51,368.073C1115.53,367.695 1115.55,367.311 1115.59,366.921L1107.6,381.921C1107.41,382.262 1107.17,382.527 1106.88,382.716C1106.59,382.905 1106.25,383 1105.86,383L1105.18,383C1104.79,383 1104.45,382.905 1104.16,382.716C1103.86,382.527 1103.63,382.262 1103.44,381.921L1095.34,366.866C1095.39,367.268 1095.42,367.662 1095.44,368.046C1095.46,368.43 1095.47,368.787 1095.47,369.116L1095.47,386.201ZM1181.97,386.201L1177.05,386.201L1177.05,375.921L1167.41,359.75L1171.75,359.75C1172.17,359.75 1172.51,359.854 1172.76,360.061C1173.01,360.269 1173.22,360.531 1173.39,360.848L1178.24,369.683C1178.52,370.207 1178.77,370.704 1178.97,371.174C1179.18,371.643 1179.37,372.104 1179.54,372.555C1179.7,372.091 1179.88,371.625 1180.08,371.156C1180.28,370.686 1180.52,370.195 1180.8,369.683L1185.61,360.848C1185.75,360.58 1185.95,360.33 1186.22,360.098C1186.48,359.866 1186.83,359.75 1187.24,359.75L1191.59,359.75L1181.97,375.921L1181.97,386.201ZM1199.24,386.201L1194.32,386.201L1194.32,359.732L1199.24,359.732L1199.24,370.835L1200.39,370.835C1200.86,370.835 1201.24,370.771 1201.55,370.643C1201.85,370.515 1202.11,370.311 1202.33,370.031L1209.63,360.793C1209.93,360.403 1210.26,360.131 1210.59,359.979C1210.92,359.826 1211.35,359.75 1211.86,359.75L1216.11,359.75L1207.2,370.744C1206.92,371.085 1206.65,371.372 1206.39,371.604C1206.14,371.835 1205.86,372.024 1205.57,372.171C1205.97,372.317 1206.33,372.524 1206.66,372.793C1206.98,373.061 1207.29,373.402 1207.6,373.817L1216.78,386.201L1212.43,386.201C1211.84,386.201 1211.41,386.119 1211.12,385.954C1210.83,385.789 1210.59,385.548 1210.4,385.231L1202.92,375.463C1202.67,375.146 1202.4,374.918 1202.09,374.777C1201.79,374.637 1201.36,374.567 1200.8,374.567L1199.24,374.567L1199.24,386.201ZM867.345,363.793L859.387,363.793L859.387,386.201L854.467,386.201L854.467,363.793L846.473,363.793L846.473,359.75L867.345,359.75L867.345,363.793ZM1167.08,363.793L1159.13,363.793L1159.13,386.201L1154.2,386.201L1154.2,363.793L1146.21,363.793L1146.21,359.75L1167.08,359.75L1167.08,363.793ZM765.072,386.201L760.152,386.201L760.152,359.75L768.219,359.75C770.023,359.75 771.569,359.936 772.856,360.308C774.142,360.68 775.197,361.201 776.02,361.872C776.843,362.543 777.447,363.345 777.831,364.278C778.215,365.211 778.407,366.238 778.407,367.36C778.407,368.25 778.276,369.092 778.014,369.884C777.752,370.677 777.374,371.396 776.88,372.043C776.386,372.689 775.776,373.256 775.051,373.744C774.325,374.232 773.499,374.622 772.572,374.915C773.194,375.268 773.731,375.774 774.182,376.433L780.804,386.201L776.377,386.201C775.95,386.201 775.587,386.116 775.289,385.945C774.99,385.774 774.737,385.53 774.529,385.213L768.969,376.744C768.761,376.427 768.533,376.201 768.283,376.067C768.033,375.933 767.664,375.866 767.176,375.866L765.072,375.866L765.072,386.201ZM980.043,386.201L959.94,386.201L959.94,384.262C959.94,384.018 959.983,383.783 960.068,383.558C960.153,383.332 960.263,383.122 960.397,382.927L974.007,363.665L960.8,363.665L960.8,359.75L980.373,359.75L980.373,361.561C980.373,362.122 980.214,362.634 979.897,363.098L966.324,382.268L980.043,382.268L980.043,386.201ZM809.98,386.201L805.059,386.201L805.059,359.75L813.675,359.75C815.443,359.75 816.974,359.958 818.266,360.372C819.559,360.787 820.626,361.366 821.467,362.11C822.309,362.854 822.931,363.744 823.333,364.781C823.736,365.817 823.937,366.951 823.937,368.183C823.937,369.463 823.724,370.637 823.297,371.704C822.87,372.771 822.23,373.689 821.376,374.457C820.522,375.226 819.455,375.823 818.175,376.25C816.894,376.677 815.395,376.89 813.675,376.89L809.98,376.89L809.98,386.201ZM844.443,363.665L832.717,363.665L832.717,371L841.955,371L841.955,374.787L832.717,374.787L832.717,382.268L844.443,382.268L844.443,386.201L827.76,386.201L827.76,359.75L844.443,359.75L844.443,363.665ZM1086.87,363.665L1075.14,363.665L1075.14,371L1084.38,371L1084.38,374.787L1075.14,374.787L1075.14,382.268L1086.87,382.268L1086.87,386.201L1070.19,386.201L1070.19,359.75L1086.87,359.75L1086.87,363.665ZM950.154,363.665L938.428,363.665L938.428,371L947.666,371L947.666,374.787L938.428,374.787L938.428,382.268L950.154,382.268L950.154,386.201L933.471,386.201L933.471,359.75L950.154,359.75L950.154,363.665ZM800.633,363.665L788.907,363.665L788.907,371L798.145,371L798.145,374.787L788.907,374.787L788.907,382.268L800.633,382.268L800.633,386.201L783.95,386.201L783.95,359.75L800.633,359.75L800.633,363.665ZM710.836,386.201L705.915,386.201L705.915,359.732L710.836,359.732L710.836,370.835L711.988,370.835C712.452,370.835 712.836,370.771 713.141,370.643C713.445,370.515 713.708,370.311 713.927,370.031L721.226,360.793C721.531,360.403 721.851,360.131 722.186,359.979C722.521,359.826 722.945,359.75 723.457,359.75L727.701,359.75L718.793,370.744C718.512,371.085 718.244,371.372 717.988,371.604C717.732,371.835 717.458,372.024 717.165,372.171C717.567,372.317 717.93,372.524 718.253,372.793C718.576,373.061 718.89,373.402 719.195,373.817L728.378,386.201L724.024,386.201C723.439,386.201 723.003,386.119 722.717,385.954C722.43,385.789 722.189,385.548 721.994,385.231L714.513,375.463C714.269,375.146 713.994,374.918 713.689,374.777C713.385,374.637 712.952,374.567 712.391,374.567L710.836,374.567L710.836,386.201ZM882.234,386.201L877.314,386.201L877.314,375.921L867.674,359.75L872.009,359.75C872.436,359.75 872.774,359.854 873.024,360.061C873.274,360.269 873.485,360.531 873.655,360.848L878.503,369.683C878.783,370.207 879.027,370.704 879.235,371.174C879.442,371.643 879.631,372.104 879.802,372.555C879.96,372.091 880.14,371.625 880.341,371.156C880.542,370.686 880.783,370.195 881.064,369.683L885.875,360.848C886.009,360.58 886.21,360.33 886.478,360.098C886.747,359.866 887.088,359.75 887.503,359.75L891.856,359.75L882.234,375.921L882.234,386.201ZM1067.06,363.793L1059.1,363.793L1059.1,386.201L1054.18,386.201L1054.18,363.793L1046.19,363.793L1046.19,359.75L1067.06,359.75L1067.06,363.793ZM1225.23,386.201L1220.29,386.201L1220.29,359.75L1225.23,359.75L1225.23,386.201ZM1148.4,386.201L1144.6,386.201C1144.17,386.201 1143.82,386.094 1143.55,385.881C1143.27,385.667 1143.08,385.402 1142.95,385.085L1140.98,379.689L1130.02,379.689L1128.05,385.085C1127.95,385.366 1127.76,385.622 1127.47,385.853C1127.18,386.085 1126.83,386.201 1126.42,386.201L1122.6,386.201L1132.99,359.75L1138.02,359.75L1148.4,386.201ZM995.445,386.201L991.11,386.201L991.11,359.75L994.823,359.75C995.043,359.75 995.232,359.756 995.391,359.769C995.549,359.781 995.692,359.811 995.82,359.86C995.948,359.909 996.067,359.988 996.177,360.098C996.287,360.208 996.39,360.354 996.488,360.537L1004.39,375.226C1004.6,375.616 1004.79,376.021 1004.97,376.442C1005.14,376.863 1005.32,377.286 1005.49,377.713C1005.66,377.274 1005.84,376.841 1006.02,376.415C1006.2,375.988 1006.4,375.579 1006.6,375.189L1014.43,360.537C1014.53,360.354 1014.63,360.208 1014.74,360.098C1014.84,359.988 1014.95,359.909 1015.08,359.86C1015.21,359.811 1015.35,359.781 1015.51,359.769C1015.67,359.756 1015.86,359.75 1016.08,359.75L1019.79,359.75L1019.79,386.201L1015.46,386.201L1015.46,369.116C1015.46,368.799 1015.47,368.451 1015.49,368.073C1015.5,367.695 1015.53,367.311 1015.57,366.921L1007.57,381.921C1007.39,382.262 1007.15,382.527 1006.86,382.716C1006.57,382.905 1006.23,383 1005.84,383L1005.16,383C1004.77,383 1004.43,382.905 1004.13,382.716C1003.84,382.527 1003.6,382.262 1003.42,381.921L995.317,366.866C995.366,367.268 995.4,367.662 995.418,368.046C995.436,368.43 995.445,368.787 995.445,369.116L995.445,386.201ZM751.06,372.976C751.06,371.524 750.868,370.223 750.484,369.07C750.1,367.918 749.548,366.939 748.829,366.134C748.109,365.329 747.234,364.714 746.204,364.287C745.173,363.86 744.012,363.647 742.719,363.647C741.427,363.647 740.262,363.86 739.225,364.287C738.189,364.714 737.308,365.329 736.582,366.134C735.857,366.939 735.299,367.918 734.908,369.07C734.518,370.223 734.323,371.524 734.323,372.976C734.323,374.427 734.518,375.729 734.908,376.881C735.299,378.033 735.857,379.009 736.582,379.808C737.308,380.607 738.189,381.219 739.225,381.646C740.262,382.073 741.427,382.286 742.719,382.286C744.012,382.286 745.173,382.073 746.204,381.646C747.234,381.219 748.109,380.607 748.829,379.808C749.548,379.009 750.1,378.033 750.484,376.881C750.868,375.729 751.06,374.427 751.06,372.976ZM1131.28,376.213L1139.72,376.213L1136.5,367.415C1136.35,367.025 1136.19,366.564 1136.01,366.034C1135.84,365.503 1135.66,364.927 1135.49,364.305C1135.32,364.927 1135.15,365.506 1134.99,366.043C1134.82,366.579 1134.66,367.049 1134.5,367.451L1131.28,376.213ZM1031.26,376.213L1039.69,376.213L1036.47,367.415C1036.33,367.025 1036.17,366.564 1035.99,366.034C1035.81,365.503 1035.64,364.927 1035.47,364.305C1035.3,364.927 1035.13,365.506 1034.97,366.043C1034.8,366.579 1034.64,367.049 1034.48,367.451L1031.26,376.213ZM813.675,363.555L809.98,363.555L809.98,373.049L813.675,373.049C814.577,373.049 815.364,372.936 816.035,372.71C816.705,372.485 817.26,372.162 817.699,371.741C818.138,371.32 818.468,370.808 818.687,370.204C818.907,369.601 819.016,368.927 819.016,368.183C819.016,367.476 818.907,366.835 818.687,366.262C818.468,365.689 818.138,365.201 817.699,364.799C817.26,364.397 816.705,364.089 816.035,363.875C815.364,363.662 814.578,363.555 813.675,363.555ZM768.219,363.555L765.072,363.555L765.072,372.335L768.145,372.335C769.072,372.335 769.88,372.22 770.569,371.988C771.258,371.756 771.825,371.436 772.27,371.027C772.716,370.619 773.048,370.134 773.267,369.573C773.487,369.012 773.597,368.396 773.597,367.726C773.597,366.384 773.155,365.354 772.27,364.634C771.386,363.915 770.036,363.555 768.219,363.555ZM1046.51,309.033C1046.51,311.57 1046.07,313.93 1045.2,316.113C1044.32,318.296 1043.09,320.194 1041.5,321.808C1039.91,323.421 1038,324.685 1035.76,325.6C1033.52,326.515 1031.03,326.973 1028.3,326.973C1025.58,326.973 1023.09,326.515 1020.84,325.6C1018.59,324.685 1016.67,323.421 1015.07,321.808C1013.48,320.194 1012.24,318.296 1011.36,316.113C1010.49,313.93 1010.05,311.57 1010.05,309.033C1010.05,306.497 1010.49,304.137 1011.36,301.954C1012.24,299.77 1013.48,297.876 1015.07,296.271C1016.67,294.665 1018.59,293.405 1020.84,292.49C1023.09,291.575 1025.58,291.118 1028.3,291.118C1031.03,291.118 1033.52,291.579 1035.76,292.502C1038,293.425 1039.91,294.69 1041.5,296.295C1043.09,297.9 1044.32,299.795 1045.2,301.978C1046.07,304.161 1046.51,306.513 1046.51,309.033ZM860.851,297.956L850.978,297.956L850.978,326.588L842.839,326.588L842.839,297.956L832.967,297.956L832.967,291.503L860.851,291.503L860.851,297.956ZM904.003,320.086L917.006,320.086L917.006,326.588L895.864,326.588L895.864,291.503L904.003,291.503L904.003,320.086ZM943.446,297.764L929.046,297.764L929.046,305.951L940.075,305.951L940.075,311.971L929.046,311.971L929.046,320.327L943.446,320.327L943.446,326.588L920.859,326.588L920.859,291.503L943.446,291.503L943.446,297.764ZM1009.96,297.956L1000.08,297.956L1000.08,326.588L991.943,326.588L991.943,297.956L982.071,297.956L982.071,291.503L1009.96,291.503L1009.96,297.956ZM955.245,326.588L948.069,326.588L948.069,291.503L952.356,291.503C952.709,291.503 953.006,291.519 953.247,291.551C953.487,291.583 953.704,291.643 953.897,291.732C954.089,291.82 954.274,291.944 954.451,292.105C954.627,292.265 954.828,292.482 955.053,292.755L971.716,313.825C971.652,313.151 971.604,312.497 971.572,311.863C971.54,311.229 971.523,310.631 971.523,310.069L971.523,291.503L978.699,291.503L978.699,326.588L974.461,326.588C973.835,326.588 973.305,326.491 972.872,326.299C972.439,326.106 972.021,325.753 971.62,325.239L955.077,304.338C955.125,304.948 955.165,305.546 955.197,306.132C955.229,306.718 955.245,307.267 955.245,307.781L955.245,326.588ZM893.022,326.588L886.713,326.588C886.007,326.588 885.425,326.423 884.968,326.094C884.51,325.765 884.193,325.344 884.016,324.83L881.945,318.713L868.605,318.713L866.534,324.83C866.374,325.279 866.061,325.685 865.595,326.046C865.13,326.407 864.56,326.588 863.885,326.588L857.528,326.588L871.109,291.503L879.441,291.503L893.022,326.588ZM1065.97,326.588L1058.6,326.588L1047.76,291.503L1054.6,291.503C1055.31,291.503 1055.9,291.663 1056.37,291.985C1056.84,292.306 1057.15,292.731 1057.3,293.261L1062.11,311.562C1062.27,312.156 1062.43,312.79 1062.59,313.464C1062.76,314.138 1062.88,314.845 1062.96,315.583C1063.12,314.829 1063.29,314.118 1063.49,313.452C1063.68,312.786 1063.86,312.156 1064.04,311.562L1069.72,293.261C1069.87,292.811 1070.18,292.406 1070.65,292.045C1071.12,291.684 1071.7,291.503 1072.37,291.503L1074.78,291.503C1075.49,291.503 1076.07,291.659 1076.53,291.973C1076.98,292.286 1077.3,292.715 1077.48,293.261L1083.11,311.562C1083.29,312.124 1083.47,312.722 1083.66,313.356C1083.86,313.99 1084.03,314.668 1084.17,315.39C1084.3,314.684 1084.43,314.01 1084.57,313.368C1084.7,312.726 1084.84,312.124 1084.99,311.562L1089.81,293.261C1089.93,292.795 1090.24,292.386 1090.72,292.033C1091.2,291.68 1091.78,291.503 1092.45,291.503L1098.86,291.503L1088.02,326.588L1080.65,326.588L1074.06,304.843C1073.94,304.506 1073.83,304.137 1073.71,303.736C1073.59,303.334 1073.47,302.909 1073.36,302.459C1073.25,302.909 1073.13,303.334 1073.01,303.736C1072.89,304.137 1072.77,304.506 1072.66,304.843L1065.97,326.588ZM1038.18,309.033C1038.18,307.3 1037.95,305.738 1037.5,304.35C1037.05,302.961 1036.41,301.785 1035.57,300.822C1034.72,299.859 1033.69,299.12 1032.47,298.607C1031.25,298.093 1029.86,297.836 1028.3,297.836C1026.73,297.836 1025.33,298.093 1024.1,298.607C1022.87,299.12 1021.84,299.859 1021,300.822C1020.15,301.785 1019.51,302.961 1019.06,304.35C1018.61,305.738 1018.38,307.3 1018.38,309.033C1018.38,310.783 1018.61,312.352 1019.06,313.741C1019.51,315.13 1020.15,316.305 1021,317.269C1021.84,318.232 1022.87,318.966 1024.1,319.472C1025.33,319.978 1026.73,320.231 1028.3,320.231C1029.86,320.231 1031.25,319.978 1032.47,319.472C1033.69,318.966 1034.72,318.232 1035.57,317.269C1036.41,316.305 1037.05,315.13 1037.5,313.741C1037.95,312.352 1038.18,310.783 1038.18,309.033ZM870.483,313.175L880.067,313.175L876.841,303.567C876.632,302.957 876.387,302.239 876.106,301.412C875.825,300.585 875.548,299.69 875.275,298.727C875.018,299.706 874.754,300.613 874.481,301.448C874.208,302.283 873.951,303.005 873.71,303.615L870.483,313.175ZM1028.93,289.239L1023.01,289.239L1027.37,284.496C1027.57,284.255 1027.78,284.058 1027.98,283.906C1028.18,283.753 1028.39,283.629 1028.62,283.532C1028.84,283.436 1029.09,283.372 1029.36,283.34C1029.64,283.308 1029.96,283.292 1030.33,283.292L1038.56,283.292L1031.46,288.445C1031.04,288.766 1030.65,288.979 1030.29,289.083C1029.93,289.187 1029.48,289.239 1028.93,289.239ZM845.051,239.151C844.715,239.688 844.363,240.09 843.994,240.359C843.625,240.627 843.15,240.761 842.568,240.761C842.054,240.761 841.5,240.599 840.907,240.275C840.315,239.95 839.644,239.587 838.894,239.184C838.145,238.782 837.289,238.418 836.328,238.094C835.366,237.77 834.27,237.607 833.04,237.607C830.915,237.607 829.332,238.06 828.292,238.966C827.252,239.872 826.732,241.097 826.732,242.64C826.732,243.624 827.045,244.441 827.671,245.089C828.298,245.738 829.12,246.297 830.137,246.767C831.155,247.237 832.318,247.667 833.627,248.059C834.935,248.45 836.272,248.886 837.636,249.367C839.001,249.848 840.337,250.413 841.645,251.061C842.954,251.71 844.117,252.538 845.135,253.544C846.153,254.551 846.975,255.775 847.601,257.218C848.227,258.661 848.54,260.4 848.54,262.435C848.54,264.694 848.149,266.808 847.366,268.776C846.583,270.745 845.448,272.461 843.961,273.926C842.473,275.391 840.639,276.543 838.458,277.382C836.277,278.221 833.8,278.64 831.027,278.64C829.506,278.64 827.957,278.484 826.38,278.171C824.803,277.857 823.276,277.416 821.8,276.845C820.324,276.275 818.937,275.598 817.64,274.816C816.342,274.033 815.213,273.16 814.251,272.199L817.606,266.897C817.852,266.495 818.199,266.171 818.646,265.924C819.094,265.678 819.574,265.555 820.089,265.555C820.76,265.555 821.437,265.768 822.119,266.193C822.801,266.618 823.573,267.088 824.434,267.602C825.295,268.116 826.285,268.586 827.403,269.011C828.521,269.436 829.841,269.649 831.362,269.649C833.42,269.649 835.019,269.196 836.16,268.29C837.301,267.384 837.871,265.947 837.871,263.979C837.871,262.838 837.558,261.91 836.932,261.194C836.305,260.478 835.483,259.885 834.466,259.416C833.448,258.946 832.29,258.532 830.993,258.174C829.696,257.816 828.365,257.419 827,256.983C825.636,256.547 824.305,256.01 823.008,255.373C821.711,254.735 820.553,253.896 819.535,252.856C818.518,251.816 817.696,250.519 817.069,248.964C816.443,247.41 816.13,245.492 816.13,243.21C816.13,241.376 816.499,239.587 817.237,237.842C817.975,236.098 819.06,234.543 820.492,233.179C821.923,231.814 823.679,230.724 825.759,229.907C827.839,229.091 830.221,228.683 832.905,228.683C834.404,228.683 835.864,228.8 837.284,229.035C838.704,229.27 840.052,229.617 841.327,230.075C842.602,230.534 843.793,231.082 844.9,231.719C846.007,232.357 846.997,233.078 847.869,233.883L845.051,239.151ZM958.228,269.789C947.223,261.978 940.037,249.133 940.037,234.623C940.037,224.474 943.552,215.14 949.432,207.773L954.471,186.839C954.471,186.839 958.181,191.797 964.922,195.56C970.454,192.974 976.625,191.529 983.131,191.529C988.333,191.529 993.322,192.453 997.941,194.145C1005.48,189.178 1010.1,182.67 1010.1,182.67L1015.06,205.697C1022,213.346 1026.22,223.495 1026.22,234.623C1026.22,257.475 1008.4,276.197 985.907,277.629C983.503,278.303 980.918,278.64 978.154,278.64C974.351,278.64 970.884,278.003 967.753,276.728C964.622,275.453 961.943,273.692 959.718,271.444C959.193,270.914 958.697,270.362 958.228,269.789ZM1061.2,278.104L1031.75,278.104L1031.75,261.16L1025.91,264.012L1025.91,256.362C1025.91,255.49 1026.31,254.886 1027.12,254.551L1031.75,252.169L1031.75,229.22L1043.09,229.22L1043.09,247.136L1054.29,241.6L1054.29,249.015C1054.29,250.088 1053.85,250.782 1052.95,251.095L1043.09,256.195L1043.09,269.045L1061.2,269.045L1061.2,278.104ZM1112.07,278.104L1103.28,278.104C1102.29,278.104 1101.48,277.874 1100.85,277.416C1100.21,276.957 1099.77,276.37 1099.52,275.654L1096.63,267.132L1078.05,267.132L1075.16,275.654C1074.94,276.281 1074.5,276.845 1073.85,277.349C1073.2,277.852 1072.41,278.103 1071.47,278.104L1062.61,278.104L1081.54,229.22L1093.14,229.22L1112.07,278.104ZM889.204,278.104L851.493,278.104L851.493,273.742C851.493,273.227 851.582,272.719 851.761,272.215C851.94,271.712 852.186,271.248 852.499,270.823L875.515,237.943L853.372,237.943L853.372,229.22L889.942,229.22L889.942,233.313C889.942,233.894 889.847,234.465 889.657,235.024C889.467,235.583 889.204,236.109 888.869,236.601L865.92,269.38L889.204,269.38L889.204,278.104ZM906.449,278.104L895.109,278.104L895.109,229.22L906.449,229.22L906.449,249.015L908.261,249.015C909.939,249.015 911.147,248.489 911.885,247.438L922.889,231.468C923.493,230.595 924.181,230.002 924.953,229.689C925.724,229.376 926.669,229.22 927.788,229.22L937.652,229.22L923.158,248.981C922.643,249.697 922.107,250.29 921.547,250.759C920.988,251.229 920.418,251.621 919.836,251.934C920.686,252.247 921.463,252.677 922.168,253.225C922.873,253.773 923.516,254.506 924.097,255.423L938.86,278.104L928.727,278.104C928.079,278.104 927.525,278.059 927.067,277.969C926.608,277.88 926.211,277.746 925.875,277.567C925.54,277.388 925.249,277.17 925.003,276.912C924.757,276.655 924.522,276.359 924.299,276.023L913.227,259.013C912.824,258.387 912.315,257.945 911.7,257.688C911.085,257.431 910.252,257.302 909.201,257.302L906.449,257.302L906.449,278.104ZM1080.66,259.416L1094.02,259.416L1089.52,246.029C1089.23,245.179 1088.89,244.178 1088.5,243.026C1088.11,241.874 1087.72,240.627 1087.34,239.285C1086.98,240.649 1086.61,241.913 1086.23,243.076C1085.85,244.239 1085.5,245.246 1085.16,246.096L1080.66,259.416Z" style="fill:rgb(55,48,102);fill-opacity:0.5;fill-rule:nonzero;"/>
            </g>
            <g id="text" transform="matrix(0.893798,-5.50845e-33,0,0.893798,-218.682,85.6335)">
                <path d="M1043.68,306.541C1043.68,309.078 1043.24,311.437 1042.37,313.621C1041.49,315.804 1040.26,317.702 1038.67,319.316C1037.08,320.929 1035.17,322.193 1032.93,323.108C1030.69,324.023 1028.2,324.481 1025.48,324.481C1022.75,324.481 1020.26,324.023 1018.01,323.108C1015.76,322.193 1013.84,320.929 1012.24,319.316C1010.65,317.702 1009.41,315.804 1008.53,313.621C1007.66,311.437 1007.22,309.078 1007.22,306.541C1007.22,304.005 1007.66,301.645 1008.53,299.462C1009.41,297.278 1010.65,295.384 1012.24,293.779C1013.84,292.173 1015.76,290.913 1018.01,289.998C1020.26,289.083 1022.75,288.626 1025.48,288.626C1028.2,288.626 1030.69,289.087 1032.93,290.01C1035.17,290.933 1037.08,292.197 1038.67,293.803C1040.26,295.408 1041.49,297.302 1042.37,299.486C1043.24,301.669 1043.68,304.021 1043.68,306.541ZM858.022,295.464L848.15,295.464L848.15,324.096L840.011,324.096L840.011,295.464L830.138,295.464L830.138,289.011L858.022,289.011L858.022,295.464ZM901.174,317.594L914.177,317.594L914.177,324.096L893.035,324.096L893.035,289.011L901.174,289.011L901.174,317.594ZM940.617,295.272L926.217,295.272L926.217,303.459L937.246,303.459L937.246,309.479L926.217,309.479L926.217,317.835L940.617,317.835L940.617,324.096L918.03,324.096L918.03,289.011L940.617,289.011L940.617,295.272ZM1007.13,295.464L997.254,295.464L997.254,324.096L989.115,324.096L989.115,295.464L979.242,295.464L979.242,289.011L1007.13,289.011L1007.13,295.464ZM952.416,324.096L945.241,324.096L945.241,289.011L949.527,289.011C949.88,289.011 950.177,289.027 950.418,289.059C950.659,289.091 950.875,289.151 951.068,289.24C951.261,289.328 951.445,289.452 951.622,289.613C951.798,289.773 951.999,289.99 952.224,290.263L968.887,311.333C968.823,310.659 968.775,310.005 968.743,309.371C968.711,308.736 968.695,308.138 968.695,307.577L968.695,289.011L975.871,289.011L975.871,324.096L971.632,324.096C971.006,324.096 970.477,323.999 970.043,323.807C969.61,323.614 969.192,323.261 968.791,322.747L952.248,301.845C952.296,302.456 952.336,303.054 952.368,303.639C952.4,304.225 952.416,304.775 952.416,305.289L952.416,324.096ZM890.193,324.096L883.884,324.096C883.178,324.096 882.596,323.931 882.139,323.602C881.681,323.273 881.364,322.851 881.188,322.338L879.117,316.221L865.776,316.221L863.705,322.338C863.545,322.787 863.232,323.193 862.766,323.554C862.301,323.915 861.731,324.095 861.057,324.096L854.699,324.096L868.281,289.011L876.612,289.011L890.193,324.096ZM1063.14,324.096L1055.77,324.096L1044.93,289.011L1051.77,289.011C1052.48,289.011 1053.07,289.171 1053.54,289.492C1054.01,289.813 1054.32,290.239 1054.47,290.769L1059.28,309.07C1059.44,309.664 1059.61,310.298 1059.77,310.972C1059.93,311.646 1060.05,312.352 1060.13,313.091C1060.29,312.336 1060.46,311.626 1060.66,310.96C1060.85,310.294 1061.03,309.664 1061.21,309.07L1066.89,290.769C1067.04,290.319 1067.35,289.914 1067.82,289.553C1068.29,289.191 1068.87,289.011 1069.54,289.011L1071.95,289.011C1072.66,289.011 1073.24,289.167 1073.7,289.48C1074.15,289.793 1074.47,290.223 1074.65,290.769L1080.28,309.07C1080.46,309.631 1080.64,310.229 1080.84,310.863C1081.03,311.498 1081.2,312.176 1081.34,312.898C1081.47,312.192 1081.6,311.518 1081.74,310.876C1081.88,310.233 1082.02,309.631 1082.16,309.07L1086.98,290.769C1087.11,290.303 1087.41,289.894 1087.89,289.541C1088.37,289.187 1088.95,289.011 1089.63,289.011L1096.03,289.011L1085.19,324.096L1077.83,324.096L1071.23,302.351C1071.12,302.014 1071,301.645 1070.88,301.243C1070.76,300.842 1070.64,300.417 1070.53,299.967C1070.42,300.417 1070.3,300.842 1070.18,301.243C1070.06,301.645 1069.94,302.014 1069.83,302.351L1063.14,324.096ZM1035.35,306.541C1035.35,304.807 1035.12,303.246 1034.67,301.858C1034.22,300.469 1033.58,299.293 1032.74,298.33C1031.89,297.367 1030.86,296.628 1029.64,296.114C1028.42,295.601 1027.03,295.344 1025.48,295.344C1023.9,295.344 1022.5,295.601 1021.27,296.114C1020.05,296.628 1019.01,297.367 1018.17,298.33C1017.32,299.293 1016.68,300.469 1016.23,301.858C1015.78,303.246 1015.56,304.807 1015.56,306.541C1015.56,308.291 1015.78,309.86 1016.23,311.249C1016.68,312.637 1017.32,313.813 1018.17,314.777C1019.01,315.74 1020.05,316.474 1021.27,316.98C1022.5,317.486 1023.9,317.738 1025.48,317.738C1027.03,317.738 1028.42,317.486 1029.64,316.98C1030.86,316.474 1031.89,315.74 1032.74,314.777C1033.58,313.813 1034.22,312.637 1034.67,311.249C1035.12,309.86 1035.35,308.291 1035.35,306.541ZM867.654,310.683L877.238,310.683L874.012,301.075C873.803,300.465 873.558,299.747 873.277,298.92C872.996,298.093 872.719,297.198 872.446,296.235C872.19,297.214 871.925,298.121 871.652,298.956C871.379,299.791 871.122,300.513 870.881,301.123L867.654,310.683ZM1026.1,286.747L1020.18,286.747L1024.54,282.003C1024.75,281.763 1024.95,281.566 1025.15,281.414C1025.35,281.261 1025.56,281.137 1025.79,281.04C1026.01,280.944 1026.26,280.88 1026.54,280.848C1026.81,280.816 1027.13,280.799 1027.5,280.799L1035.73,280.799L1028.63,285.953C1028.21,286.274 1027.82,286.486 1027.46,286.591C1027.1,286.695 1026.65,286.747 1026.1,286.747ZM842.222,236.659C841.887,237.195 841.534,237.598 841.165,237.866C840.796,238.135 840.321,238.269 839.739,238.269C839.225,238.269 838.671,238.107 838.079,237.783C837.486,237.458 836.815,237.095 836.065,236.692C835.316,236.29 834.461,235.926 833.499,235.602C832.537,235.277 831.441,235.115 830.211,235.115C828.086,235.115 826.503,235.568 825.463,236.474C824.423,237.38 823.903,238.605 823.903,240.148C823.903,241.132 824.216,241.948 824.843,242.597C825.469,243.246 826.291,243.805 827.309,244.275C828.326,244.744 829.489,245.175 830.798,245.566C832.106,245.958 833.443,246.394 834.807,246.875C836.172,247.356 837.508,247.921 838.817,248.569C840.125,249.218 841.288,250.045 842.306,251.052C843.324,252.059 844.146,253.283 844.772,254.726C845.398,256.169 845.711,257.908 845.711,259.943C845.711,262.202 845.32,264.316 844.537,266.284C843.754,268.252 842.619,269.969 841.132,271.434C839.644,272.899 837.81,274.051 835.629,274.89C833.448,275.729 830.971,276.148 828.198,276.148C826.677,276.148 825.128,275.992 823.551,275.678C821.974,275.365 820.447,274.924 818.971,274.353C817.495,273.783 816.108,273.106 814.811,272.323C813.514,271.541 812.384,270.668 811.422,269.706L814.777,264.405C815.023,264.003 815.37,263.678 815.817,263.432C816.265,263.186 816.746,263.063 817.26,263.063C817.931,263.063 818.608,263.276 819.29,263.701C819.972,264.126 820.744,264.595 821.605,265.11C822.466,265.624 823.456,266.094 824.574,266.519C825.693,266.944 827.012,267.156 828.533,267.156C830.591,267.156 832.19,266.704 833.331,265.798C834.472,264.892 835.042,263.455 835.042,261.486C835.042,260.346 834.729,259.417 834.103,258.702C833.476,257.986 832.654,257.393 831.637,256.923C830.619,256.454 829.461,256.04 828.164,255.682C826.867,255.324 825.536,254.927 824.172,254.491C822.807,254.055 821.476,253.518 820.179,252.881C818.882,252.243 817.724,251.404 816.706,250.364C815.689,249.324 814.867,248.027 814.24,246.472C813.614,244.918 813.301,243 813.301,240.718C813.301,238.884 813.67,237.095 814.408,235.35C815.146,233.605 816.231,232.051 817.663,230.686C819.094,229.322 820.85,228.232 822.93,227.415C825.01,226.599 827.392,226.191 830.077,226.191C831.575,226.191 833.035,226.308 834.455,226.543C835.875,226.778 837.223,227.124 838.498,227.583C839.773,228.042 840.964,228.59 842.071,229.227C843.178,229.864 844.168,230.586 845.04,231.391L842.222,236.659ZM1058.38,275.611L1028.92,275.611L1028.92,258.668L1023.08,261.52L1023.08,253.87C1023.08,252.998 1023.48,252.394 1024.29,252.059L1028.92,249.676L1028.92,226.727L1040.26,226.727L1040.26,244.644L1051.46,239.108L1051.46,246.523C1051.46,247.596 1051.02,248.29 1050.12,248.603L1040.26,253.703L1040.26,266.553L1058.38,266.553L1058.38,275.611ZM886.375,275.611L848.664,275.611L848.664,271.25C848.664,270.735 848.753,270.226 848.932,269.723C849.111,269.22 849.357,268.756 849.67,268.331L872.686,235.451L850.543,235.451L850.543,226.727L887.113,226.727L887.113,230.821C887.113,231.402 887.018,231.973 886.828,232.532C886.638,233.091 886.375,233.617 886.04,234.109L863.091,266.888L886.375,266.888L886.375,275.611ZM903.621,275.611L892.28,275.611L892.28,226.727L903.621,226.727L903.621,246.523L905.432,246.523C907.11,246.523 908.318,245.997 909.056,244.946L920.061,228.975C920.664,228.103 921.352,227.51 922.124,227.197C922.896,226.884 923.841,226.727 924.959,226.727L934.823,226.727L920.329,246.489C919.814,247.205 919.278,247.798 918.718,248.267C918.159,248.737 917.589,249.128 917.007,249.442C917.857,249.755 918.635,250.185 919.339,250.733C920.044,251.281 920.687,252.014 921.268,252.931L936.031,275.611L925.898,275.611C925.25,275.611 924.696,275.567 924.238,275.477C923.779,275.388 923.382,275.253 923.047,275.075C922.711,274.896 922.42,274.678 922.174,274.42C921.928,274.163 921.693,273.867 921.47,273.531L910.398,256.521C909.995,255.895 909.486,255.453 908.871,255.196C908.256,254.938 907.423,254.81 906.372,254.81L903.621,254.81L903.621,275.611ZM1109.24,275.611L1100.45,275.611C1099.46,275.611 1098.65,275.382 1098.02,274.924C1097.38,274.465 1096.94,273.878 1096.69,273.162L1093.81,264.64L1075.22,264.64L1072.33,273.162C1072.11,273.788 1071.67,274.353 1071.02,274.856C1070.38,275.36 1069.58,275.611 1068.64,275.611L1059.79,275.611L1078.71,226.727L1090.32,226.727L1109.24,275.611ZM1077.84,256.923L1091.19,256.923L1086.69,243.537C1086.4,242.687 1086.06,241.686 1085.67,240.534C1085.28,239.382 1084.89,238.135 1084.51,236.793C1084.15,238.157 1083.79,239.421 1083.4,240.584C1083.03,241.747 1082.67,242.754 1082.33,243.604L1077.84,256.923Z" style="fill:rgb(6,214,160);fill-rule:nonzero;"/>
            </g>
            <g id="owl" transform="matrix(0.515236,1.36846e-48,0,0.515236,-46.3378,-690.243)">
                <g transform="matrix(1.73473,-1.06911e-32,0,1.73473,-334.496,1505.86)">
                    <path d="M1012.24,203.205C1019.17,210.854 1023.4,221.003 1023.4,232.131C1023.4,255.915 1004.09,275.225 980.302,275.225C956.518,275.225 937.208,255.915 937.208,232.131C937.208,221.982 940.724,212.648 946.603,205.281L951.643,184.347C951.643,184.347 955.352,189.305 962.092,193.068C967.625,190.482 973.796,189.037 980.302,189.037C985.505,189.037 990.493,189.961 995.112,191.653C1002.65,186.686 1007.27,180.178 1007.27,180.178L1012.24,203.205Z" style="fill:rgb(9,153,116);"/>
                </g>
                <g transform="matrix(1.73473,-1.06911e-32,0,1.73473,-334.496,1505.86)">
                    <path d="M948.254,260.93C953.803,248.242 966.072,239.415 980.302,239.415C994.532,239.415 1006.8,248.242 1012.35,260.93C1004.46,269.704 993.02,275.225 980.302,275.225C967.584,275.225 956.145,269.704 948.254,260.93Z" style="fill:rgb(6,214,160);"/>
                </g>
                <g transform="matrix(0.215518,0.215518,-0.215518,0.215518,1412.02,1606.51)">
                    <rect x="564.142" y="777.347" width="100.095" height="100.095" style="fill:rgb(144,44,32);"/>
                </g>
                <g transform="matrix(0.350853,0,0,0.350853,948.853,1675.25)">
                    <circle cx="1107.35" cy="613.196" r="101.822" style="fill:white;"/>
                </g>
                <g transform="matrix(0.350853,0,0,0.350853,1006.11,1675.25)">
                    <circle cx="1107.35" cy="613.196" r="101.822" style="fill:white;"/>
                </g>
                <g transform="matrix(0.163373,0,0,0.163373,1213.52,1794.48)">
                    <circle cx="1107.35" cy="613.196" r="101.822" style="fill:rgb(18,62,57);"/>
                </g>
                <g transform="matrix(0.163373,0,0,0.163373,1155.7,1794.48)">
                    <circle cx="1107.35" cy="613.196" r="101.822" style="fill:rgb(18,62,57);"/>
                </g>
            </g>
            <g transform="matrix(0.625925,0,0,0.625925,184.811,166.51)">
                <path d="M366.372,396.769L368.018,396.769C368.68,396.769 369.228,396.678 369.663,396.495C370.099,396.312 370.473,396.02 370.787,395.62L381.209,382.429C381.644,381.872 382.101,381.484 382.58,381.266C383.059,381.049 383.664,380.94 384.396,380.94L390.456,380.94L377.735,396.638C377.334,397.126 376.951,397.535 376.585,397.866C376.22,398.197 375.828,398.467 375.41,398.676C375.985,398.885 376.503,399.181 376.964,399.564C377.426,399.947 377.874,400.435 378.309,401.027L391.422,418.71L385.205,418.71C384.369,418.71 383.747,418.593 383.338,418.358C382.928,418.123 382.585,417.779 382.306,417.326L371.623,403.378C371.274,402.925 370.882,402.598 370.447,402.398C370.012,402.198 369.394,402.098 368.593,402.098L366.372,402.098L366.372,418.71L359.346,418.71L359.346,380.914L366.372,380.914L366.372,396.769Z" style="fill:rgb(225,247,244);fill-rule:nonzero;"/>
                <path d="M431.021,399.825C431.021,402.594 430.56,405.158 429.637,407.518C428.714,409.877 427.416,411.919 425.745,413.643C424.073,415.367 422.062,416.712 419.711,417.679C417.36,418.645 414.757,419.128 411.901,419.128C409.045,419.128 406.437,418.645 404.078,417.679C401.718,416.712 399.698,415.367 398.018,413.643C396.337,411.919 395.035,409.877 394.112,407.518C393.19,405.158 392.728,402.594 392.728,399.825C392.728,397.056 393.19,394.492 394.112,392.133C395.035,389.773 396.337,387.731 398.018,386.007C399.698,384.283 401.718,382.938 404.078,381.972C406.437,381.005 409.045,380.522 411.901,380.522C414.757,380.522 417.36,381.01 419.711,381.985C422.062,382.96 424.073,384.305 425.745,386.02C427.416,387.736 428.714,389.773 429.637,392.133C430.56,394.492 431.021,397.056 431.021,399.825ZM423.812,399.825C423.812,397.753 423.537,395.894 422.989,394.248C422.44,392.603 421.652,391.205 420.625,390.056C419.598,388.907 418.348,388.027 416.877,387.418C415.405,386.808 413.747,386.504 411.901,386.504C410.055,386.504 408.392,386.808 406.912,387.418C405.431,388.027 404.173,388.907 403.137,390.056C402.101,391.205 401.304,392.603 400.747,394.248C400.19,395.894 399.911,397.753 399.911,399.825C399.911,401.897 400.19,403.756 400.747,405.402C401.304,407.048 402.101,408.441 403.137,409.581C404.173,410.722 405.431,411.597 406.912,412.206C408.392,412.816 410.055,413.121 411.901,413.121C413.747,413.121 415.405,412.816 416.877,412.206C418.348,411.597 419.598,410.722 420.625,409.581C421.652,408.441 422.44,407.048 422.989,405.402C423.537,403.756 423.812,401.897 423.812,399.825Z" style="fill:rgb(225,247,244);fill-rule:nonzero;"/>
                <path d="M443.82,403.952L443.82,418.71L436.794,418.71L436.794,380.94L448.313,380.94C450.89,380.94 453.097,381.206 454.935,381.737C456.772,382.268 458.278,383.012 459.453,383.97C460.629,384.928 461.491,386.073 462.039,387.405C462.588,388.737 462.862,390.204 462.862,391.806C462.862,393.077 462.675,394.279 462.301,395.411C461.926,396.543 461.386,397.57 460.681,398.493C459.976,399.416 459.105,400.226 458.069,400.922C457.033,401.619 455.853,402.176 454.53,402.594C455.418,403.099 456.184,403.822 456.828,404.762L466.284,418.71L459.963,418.71C459.353,418.71 458.835,418.589 458.409,418.345C457.982,418.101 457.621,417.753 457.325,417.3L449.384,405.206C449.088,404.753 448.761,404.431 448.404,404.24C448.047,404.048 447.521,403.952 446.824,403.952L443.82,403.952ZM443.82,398.911L448.208,398.911C449.532,398.911 450.686,398.746 451.669,398.415C452.653,398.084 453.463,397.627 454.099,397.043C454.734,396.46 455.209,395.768 455.522,394.967C455.836,394.166 455.992,393.286 455.992,392.329C455.992,390.413 455.361,388.942 454.099,387.914C452.836,386.887 450.908,386.373 448.313,386.373L443.82,386.373L443.82,398.911Z" style="fill:rgb(225,247,244);fill-rule:nonzero;"/>
                <path d="M494.599,380.94L494.599,386.53L477.855,386.53L477.855,397.004L491.046,397.004L491.046,402.411L477.855,402.411L477.855,413.095L494.599,413.095L494.599,418.71L470.777,418.71L470.777,380.94L494.599,380.94Z" style="fill:rgb(225,247,244);fill-rule:nonzero;"/>
                <path d="M507.947,405.415L507.947,418.71L500.92,418.71L500.92,380.94L513.223,380.94C515.748,380.94 517.933,381.236 519.779,381.828C521.625,382.42 523.149,383.247 524.35,384.31C525.552,385.372 526.44,386.643 527.015,388.123C527.589,389.603 527.877,391.223 527.877,392.982C527.877,394.81 527.572,396.486 526.962,398.01C526.353,399.534 525.439,400.844 524.22,401.941C523.001,403.038 521.477,403.891 519.649,404.501C517.82,405.11 515.678,405.415 513.223,405.415L507.947,405.415ZM507.947,399.93L513.223,399.93C514.512,399.93 515.635,399.769 516.593,399.446C517.55,399.124 518.343,398.663 518.97,398.062C519.596,397.461 520.067,396.73 520.38,395.868C520.693,395.006 520.85,394.044 520.85,392.982C520.85,391.972 520.693,391.057 520.38,390.239C520.067,389.42 519.596,388.724 518.97,388.149C518.343,387.575 517.55,387.135 516.593,386.83C515.635,386.525 514.512,386.373 513.223,386.373L507.947,386.373L507.947,399.93Z" style="fill:rgb(225,247,244);fill-rule:nonzero;"/>
                <path d="M557.158,380.94L557.158,386.53L540.415,386.53L540.415,397.004L553.606,397.004L553.606,402.411L540.415,402.411L540.415,413.095L557.158,413.095L557.158,418.71L533.336,418.71L533.336,380.94L557.158,380.94Z" style="fill:rgb(225,247,244);fill-rule:nonzero;"/>
                <path d="M589.861,380.94L589.861,386.713L578.499,386.713L578.499,418.71L571.472,418.71L571.472,386.713L560.057,386.713L560.057,380.94L589.861,380.94Z" style="fill:rgb(225,247,244);fill-rule:nonzero;"/>
                <path d="M611.123,404.031L611.123,418.71L604.097,418.71L604.097,404.031L590.331,380.94L596.522,380.94C597.131,380.94 597.615,381.088 597.972,381.384C598.329,381.68 598.629,382.054 598.873,382.507L605.795,395.123C606.195,395.872 606.544,396.582 606.84,397.252C607.136,397.923 607.406,398.58 607.649,399.224C607.876,398.563 608.133,397.897 608.42,397.226C608.707,396.556 609.051,395.855 609.452,395.123L616.321,382.507C616.513,382.124 616.8,381.767 617.183,381.436C617.566,381.105 618.054,380.94 618.646,380.94L624.863,380.94L611.123,404.031Z" style="fill:rgb(225,247,244);fill-rule:nonzero;"/>
                <path d="M652.394,409.803C652.777,409.803 653.108,409.951 653.387,410.247L656.155,413.251C654.623,415.149 652.738,416.603 650.5,417.613C648.263,418.623 645.577,419.128 642.442,419.128C639.638,419.128 637.118,418.65 634.88,417.692C632.643,416.734 630.731,415.402 629.147,413.695C627.562,411.989 626.347,409.951 625.503,407.583C624.658,405.215 624.236,402.629 624.236,399.825C624.236,396.987 624.706,394.388 625.647,392.028C626.587,389.669 627.91,387.636 629.617,385.929C631.323,384.222 633.365,382.895 635.742,381.946C638.119,380.997 640.744,380.522 643.618,380.522C646.421,380.522 648.872,380.97 650.971,381.867C653.069,382.764 654.867,383.953 656.364,385.433L654.014,388.698C653.874,388.907 653.696,389.09 653.478,389.246C653.26,389.403 652.96,389.481 652.577,389.481C652.176,389.481 651.767,389.325 651.349,389.011C650.931,388.698 650.4,388.358 649.756,387.993C649.112,387.627 648.298,387.287 647.314,386.974C646.33,386.66 645.08,386.504 643.565,386.504C641.789,386.504 640.157,386.813 638.668,387.431C637.179,388.049 635.899,388.933 634.828,390.082C633.757,391.232 632.921,392.629 632.32,394.275C631.72,395.92 631.419,397.77 631.419,399.825C631.419,401.95 631.72,403.839 632.32,405.493C632.921,407.148 633.735,408.541 634.763,409.673C635.79,410.805 637,411.671 638.393,412.272C639.787,412.873 641.284,413.173 642.886,413.173C643.844,413.173 644.71,413.121 645.485,413.016C646.26,412.912 646.974,412.746 647.627,412.52C648.28,412.294 648.898,412.002 649.482,411.645C650.065,411.288 650.644,410.848 651.219,410.326C651.393,410.169 651.576,410.043 651.767,409.947C651.959,409.851 652.168,409.803 652.394,409.803Z" style="fill:rgb(225,247,244);fill-rule:nonzero;"/>
                <path d="M676.66,405.284C676.66,407.409 676.399,409.324 675.877,411.031C675.354,412.738 674.575,414.192 673.539,415.393C672.503,416.595 671.21,417.518 669.66,418.162C668.11,418.806 666.308,419.128 664.253,419.128C663.313,419.128 662.39,419.072 661.484,418.959C660.579,418.845 659.63,418.667 658.637,418.423L659.003,414.244C659.037,413.861 659.181,413.552 659.434,413.317C659.686,413.081 660.056,412.964 660.544,412.964C660.84,412.964 661.227,413.025 661.706,413.147C662.185,413.269 662.79,413.33 663.522,413.33C664.514,413.33 665.394,413.186 666.16,412.899C666.926,412.611 667.566,412.154 668.08,411.527C668.593,410.9 668.981,410.086 669.242,409.085C669.503,408.084 669.634,406.869 669.634,405.441L669.634,380.94L676.66,380.94L676.66,405.284Z" style="fill:rgb(225,247,244);fill-rule:nonzero;"/>
                <path d="M708.11,380.94L708.11,386.53L691.366,386.53L691.366,397.004L704.557,397.004L704.557,402.411L691.366,402.411L691.366,413.095L708.11,413.095L708.11,418.71L684.288,418.71L684.288,380.94L708.11,380.94Z" style="fill:rgb(225,247,244);fill-rule:nonzero;"/>
                <path d="M751.261,380.94L751.261,383.526C751.261,384.327 751.035,385.058 750.582,385.72L731.2,413.095L750.791,413.095L750.791,418.71L722.084,418.71L722.084,415.942C722.084,415.593 722.145,415.258 722.267,414.936C722.389,414.614 722.546,414.314 722.737,414.035L742.171,386.53L723.312,386.53L723.312,380.94L751.261,380.94Z" style="fill:rgb(225,247,244);fill-rule:nonzero;"/>
                <path d="M785.558,403.038C785.854,403.595 786.128,404.174 786.38,404.775C786.633,405.376 786.881,405.981 787.125,406.59C787.369,405.964 787.621,405.345 787.882,404.736C788.143,404.126 788.422,403.543 788.718,402.986L799.898,382.063C800.037,381.802 800.181,381.593 800.329,381.436C800.477,381.28 800.642,381.166 800.825,381.097C801.008,381.027 801.213,380.983 801.439,380.966C801.665,380.949 801.935,380.94 802.249,380.94L807.551,380.94L807.551,418.71L801.361,418.71L801.361,394.314C801.361,393.861 801.374,393.365 801.4,392.825C801.426,392.285 801.465,391.737 801.517,391.179L790.103,412.598C789.841,413.086 789.502,413.465 789.084,413.734C788.666,414.004 788.178,414.139 787.621,414.139L786.655,414.139C786.097,414.139 785.61,414.004 785.192,413.734C784.774,413.465 784.434,413.086 784.173,412.598L772.602,391.101C772.671,391.676 772.719,392.237 772.745,392.786C772.771,393.334 772.784,393.844 772.784,394.314L772.784,418.71L766.594,418.71L766.594,380.94L771.896,380.94C772.21,380.94 772.48,380.949 772.706,380.966C772.933,380.983 773.137,381.027 773.32,381.097C773.503,381.166 773.673,381.28 773.829,381.436C773.986,381.593 774.134,381.802 774.273,382.063L785.558,403.038Z" style="fill:rgb(225,247,244);fill-rule:nonzero;"/>
                <path d="M848.378,418.71L842.945,418.71C842.335,418.71 841.835,418.558 841.443,418.253C841.051,417.949 840.768,417.57 840.594,417.117L837.773,409.412L822.127,409.412L819.305,417.117C819.166,417.518 818.892,417.883 818.483,418.214C818.073,418.545 817.573,418.71 816.981,418.71L811.522,418.71L826.358,380.94L833.541,380.94L848.378,418.71ZM823.929,404.449L835.97,404.449L831.373,391.885C831.164,391.327 830.934,390.67 830.681,389.912C830.429,389.155 830.18,388.332 829.937,387.444C829.693,388.332 829.453,389.159 829.218,389.925C828.983,390.692 828.752,391.362 828.526,391.937L823.929,404.449Z" style="fill:rgb(225,247,244);fill-rule:nonzero;"/>
                <path d="M875.047,380.94L875.047,386.713L863.685,386.713L863.685,418.71L856.658,418.71L856.658,386.713L845.243,386.713L845.243,380.94L875.047,380.94Z" style="fill:rgb(225,247,244);fill-rule:nonzero;"/>
                <path d="M903.336,380.94L903.336,386.53L886.592,386.53L886.592,397.004L899.783,397.004L899.783,402.411L886.592,402.411L886.592,413.095L903.336,413.095L903.336,418.71L879.514,418.71L879.514,380.94L903.336,380.94Z" style="fill:rgb(225,247,244);fill-rule:nonzero;"/>
                <path d="M928.386,403.038C928.682,403.595 928.956,404.174 929.208,404.775C929.461,405.376 929.709,405.981 929.953,406.59C930.197,405.964 930.449,405.345 930.71,404.736C930.972,404.126 931.25,403.543 931.546,402.986L942.726,382.063C942.865,381.802 943.009,381.593 943.157,381.436C943.305,381.28 943.47,381.166 943.653,381.097C943.836,381.027 944.041,380.983 944.267,380.966C944.493,380.949 944.763,380.94 945.077,380.94L950.379,380.94L950.379,418.71L944.189,418.71L944.189,394.314C944.189,393.861 944.202,393.365 944.228,392.825C944.254,392.285 944.293,391.737 944.345,391.179L932.931,412.598C932.669,413.086 932.33,413.465 931.912,413.734C931.494,414.004 931.006,414.139 930.449,414.139L929.483,414.139C928.925,414.139 928.438,414.004 928.02,413.734C927.602,413.465 927.262,413.086 927.001,412.598L915.43,391.101C915.499,391.676 915.547,392.237 915.573,392.786C915.599,393.334 915.613,393.844 915.613,394.314L915.613,418.71L909.422,418.71L909.422,380.94L914.724,380.94C915.038,380.94 915.308,380.949 915.534,380.966C915.761,380.983 915.965,381.027 916.148,381.097C916.331,381.166 916.501,381.28 916.657,381.436C916.814,381.593 916.962,381.802 917.101,382.063L928.386,403.038Z" style="fill:rgb(225,247,244);fill-rule:nonzero;"/>
                <path d="M991.206,418.71L985.773,418.71C985.163,418.71 984.663,418.558 984.271,418.253C983.879,417.949 983.596,417.57 983.422,417.117L980.601,409.412L964.955,409.412L962.134,417.117C961.994,417.518 961.72,417.883 961.311,418.214C960.902,418.545 960.401,418.71 959.809,418.71L954.35,418.71L969.186,380.94L976.369,380.94L991.206,418.71ZM966.757,404.449L978.799,404.449L974.201,391.885C973.992,391.327 973.762,390.67 973.509,389.912C973.257,389.155 973.008,388.332 972.765,387.444C972.521,388.332 972.281,389.159 972.046,389.925C971.811,390.692 971.581,391.362 971.354,391.937L966.757,404.449Z" style="fill:rgb(225,247,244);fill-rule:nonzero;"/>
                <path d="M1017.88,380.94L1017.88,386.713L1006.51,386.713L1006.51,418.71L999.486,418.71L999.486,386.713L988.071,386.713L988.071,380.94L1017.88,380.94Z" style="fill:rgb(225,247,244);fill-rule:nonzero;"/>
                <path d="M1039.14,404.031L1039.14,418.71L1032.11,418.71L1032.11,404.031L1018.35,380.94L1024.54,380.94C1025.14,380.94 1025.63,381.088 1025.99,381.384C1026.34,381.68 1026.64,382.054 1026.89,382.507L1033.81,395.123C1034.21,395.872 1034.56,396.582 1034.85,397.252C1035.15,397.923 1035.42,398.58 1035.66,399.224C1035.89,398.563 1036.15,397.897 1036.43,397.226C1036.72,396.556 1037.07,395.855 1037.47,395.123L1044.34,382.507C1044.53,382.124 1044.81,381.767 1045.2,381.436C1045.58,381.105 1046.07,380.94 1046.66,380.94L1052.88,380.94L1039.14,404.031Z" style="fill:rgb(225,247,244);fill-rule:nonzero;"/>
                <path d="M1063.8,396.769L1065.44,396.769C1066.1,396.769 1066.65,396.678 1067.09,396.495C1067.52,396.312 1067.9,396.02 1068.21,395.62L1078.63,382.429C1079.07,381.872 1079.52,381.484 1080,381.266C1080.48,381.049 1081.09,380.94 1081.82,380.94L1087.88,380.94L1075.16,396.638C1074.76,397.126 1074.37,397.535 1074.01,397.866C1073.64,398.197 1073.25,398.467 1072.83,398.676C1073.41,398.885 1073.93,399.181 1074.39,399.564C1074.85,399.947 1075.3,400.435 1075.73,401.027L1088.85,418.71L1082.63,418.71C1081.79,418.71 1081.17,418.593 1080.76,418.358C1080.35,418.123 1080.01,417.779 1079.73,417.326L1069.05,403.378C1068.7,402.925 1068.31,402.598 1067.87,402.398C1067.43,402.198 1066.82,402.098 1066.02,402.098L1063.8,402.098L1063.8,418.71L1056.77,418.71L1056.77,380.914L1063.8,380.914L1063.8,396.769Z" style="fill:rgb(225,247,244);fill-rule:nonzero;"/>
                <rect x="1093.86" y="380.94" width="7.053" height="37.771" style="fill:rgb(225,247,244);fill-rule:nonzero;"/>
            </g>
        </g>
    </g>
</svg>
