<svg viewBox="0 0 523 207" xmlns="http://www.w3.org/2000/svg" fill-rule="evenodd" clip-rule="evenodd" stroke-linejoin="round" stroke-miterlimit="1.41421"><g transform="translate(-680.895 -283.702)"><g id="st_logo"><path d="M911.136 379.963c.269 0 .5.104.695.311l1.939 2.104c-1.073 1.329-2.393 2.347-3.96 3.055-1.567.707-3.448 1.061-5.643 1.061-1.963 0-3.729-.336-5.296-1.006-1.567-.671-2.905-1.604-4.015-2.799-1.11-1.195-1.96-2.622-2.552-4.281-.591-1.658-.887-3.469-.887-5.432 0-1.988.329-3.808.988-5.461.658-1.652 1.585-3.076 2.78-4.271 1.195-1.195 2.625-2.125 4.29-2.789 1.665-.665 3.503-.997 5.515-.997 1.963 0 3.68.314 5.149.942 1.47.628 2.729 1.46 3.778 2.497l-1.647 2.286c-.097.146-.222.274-.375.384-.152.11-.362.165-.631.165-.28 0-.567-.11-.859-.329-.293-.22-.665-.458-1.116-.714-.451-.256-1.022-.494-1.711-.713-.689-.22-1.564-.329-2.625-.329-1.243 0-2.387.216-3.429.649-1.043.433-1.939 1.052-2.689 1.857-.75.804-1.336 1.783-1.756 2.935-.421 1.153-.631 2.449-.631 3.888 0 1.487.21 2.811.631 3.969.42 1.159.99 2.134 1.71 2.927.719.792 1.567 1.399 2.543 1.82.975.421 2.024.631 3.146.631.671 0 1.277-.037 1.82-.11.543-.073 1.043-.189 1.5-.347.457-.159.89-.363 1.299-.613.408-.25.814-.558 1.216-.924.122-.11.25-.198.384-.265s.281-.101.439-.101zm-155.027-6.987c0 1.939-.323 3.734-.969 5.387-.647 1.652-1.555 3.082-2.726 4.289-1.171 1.208-2.579 2.15-4.225 2.826-1.647.677-3.47 1.016-5.47 1.016-2 0-3.826-.339-5.478-1.016-1.653-.676-3.067-1.618-4.244-2.826-1.177-1.207-2.089-2.637-2.735-4.289-.646-1.653-.969-3.448-.969-5.387 0-1.939.323-3.735.969-5.387.646-1.653 1.558-3.083 2.735-4.29 1.177-1.207 2.591-2.149 4.244-2.826 1.652-.677 3.478-1.015 5.478-1.015 2 0 3.823.341 5.47 1.024 1.646.683 3.054 1.625 4.225 2.826 1.171 1.201 2.079 2.628 2.726 4.281.646 1.652.969 3.448.969 5.387zm172.021 3.823c0 1.487-.183 2.829-.549 4.024-.366 1.195-.912 2.213-1.637 3.055-.726.841-1.631 1.488-2.717 1.939-1.085.451-2.347.677-3.786.677-.659 0-1.305-.04-1.939-.119-.634-.08-1.299-.205-1.994-.375l.256-2.927c.025-.268.125-.485.302-.649.177-.165.436-.247.777-.247.208 0 .479.042.814.128.336.085.76.128 1.272.128.695 0 1.311-.101 1.847-.302.537-.201.985-.521 1.345-.96.36-.439.631-1.01.814-1.711.183-.701.274-1.552.274-2.552V359.75h4.921v17.049zm120.25 9.402h-3.8c-.43 0-.78-.107-1.05-.32-.28-.214-.48-.479-.6-.796l-1.97-5.396H1030l-1.98 5.396c-.09.281-.29.537-.57.768-.29.232-.64.348-1.05.348h-3.83l10.39-26.451h5.03l10.39 26.451zm47.09 0h-4.34V359.75h3.72c.22 0 .4.006.56.019.16.012.3.042.43.091.13.049.25.128.36.238.11.11.21.256.31.439l7.9 14.689c.21.39.4.795.58 1.216.18.421.35.844.52 1.271.17-.439.35-.872.53-1.298.18-.427.38-.836.59-1.226l7.82-14.652c.1-.183.2-.329.31-.439.1-.11.22-.189.34-.238.13-.049.28-.079.43-.091.16-.013.35-.019.57-.019h3.72v26.451h-4.34v-17.085c0-.317.01-.665.03-1.043.02-.378.04-.762.08-1.152l-7.99 15c-.19.341-.43.606-.72.795-.29.189-.63.284-1.02.284h-.68c-.39 0-.73-.095-1.02-.284-.3-.189-.53-.454-.72-.795l-8.1-15.055c.05.402.08.796.1 1.18.02.384.03.741.03 1.07v17.085zm86.5 0h-4.92v-10.28l-9.64-16.171h4.34c.42 0 .76.104 1.01.311.25.208.46.47.63.787l4.85 8.835c.28.524.53 1.021.73 1.491.21.469.4.93.57 1.381.16-.464.34-.93.54-1.399.2-.47.44-.961.72-1.473l4.81-8.835c.14-.268.34-.518.61-.75.26-.232.61-.348 1.02-.348h4.35l-9.62 16.171v10.28zm17.27 0h-4.92v-26.469h4.92v11.103h1.15c.47 0 .85-.064 1.16-.192.3-.128.56-.332.78-.612l7.3-9.238c.3-.39.63-.662.96-.814.33-.153.76-.229 1.27-.229h4.25l-8.91 10.994c-.28.341-.55.628-.81.86-.25.231-.53.42-.82.567.4.146.76.353 1.09.622.32.268.63.609.94 1.024l9.18 12.384h-4.35c-.59 0-1.02-.082-1.31-.247-.29-.165-.53-.406-.72-.723l-7.48-9.768c-.25-.317-.52-.545-.83-.686-.3-.14-.73-.21-1.29-.21h-1.56v11.634zm-331.895-22.408h-7.958v22.408h-4.92v-22.408h-7.994v-4.043h20.872v4.043zm299.735 0h-7.95v22.408h-4.93v-22.408h-7.99v-4.043h20.87v4.043zm-402.008 22.408h-4.92V359.75h8.067c1.804 0 3.35.186 4.637.558 1.286.372 2.341.893 3.164 1.564s1.427 1.473 1.811 2.406c.384.933.576 1.96.576 3.082 0 .89-.131 1.732-.393 2.524-.262.793-.64 1.512-1.134 2.159-.494.646-1.104 1.213-1.829 1.701-.726.488-1.552.878-2.479 1.171.622.353 1.159.859 1.61 1.518l6.622 9.768h-4.427c-.427 0-.79-.085-1.088-.256-.299-.171-.552-.415-.76-.732l-5.56-8.469c-.208-.317-.436-.543-.686-.677-.25-.134-.619-.201-1.107-.201h-2.104v10.335zm214.971 0H959.94v-1.939c0-.244.043-.479.128-.704.085-.226.195-.436.329-.631l13.61-19.262H960.8v-3.915h19.573v1.811c0 .561-.159 1.073-.476 1.537l-13.573 19.17h13.719v3.933zm-170.063 0h-4.921V359.75h8.616c1.768 0 3.299.208 4.591.622 1.293.415 2.36.994 3.201 1.738.842.744 1.464 1.634 1.866 2.671.403 1.036.604 2.17.604 3.402 0 1.28-.213 2.454-.64 3.521-.427 1.067-1.067 1.985-1.921 2.753-.854.769-1.921 1.366-3.201 1.793-1.281.427-2.78.64-4.5.64h-3.695v9.311zm34.463-22.536h-11.726V371h9.238v3.787h-9.238v7.481h11.726v3.933H827.76V359.75h16.683v3.915zm242.427 0h-11.73V371h9.24v3.787h-9.24v7.481h11.73v3.933h-16.68V359.75h16.68v3.915zm-136.716 0h-11.726V371h9.238v3.787h-9.238v7.481h11.726v3.933h-16.683V359.75h16.683v3.915zm-149.521 0h-11.726V371h9.238v3.787h-9.238v7.481h11.726v3.933H783.95V359.75h16.683v3.915zm-89.797 22.536h-4.921v-26.469h4.921v11.103h1.152c.464 0 .848-.064 1.153-.192.304-.128.567-.332.786-.612l7.299-9.238c.305-.39.625-.662.96-.814.335-.153.759-.229 1.271-.229h4.244l-8.908 10.994c-.281.341-.549.628-.805.86-.256.231-.53.42-.823.567.402.146.765.353 1.088.622.323.268.637.609.942 1.024l9.183 12.384h-4.354c-.585 0-1.021-.082-1.307-.247-.287-.165-.528-.406-.723-.723l-7.481-9.768c-.244-.317-.519-.545-.824-.686-.304-.14-.737-.21-1.298-.21h-1.555v11.634zm171.398 0h-4.92v-10.28l-9.64-16.171h4.335c.427 0 .765.104 1.015.311.25.208.461.47.631.787l4.848 8.835c.28.524.524 1.021.732 1.491.207.469.396.93.567 1.381.158-.464.338-.93.539-1.399.201-.47.442-.961.723-1.473l4.811-8.835c.134-.268.335-.518.603-.75.269-.232.61-.348 1.025-.348h4.353l-9.622 16.171v10.28zm184.826-22.408h-7.96v22.408h-4.92v-22.408h-7.99v-4.043h20.87v4.043zm158.17 22.408h-4.94V359.75h4.94v26.451zm-76.83 0h-3.8c-.43 0-.78-.107-1.05-.32-.28-.214-.47-.479-.6-.796l-1.97-5.396h-10.96l-1.97 5.396c-.1.281-.29.537-.58.768-.29.232-.64.348-1.05.348h-3.82l10.39-26.451h5.03l10.38 26.451zm-152.955 0h-4.335V359.75h3.713c.22 0 .409.006.568.019.158.012.301.042.429.091.128.049.247.128.357.238.11.11.213.256.311.439l7.902 14.689c.21.39.4.795.58 1.216.17.421.35.844.52 1.271.17-.439.35-.872.53-1.298.18-.427.38-.836.58-1.226l7.83-14.652c.1-.183.2-.329.31-.439.1-.11.21-.189.34-.238.13-.049.27-.079.43-.091.16-.013.35-.019.57-.019h3.71v26.451h-4.33v-17.085c0-.317.01-.665.03-1.043.01-.378.04-.762.08-1.152l-8 15c-.18.341-.42.606-.71.795-.29.189-.63.284-1.02.284h-.68c-.39 0-.73-.095-1.03-.284-.29-.189-.53-.454-.71-.795l-8.103-15.055c.049.402.083.796.101 1.18.018.384.027.741.027 1.07v17.085zM751.06 372.976c0-1.452-.192-2.753-.576-3.906-.384-1.152-.936-2.131-1.655-2.936-.72-.805-1.595-1.42-2.625-1.847-1.031-.427-2.192-.64-3.485-.64-1.292 0-2.457.213-3.494.64-1.036.427-1.917 1.042-2.643 1.847-.725.805-1.283 1.784-1.674 2.936-.39 1.153-.585 2.454-.585 3.906 0 1.451.195 2.753.585 3.905.391 1.152.949 2.128 1.674 2.927.726.799 1.607 1.411 2.643 1.838 1.037.427 2.202.64 3.494.64 1.293 0 2.454-.213 3.485-.64 1.03-.427 1.905-1.039 2.625-1.838.719-.799 1.271-1.775 1.655-2.927.384-1.152.576-2.454.576-3.905zm380.22 3.237h8.44l-3.22-8.798c-.15-.39-.31-.851-.49-1.381-.17-.531-.35-1.107-.52-1.729-.17.622-.34 1.201-.5 1.738-.17.536-.33 1.006-.49 1.408l-3.22 8.762zm-100.02 0h8.43l-3.22-8.798c-.14-.39-.3-.851-.48-1.381-.18-.531-.35-1.107-.52-1.729-.17.622-.34 1.201-.5 1.738-.17.536-.33 1.006-.49 1.408l-3.22 8.762zm-217.585-12.658h-3.695v9.494h3.695c.902 0 1.689-.113 2.36-.339.67-.225 1.225-.548 1.664-.969.439-.421.769-.933.988-1.537.22-.603.329-1.277.329-2.021 0-.707-.109-1.348-.329-1.921-.219-.573-.549-1.061-.988-1.463-.439-.402-.994-.71-1.664-.924-.671-.213-1.457-.32-2.36-.32zm-45.456 0h-3.147v8.78h3.073c.927 0 1.735-.115 2.424-.347.689-.232 1.256-.552 1.701-.961.446-.408.778-.893.997-1.454.22-.561.33-1.177.33-1.847 0-1.342-.442-2.372-1.327-3.092-.884-.719-2.234-1.079-4.051-1.079zm278.291-54.522c0 2.537-.44 4.897-1.31 7.08-.88 2.183-2.11 4.081-3.7 5.695-1.59 1.613-3.5 2.877-5.74 3.792s-4.73 1.373-7.46 1.373c-2.72 0-5.21-.458-7.46-1.373s-4.17-2.179-5.77-3.792c-1.59-1.614-2.83-3.512-3.71-5.695-.87-2.183-1.31-4.543-1.31-7.08 0-2.536.44-4.896 1.31-7.079.88-2.184 2.12-4.078 3.71-5.683 1.6-1.606 3.52-2.866 5.77-3.781 2.25-.915 4.74-1.372 7.46-1.372 2.73 0 5.22.461 7.46 1.384 2.24.923 4.15 2.188 5.74 3.793 1.59 1.605 2.82 3.5 3.7 5.683.87 2.183 1.31 4.535 1.31 7.055zm-185.659-11.077h-9.873v28.632h-8.139v-28.632h-9.872v-6.453h27.884v6.453zm43.152 22.13h13.003v6.502h-21.142v-35.085h8.139v28.583zm39.443-22.322h-14.4v8.187h11.029v6.02h-11.029v8.356h14.4v6.261h-22.587v-35.085h22.587v6.261zm66.514.192h-9.88v28.632h-8.137v-28.632h-9.872v-6.453h27.889v6.453zm-54.715 28.632h-7.176v-35.085h4.287c.353 0 .65.016.891.048.24.032.457.092.65.181.192.088.377.212.554.373.176.16.377.377.602.65l16.663 21.07c-.064-.674-.112-1.328-.144-1.962-.032-.634-.049-1.232-.049-1.794v-18.566h7.176v35.085h-4.238c-.626 0-1.156-.097-1.589-.289-.433-.193-.851-.546-1.252-1.06l-16.543-20.901c.048.61.088 1.208.12 1.794.032.586.048 1.135.048 1.649v18.807zm-62.223 0h-6.309c-.706 0-1.288-.165-1.745-.494-.458-.329-.775-.75-.952-1.264l-2.071-6.117h-13.34l-2.071 6.117c-.16.449-.473.855-.939 1.216-.465.361-1.035.542-1.71.542h-6.357l13.581-35.085h8.332l13.581 35.085zm172.948 0h-7.37l-10.84-35.085h6.84c.71 0 1.3.16 1.77.482.47.321.78.746.93 1.276l4.81 18.301c.16.594.32 1.228.48 1.902.17.674.29 1.381.37 2.119.16-.754.33-1.465.53-2.131.19-.666.37-1.296.55-1.89l5.68-18.301c.15-.45.46-.855.93-1.216.47-.361 1.05-.542 1.72-.542h2.41c.71 0 1.29.156 1.75.47.45.313.77.742.95 1.288l5.63 18.301c.18.562.36 1.16.55 1.794.2.634.37 1.312.51 2.034.13-.706.26-1.38.4-2.022.13-.642.27-1.244.42-1.806l4.82-18.301c.12-.466.43-.875.91-1.228.48-.353 1.06-.53 1.73-.53h6.41l-10.84 35.085h-7.37l-6.59-21.745c-.12-.337-.23-.706-.35-1.107-.12-.402-.24-.827-.35-1.277-.11.45-.23.875-.35 1.277-.12.401-.24.77-.35 1.107l-6.69 21.745zm-27.79-17.555c0-1.733-.23-3.295-.68-4.683-.45-1.389-1.09-2.565-1.93-3.528-.85-.963-1.88-1.702-3.1-2.215-1.22-.514-2.61-.771-4.17-.771-1.57 0-2.97.257-4.2.771-1.23.513-2.26 1.252-3.1 2.215-.85.963-1.49 2.139-1.94 3.528-.45 1.388-.68 2.95-.68 4.683 0 1.75.23 3.319.68 4.708.45 1.389 1.09 2.564 1.94 3.528.84.963 1.87 1.697 3.1 2.203 1.23.506 2.63.759 4.2.759 1.56 0 2.95-.253 4.17-.759 1.22-.506 2.25-1.24 3.1-2.203.84-.964 1.48-2.139 1.93-3.528.45-1.389.68-2.958.68-4.708zm-167.697 4.142h9.584l-3.226-9.608c-.209-.61-.454-1.328-.735-2.155-.281-.827-.558-1.722-.831-2.685-.257.979-.521 1.886-.794 2.721-.273.835-.53 1.557-.771 2.167l-3.227 9.56zm158.447-23.936h-5.92l4.36-4.743c.2-.241.41-.438.61-.59.2-.153.41-.277.64-.374.22-.096.47-.16.74-.192.28-.032.6-.048.97-.048h8.23l-7.1 5.153c-.42.321-.81.534-1.17.638-.36.104-.81.156-1.36.156zm-183.879-50.088c-.336.537-.688.939-1.057 1.208-.369.268-.844.402-1.426.402-.514 0-1.068-.162-1.661-.486-.592-.325-1.263-.688-2.013-1.091-.749-.402-1.605-.766-2.566-1.09-.962-.324-2.058-.487-3.288-.487-2.125 0-3.708.453-4.748 1.359-1.04.906-1.56 2.131-1.56 3.674 0 .984.313 1.801.939 2.449.627.649 1.449 1.208 2.466 1.678 1.018.47 2.181.9 3.49 1.292 1.308.391 2.645.827 4.009 1.308 1.365.481 2.701 1.046 4.009 1.694 1.309.649 2.472 1.477 3.49 2.483 1.018 1.007 1.84 2.231 2.466 3.674.626 1.443.939 3.182.939 5.217 0 2.259-.391 4.373-1.174 6.341-.783 1.969-1.918 3.685-3.405 5.15-1.488 1.465-3.322 2.617-5.503 3.456s-4.658 1.258-7.431 1.258c-1.521 0-3.07-.156-4.647-.469-1.577-.314-3.104-.755-4.58-1.326-1.476-.57-2.863-1.247-4.16-2.029-1.298-.783-2.427-1.656-3.389-2.617l3.355-5.302c.246-.402.593-.726 1.04-.973.448-.246.928-.369 1.443-.369.671 0 1.348.213 2.03.638.682.425 1.454.895 2.315 1.409s1.851.984 2.969 1.409c1.118.425 2.438.638 3.959.638 2.058 0 3.657-.453 4.798-1.359 1.141-.906 1.711-2.343 1.711-4.311 0-1.141-.313-2.069-.939-2.785-.627-.716-1.449-1.309-2.466-1.778-1.018-.47-2.176-.884-3.473-1.242-1.297-.358-2.628-.755-3.993-1.191-1.364-.436-2.695-.973-3.992-1.61-1.297-.638-2.455-1.477-3.473-2.517-1.017-1.04-1.839-2.337-2.466-3.892-.626-1.554-.939-3.472-.939-5.754 0-1.834.369-3.623 1.107-5.368.738-1.744 1.823-3.299 3.255-4.663 1.431-1.365 3.187-2.455 5.267-3.272 2.08-.816 4.462-1.224 7.146-1.224 1.499 0 2.959.117 4.379.352 1.42.235 2.768.582 4.043 1.04 1.275.459 2.466 1.007 3.573 1.644 1.107.638 2.097 1.359 2.969 2.164l-2.818 5.268zm113.177 30.638c-11.005-7.811-18.191-20.656-18.191-35.166 0-10.149 3.515-19.483 9.395-26.85l5.039-20.934s3.71 4.958 10.451 8.721c5.532-2.586 11.703-4.031 18.209-4.031 5.202 0 10.191.924 14.81 2.616 7.539-4.967 12.159-11.475 12.159-11.475l4.96 23.027c6.94 7.649 11.16 17.798 11.16 28.926 0 22.852-17.82 41.574-40.313 43.006-2.404.674-4.989 1.011-7.753 1.011-3.803 0-7.27-.637-10.401-1.912-3.131-1.275-5.81-3.036-8.035-5.284-.525-.53-1.021-1.082-1.49-1.655zm102.972 8.315h-29.45V261.16l-5.84 2.852v-7.65c0-.872.4-1.476 1.21-1.811l4.63-2.382V229.22h11.34v17.916l11.2-5.536v7.415c0 1.073-.44 1.767-1.34 2.08l-9.86 5.1v12.85h18.11v9.059zm50.87 0h-8.79c-.99 0-1.8-.23-2.43-.688-.64-.459-1.08-1.046-1.33-1.762l-2.89-8.522h-18.58l-2.89 8.522c-.22.627-.66 1.191-1.31 1.695-.65.503-1.44.754-2.38.755h-8.86l18.93-48.884h11.6l18.93 48.884zm-222.866 0h-37.711v-4.362c0-.515.089-1.023.268-1.527.179-.503.425-.967.738-1.392l23.016-32.88h-22.143v-8.723h36.57v4.093c0 .581-.095 1.152-.285 1.711-.19.559-.453 1.085-.788 1.577L865.92 269.38h23.284v8.724zm17.245 0h-11.34V229.22h11.34v19.795h1.812c1.678 0 2.886-.526 3.624-1.577l11.004-15.97c.604-.873 1.292-1.466 2.064-1.779.771-.313 1.716-.469 2.835-.469h9.864l-14.494 19.761c-.515.716-1.051 1.309-1.611 1.778-.559.47-1.129.862-1.711 1.175.85.313 1.627.743 2.332 1.291.705.548 1.348 1.281 1.929 2.198l14.763 22.681h-10.133c-.648 0-1.202-.045-1.66-.135-.459-.089-.856-.223-1.192-.402-.335-.179-.626-.397-.872-.655-.246-.257-.481-.553-.704-.889l-11.072-17.01c-.403-.626-.912-1.068-1.527-1.325-.615-.257-1.448-.386-2.499-.386h-2.752v20.802zm174.211-18.688h13.36l-4.5-13.387c-.29-.85-.63-1.851-1.02-3.003-.39-1.152-.78-2.399-1.16-3.741-.36 1.364-.73 2.628-1.11 3.791-.38 1.163-.73 2.17-1.07 3.02l-4.5 13.32z" fill="#373066" fill-opacity=".49804" fill-rule="nonzero" transform="matrix(1 0 0 1 -22.1902 103.528)" id="logo_shadow"/><path d="M1043.68 306.541c0 2.537-.44 4.896-1.31 7.08-.88 2.183-2.11 4.081-3.7 5.695-1.59 1.613-3.5 2.877-5.74 3.792s-4.73 1.373-7.45 1.373c-2.73 0-5.22-.458-7.47-1.373s-4.17-2.179-5.77-3.792c-1.59-1.614-2.83-3.512-3.71-5.695-.87-2.184-1.31-4.543-1.31-7.08 0-2.536.44-4.896 1.31-7.079.88-2.184 2.12-4.078 3.71-5.683 1.6-1.606 3.52-2.866 5.77-3.781 2.25-.915 4.74-1.372 7.47-1.372 2.72 0 5.21.461 7.45 1.384 2.24.923 4.15 2.187 5.74 3.793 1.59 1.605 2.82 3.499 3.7 5.683.87 2.183 1.31 4.535 1.31 7.055zm-185.658-11.077h-9.872v28.632h-8.139v-28.632h-9.873v-6.453h27.884v6.453zm43.152 22.13h13.003v6.502h-21.142v-35.085h8.139v28.583zm39.443-22.322h-14.4v8.187h11.029v6.02h-11.029v8.356h14.4v6.261H918.03v-35.085h22.587v6.261zm66.513.192h-9.876v28.632h-8.139v-28.632h-9.873v-6.453h27.888v6.453zm-54.714 28.632h-7.175v-35.085h4.286c.353 0 .65.016.891.048s.457.092.65.181c.193.088.377.212.554.373.176.16.377.377.602.65l16.663 21.07c-.064-.674-.112-1.328-.144-1.962-.032-.635-.048-1.233-.048-1.794v-18.566h7.176v35.085h-4.239c-.626 0-1.155-.097-1.589-.289-.433-.193-.851-.546-1.252-1.06l-16.543-20.902c.048.611.088 1.209.12 1.794.032.586.048 1.136.048 1.65v18.807zm-62.223 0h-6.309c-.706 0-1.288-.165-1.745-.494-.458-.329-.775-.751-.951-1.264l-2.071-6.117h-13.341l-2.071 6.117c-.16.449-.473.855-.939 1.216-.465.361-1.035.541-1.709.542h-6.358l13.582-35.085h8.331l13.581 35.085zm172.947 0h-7.37l-10.84-35.085h6.84c.71 0 1.3.16 1.77.481.47.321.78.747.93 1.277l4.81 18.301c.16.594.33 1.228.49 1.902.16.674.28 1.38.36 2.119.16-.755.33-1.465.53-2.131.19-.666.37-1.296.55-1.89l5.68-18.301c.15-.45.46-.855.93-1.216.47-.362 1.05-.542 1.72-.542h2.41c.71 0 1.29.156 1.75.469.45.313.77.743.95 1.289l5.63 18.301c.18.561.36 1.159.56 1.793.19.635.36 1.313.5 2.035.13-.706.26-1.38.4-2.022.14-.643.28-1.245.42-1.806l4.82-18.301c.13-.466.43-.875.91-1.228.48-.354 1.06-.53 1.74-.53h6.4l-10.84 35.085h-7.36l-6.6-21.745c-.11-.337-.23-.706-.35-1.108-.12-.401-.24-.826-.35-1.276-.11.45-.23.875-.35 1.276-.12.402-.24.771-.35 1.108l-6.69 21.745zm-27.79-17.555c0-1.734-.23-3.295-.68-4.683-.45-1.389-1.09-2.565-1.93-3.528-.85-.963-1.88-1.702-3.1-2.216-1.22-.513-2.61-.77-4.16-.77-1.58 0-2.98.257-4.21.77-1.22.514-2.26 1.253-3.1 2.216-.85.963-1.49 2.139-1.94 3.528-.45 1.388-.67 2.949-.67 4.683 0 1.75.22 3.319.67 4.708.45 1.388 1.09 2.564 1.94 3.528.84.963 1.88 1.697 3.1 2.203 1.23.506 2.63.758 4.21.758 1.55 0 2.94-.252 4.16-.758 1.22-.506 2.25-1.24 3.1-2.203.84-.964 1.48-2.14 1.93-3.528.45-1.389.68-2.958.68-4.708zm-167.696 4.142h9.584l-3.226-9.608c-.209-.61-.454-1.328-.735-2.155-.281-.827-.558-1.722-.831-2.685-.256.979-.521 1.886-.794 2.721-.273.835-.53 1.557-.771 2.167l-3.227 9.56zm158.446-23.936h-5.92l4.36-4.744c.21-.24.41-.437.61-.589.2-.153.41-.277.64-.374.22-.096.47-.16.75-.192.27-.032.59-.049.96-.049h8.23l-7.1 5.154c-.42.321-.81.533-1.17.638-.36.104-.81.156-1.36.156zm-183.878-50.088c-.335.536-.688.939-1.057 1.207-.369.269-.844.403-1.426.403-.514 0-1.068-.162-1.66-.486-.593-.325-1.264-.688-2.014-1.091-.749-.402-1.604-.766-2.566-1.09-.962-.325-2.058-.487-3.288-.487-2.125 0-3.708.453-4.748 1.359-1.04.906-1.56 2.131-1.56 3.674 0 .984.313 1.8.94 2.449.626.649 1.448 1.208 2.466 1.678 1.017.469 2.18.9 3.489 1.291 1.308.392 2.645.828 4.009 1.309 1.365.481 2.701 1.046 4.01 1.694 1.308.649 2.471 1.476 3.489 2.483 1.018 1.007 1.84 2.231 2.466 3.674.626 1.443.939 3.182.939 5.217 0 2.259-.391 4.373-1.174 6.341-.783 1.968-1.918 3.685-3.405 5.15-1.488 1.465-3.322 2.617-5.503 3.456s-4.658 1.258-7.431 1.258c-1.521 0-3.07-.156-4.647-.47-1.577-.313-3.104-.754-4.58-1.325-1.476-.57-2.863-1.247-4.16-2.03-1.297-.782-2.427-1.655-3.389-2.617l3.355-5.301c.246-.402.593-.727 1.04-.973.448-.246.929-.369 1.443-.369.671 0 1.348.213 2.03.638.682.425 1.454.894 2.315 1.409.861.514 1.851.984 2.969 1.409 1.119.425 2.438.637 3.959.637 2.058 0 3.657-.452 4.798-1.358 1.141-.906 1.711-2.343 1.711-4.312 0-1.14-.313-2.069-.939-2.784-.627-.716-1.449-1.309-2.466-1.779-1.018-.469-2.176-.883-3.473-1.241-1.297-.358-2.628-.755-3.992-1.191-1.365-.436-2.696-.973-3.993-1.61-1.297-.638-2.455-1.477-3.473-2.517-1.017-1.04-1.839-2.337-2.466-3.892-.626-1.554-.939-3.472-.939-5.754 0-1.834.369-3.623 1.107-5.368s1.823-3.299 3.255-4.664c1.431-1.364 3.187-2.454 5.267-3.271 2.08-.816 4.462-1.224 7.147-1.224 1.498 0 2.958.117 4.378.352s2.768.581 4.043 1.04c1.275.459 2.466 1.007 3.573 1.644 1.107.637 2.097 1.359 2.969 2.164l-2.818 5.268zm216.158 38.952h-29.46v-16.943l-5.84 2.852v-7.65c0-.872.4-1.476 1.21-1.811l4.63-2.383v-22.949h11.34v17.917l11.2-5.536v7.415c0 1.073-.44 1.767-1.34 2.08l-9.86 5.1v12.85h18.12v9.058zm-172.005 0h-37.711v-4.361c0-.515.089-1.024.268-1.527.179-.503.425-.967.738-1.392l23.016-32.88h-22.143v-8.724h36.57v4.094c0 .581-.095 1.152-.285 1.711-.19.559-.453 1.085-.788 1.577l-22.949 32.779h23.284v8.723zm17.246 0H892.28v-48.884h11.341v19.796h1.811c1.678 0 2.886-.526 3.624-1.577l11.005-15.971c.603-.872 1.291-1.465 2.063-1.778.772-.313 1.717-.47 2.835-.47h9.864l-14.494 19.762c-.515.716-1.051 1.309-1.611 1.778-.559.47-1.129.861-1.711 1.175.85.313 1.628.743 2.332 1.291.705.548 1.348 1.281 1.929 2.198l14.763 22.68h-10.133c-.648 0-1.202-.044-1.66-.134-.459-.089-.856-.224-1.191-.402-.336-.179-.627-.397-.873-.655-.246-.257-.481-.553-.704-.889l-11.072-17.01c-.403-.626-.912-1.068-1.527-1.325-.615-.258-1.448-.386-2.499-.386h-2.751v20.801zm205.619 0h-8.79c-.99 0-1.8-.229-2.43-.687-.64-.459-1.08-1.046-1.33-1.762l-2.88-8.522h-18.59l-2.89 8.522c-.22.626-.66 1.191-1.31 1.694-.64.504-1.44.755-2.38.755h-8.85l18.92-48.884h11.61l18.92 48.884zm-31.4-18.688h13.35l-4.5-13.386c-.29-.85-.63-1.851-1.02-3.003-.39-1.152-.78-2.399-1.16-3.741-.36 1.364-.72 2.628-1.11 3.791-.37 1.163-.73 2.17-1.07 3.02l-4.49 13.319z" fill="#06d6a0" fill-rule="nonzero" transform="matrix(1 0 0 1 -22.1902 103.528)" id="text"/><path d="M1012.24 203.205c6.93 7.649 11.16 17.798 11.16 28.926 0 23.784-19.31 43.094-43.098 43.094-23.784 0-43.094-19.31-43.094-43.094 0-10.149 3.516-19.483 9.395-26.85l5.04-20.934s3.709 4.958 10.449 8.721c5.533-2.586 11.704-4.031 18.21-4.031 5.203 0 10.191.924 14.81 2.616 7.538-4.967 12.158-11.475 12.158-11.475l4.97 23.027z" fill="#099974" transform="matrix(1 0 0 1 -22.1904 103.524)"/><path d="M948.254 260.93c5.549-12.688 17.818-21.515 32.048-21.515s26.498 8.827 32.048 21.515c-7.89 8.774-19.33 14.295-32.048 14.295-12.718 0-24.157-5.521-32.048-14.295z" fill="#06d6a0" transform="matrix(1 0 0 1 -22.1904 103.524)"/><path fill="#902c20" d="M564.142 777.347h100.095v100.095H564.142z" transform="rotate(45.00077 297.32041 1269.29352) scale(.1757)"/><circle cx="1107.35" cy="613.196" r="101.822" fill="#fff" transform="matrix(.20225 0 0 .20225 717.604 201.17)"/><circle cx="1107.35" cy="613.196" r="101.822" fill="#fff" transform="matrix(.20225 0 0 .20225 750.61 201.17)"/><circle cx="1107.35" cy="613.196" r="101.822" fill="#123e39" transform="matrix(.09418 0 0 .09418 870.173 269.901)"/><circle cx="1107.35" cy="613.196" r="101.822" fill="#123e39" transform="matrix(.09418 0 0 .09418 836.843 269.901)"/><path d="M753.28 412.483c0 1.939-.323 3.735-.969 5.388-.647 1.652-1.555 3.082-2.726 4.289-1.17 1.207-2.579 2.149-4.225 2.826-1.647.677-3.47 1.015-5.47 1.015-2 0-3.826-.338-5.478-1.015-1.653-.677-3.067-1.619-4.244-2.826-1.177-1.207-2.088-2.637-2.735-4.289-.646-1.653-.969-3.449-.969-5.388s.323-3.734.969-5.387c.647-1.652 1.558-3.082 2.735-4.289 1.177-1.207 2.591-2.15 4.244-2.826 1.652-.677 3.478-1.016 5.478-1.016 2 0 3.823.342 5.47 1.025 1.646.683 3.055 1.625 4.225 2.826 1.171 1.201 2.079 2.628 2.726 4.28.646 1.653.969 3.448.969 5.387zm172.021 3.824c0 1.487-.183 2.829-.549 4.024-.366 1.195-.911 2.213-1.637 3.055-.726.841-1.631 1.487-2.716 1.939-1.086.451-2.348.676-3.787.676-.658 0-1.305-.039-1.939-.118-.634-.08-1.299-.205-1.994-.375l.256-2.927c.025-.269.125-.485.302-.65.177-.164.436-.247.778-.247.207 0 .478.043.814.129.335.085.759.128 1.271.128.695 0 1.311-.101 1.847-.302.537-.201.985-.522 1.345-.961.36-.439.631-1.009.814-1.71.183-.701.274-1.552.274-2.552v-17.158h4.921v17.049zm-16.994 3.164c.269 0 .5.104.695.311l1.939 2.104c-1.073 1.329-2.393 2.347-3.96 3.054-1.567.708-3.448 1.061-5.643 1.061-1.963 0-3.729-.335-5.296-1.006-1.567-.67-2.905-1.603-4.015-2.798-1.109-1.195-1.96-2.622-2.552-4.281-.591-1.658-.887-3.469-.887-5.433 0-1.987.33-3.807.988-5.46.659-1.652 1.585-3.076 2.781-4.271 1.195-1.195 2.624-2.125 4.289-2.79 1.665-.664 3.503-.997 5.515-.997 1.964 0 3.68.314 5.149.942 1.47.629 2.729 1.461 3.778 2.497l-1.646 2.287c-.098.146-.223.274-.375.384-.153.11-.363.165-.632.165-.28 0-.567-.11-.859-.33-.293-.219-.665-.457-1.116-.713-.451-.256-1.021-.494-1.71-.713-.689-.22-1.564-.33-2.625-.33-1.244 0-2.388.217-3.43.65-1.043.433-1.939 1.052-2.689 1.856-.75.805-1.336 1.784-1.756 2.936-.421 1.153-.631 2.448-.631 3.887 0 1.488.21 2.811.631 3.97.42 1.158.991 2.134 1.71 2.927.72.792 1.567 1.399 2.543 1.82.975.42 2.024.631 3.146.631.671 0 1.277-.037 1.82-.11.543-.073 1.043-.189 1.5-.348.457-.158.89-.362 1.299-.612.408-.25.814-.558 1.216-.924.122-.11.25-.198.384-.265.135-.067.281-.101.439-.101zm84.31 6.238h-4.336v-26.451h3.714c.219 0 .408.006.567.018.158.013.301.043.43.092.128.049.246.128.356.238.11.109.214.256.311.439l7.901 14.688c.21.391.4.796.58 1.217.17.421.35.844.52 1.271.17-.439.35-.872.53-1.299.18-.426.38-.835.58-1.225l7.83-14.652c.1-.183.2-.33.31-.439.1-.11.22-.189.34-.238.13-.049.27-.079.43-.092.16-.012.35-.018.57-.018h3.71v26.451h-4.33v-17.085c0-.317.01-.665.03-1.043.01-.378.04-.762.08-1.152l-8 14.999c-.18.342-.42.607-.71.796-.29.189-.63.284-1.02.284h-.68c-.39 0-.73-.095-1.02-.284-.3-.189-.54-.454-.72-.796l-8.102-15.054c.049.402.083.796.101 1.18.018.384.028.741.028 1.07v17.085zm52.933 0h-3.8c-.43 0-.78-.107-1.05-.32-.28-.214-.48-.479-.6-.796l-1.97-5.396h-10.96l-1.98 5.396c-.09.28-.29.537-.57.768-.29.232-.64.348-1.05.348h-3.83l10.39-26.451h5.03l10.39 26.451zm176.85 0h-4.94v-26.451h4.94v26.451zm-365.841 0h-4.921v-22.408h-7.994v-4.043h20.872v4.043h-7.957v22.408zm22.847 0h-4.921v-10.281l-9.64-16.17h4.335c.427 0 .765.104 1.015.311.25.207.461.47.632.787l4.847 8.835c.28.524.524 1.021.732 1.491.207.469.396.93.567 1.381.158-.464.338-.93.539-1.4.202-.469.442-.96.723-1.472l4.811-8.835c.134-.269.335-.519.603-.75.269-.232.61-.348 1.025-.348h4.353l-9.621 16.17v10.281zm-171.399 0h-4.921V399.24h4.921v11.103h1.152c.464 0 .848-.064 1.153-.192.305-.128.567-.332.786-.613l7.299-9.237c.305-.39.625-.662.96-.814.336-.153.759-.229 1.272-.229h4.243l-8.908 10.994c-.28.341-.549.628-.805.86-.256.231-.53.42-.823.567.402.146.765.353 1.088.622.324.268.638.609.942 1.024l9.183 12.384h-4.353c-.586 0-1.022-.083-1.308-.247-.287-.165-.528-.406-.723-.723l-7.481-9.768c-.244-.317-.519-.546-.824-.686-.304-.14-.737-.21-1.298-.21h-1.555v11.634zm437.573 0h-3.81c-.42 0-.78-.107-1.05-.32-.27-.214-.47-.479-.59-.796l-1.98-5.396h-10.96l-1.97 5.396c-.1.28-.29.537-.58.768-.28.232-.64.348-1.05.348h-3.82l10.39-26.451h5.03l10.39 26.451zm-52.94 0h-4.34v-26.451h3.72c.22 0 .4.006.56.018.16.013.31.043.43.092.13.049.25.128.36.238.11.109.21.256.31.439l7.9 14.688c.21.391.4.796.58 1.217.18.421.35.844.52 1.271.17-.439.35-.872.53-1.299.18-.426.38-.835.59-1.225l7.83-14.652c.09-.183.19-.33.3-.439.1-.11.22-.189.35-.238.12-.049.27-.079.42-.092.16-.012.35-.018.57-.018h3.72v26.451h-4.34v-17.085c0-.317.01-.665.03-1.043.02-.378.04-.762.08-1.152l-7.99 14.999c-.19.342-.42.607-.72.796-.29.189-.63.284-1.02.284h-.68c-.39 0-.73-.095-1.02-.284-.29-.189-.53-.454-.72-.796l-8.1-15.054c.05.402.08.796.1 1.18.02.384.03.741.03 1.07v17.085zm-251.026 0h-16.683v-26.451h16.683v3.915h-11.726v7.335h9.238v3.786h-9.238v7.482h11.726v3.933zm242.426 0h-16.68v-26.451h16.68v3.915h-11.72v7.335h9.23v3.786h-9.23v7.482h11.72v3.933zm-286.236 0h-16.683v-26.451h16.683v3.915h-11.726v7.335h9.238v3.786h-9.238v7.482h11.726v3.933zm149.521 0h-16.683v-26.451h16.683v3.915h-11.726v7.335h9.238v3.786h-9.238v7.482h11.726v3.933zm-140.174 0h-4.921v-26.451h8.616c1.768 0 3.299.207 4.591.622 1.293.415 2.36.994 3.202 1.738.841.744 1.463 1.634 1.865 2.67.403 1.037.604 2.171.604 3.403 0 1.28-.213 2.454-.64 3.521-.427 1.067-1.067 1.985-1.921 2.753-.853.768-1.921 1.366-3.201 1.793-1.28.427-2.78.64-4.5.64h-3.695v9.311zm170.063 0h-20.103v-1.939c0-.244.043-.479.128-.704.086-.226.195-.436.33-.632l13.609-19.261h-13.207v-3.915h19.573v1.811c0 .561-.159 1.073-.476 1.537l-13.573 19.17h13.719v3.933zm-214.97 0h-4.921v-26.451h8.067c1.805 0 3.35.186 4.637.558 1.286.372 2.341.893 3.164 1.564.824.671 1.427 1.473 1.811 2.405.385.933.577 1.961.577 3.083 0 .89-.132 1.731-.394 2.524-.262.793-.64 1.512-1.134 2.159-.494.646-1.103 1.213-1.829 1.701s-1.552.878-2.479 1.17c.622.354 1.159.86 1.61 1.519l6.622 9.768h-4.427c-.427 0-.789-.086-1.088-.256-.299-.171-.552-.415-.759-.732l-5.561-8.469c-.208-.317-.436-.543-.686-.677-.25-.134-.619-.201-1.107-.201h-2.103v10.335zm294.026 0h-4.92v-22.408h-7.99v-4.043h20.87v4.043h-7.96v22.408zm100.03 0h-4.92v-22.408h-8v-4.043h20.87v4.043h-7.95v22.408zm40.11 0h-4.92V399.24h4.92v11.103h1.15c.47 0 .85-.064 1.16-.192.3-.128.56-.332.78-.613l7.3-9.237c.31-.39.63-.662.96-.814.34-.153.76-.229 1.27-.229h4.25l-8.91 10.994c-.28.341-.55.628-.81.86-.25.231-.53.42-.82.567.4.146.77.353 1.09.622.32.268.64.609.94 1.024l9.18 12.384h-4.35c-.59 0-1.02-.083-1.31-.247-.28-.165-.53-.406-.72-.723l-7.48-9.768c-.25-.317-.52-.546-.83-.686-.3-.14-.73-.21-1.29-.21h-1.56v11.634zm-17.27 0h-4.92v-10.281l-9.64-16.17h4.34c.42 0 .76.104 1.01.311.25.207.46.47.63.787l4.85 8.835c.28.524.53 1.021.73 1.491.21.469.4.93.57 1.381.16-.464.34-.93.54-1.4.2-.469.44-.96.72-1.472l4.81-8.835c.14-.269.34-.519.61-.75.26-.232.61-.348 1.02-.348h4.36l-9.63 16.17v10.281zm-430.908-13.226c0-1.451-.192-2.753-.577-3.905-.384-1.152-.936-2.131-1.655-2.936-.72-.805-1.595-1.421-2.625-1.847-1.03-.427-2.192-.641-3.485-.641-1.292 0-2.457.214-3.493.641-1.037.426-1.918 1.042-2.644 1.847-.725.805-1.283 1.784-1.673 2.936-.391 1.152-.586 2.454-.586 3.905 0 1.452.195 2.753.586 3.906.39 1.152.948 2.128 1.673 2.927.726.798 1.607 1.411 2.644 1.838 1.036.427 2.201.64 3.493.64 1.293 0 2.455-.213 3.485-.64 1.03-.427 1.905-1.04 2.625-1.838.719-.799 1.271-1.775 1.655-2.927.385-1.153.577-2.454.577-3.906zm280.198 3.238h8.44l-3.22-8.798c-.15-.391-.31-.851-.49-1.381-.17-.531-.35-1.107-.52-1.729-.17.622-.34 1.201-.5 1.738-.17.536-.33 1.006-.49 1.408l-3.22 8.762zm100.02 0h8.44l-3.22-8.798c-.15-.391-.31-.851-.49-1.381-.17-.531-.35-1.107-.52-1.729-.17.622-.34 1.201-.5 1.738-.16.536-.33 1.006-.49 1.408l-3.22 8.762zm-321.299-3.164h3.695c.903 0 1.689-.113 2.36-.339.671-.225 1.225-.549 1.664-.969.439-.421.769-.933.988-1.537.22-.603.329-1.277.329-2.021 0-.707-.109-1.348-.329-1.921-.219-.573-.549-1.061-.988-1.463-.439-.403-.993-.711-1.664-.924-.671-.213-1.457-.32-2.36-.32h-3.695v9.494zm-44.907-.714h3.073c.926 0 1.734-.116 2.423-.347.689-.232 1.256-.552 1.702-.961.445-.408.777-.893.996-1.454.22-.561.33-1.177.33-1.847 0-1.342-.442-2.372-1.326-3.092-.885-.719-2.235-1.079-4.052-1.079h-3.146v8.78z" fill="#e1f7f4" fill-rule="nonzero" transform="matrix(1 0 0 1 -22.1902 61.528)"/></g></g></svg>