<?xml version="1.0" encoding="UTF-8" standalone="no"?>
<!DOCTYPE svg PUBLIC "-//W3C//DTD SVG 1.1//EN" "http://www.w3.org/Graphics/SVG/1.1/DTD/svg11.dtd">
<svg width="100%" height="100%" viewBox="0 0 1920 1080" version="1.1" xmlns="http://www.w3.org/2000/svg" xmlns:xlink="http://www.w3.org/1999/xlink" xml:space="preserve" xmlns:serif="http://www.serif.com/" style="fill-rule:evenodd;clip-rule:evenodd;stroke-linejoin:round;stroke-miterlimit:1.41421;">
    <g id="BG1" transform="matrix(1.46664,9.03887e-33,0,-1.95988,42.7002,1080)">
        <rect x="-29.114" y="0" width="1309.11" height="551.056" style="fill:rgb(137,117,255);"/>
    </g>
    <path d="M1548.26,0C1547.9,0.295 820.249,587.61 628.601,691.696C475.85,774.657 191.751,719.061 0,626.686L0,0L1548.26,0Z" style="fill:rgb(114,91,248);"/>
    <clipPath id="_clip1">
        <path d="M1548.26,0C1547.9,0.295 820.249,587.61 628.601,691.696C475.85,774.657 191.751,719.061 0,626.686L0,0L1548.26,0Z"/>
    </clipPath>
    <g clip-path="url(#_clip1)">
        <g transform="matrix(1.46258,9.01385e-33,0,1.72924,-25.1087,2.27374e-13)">
            <path d="M-68.264,318.374C43.386,394.222 315.889,460.207 446.956,400C578.023,339.793 1075.75,0 1075.75,0L0,0C0,0 -67.293,192.04 -68.264,318.374Z" style="fill:rgb(114,91,248);fill-opacity:0.471429;"/>
        </g>
        <g transform="matrix(1.0458,7.61866e-17,2.43569e-16,-1.23131,-25.1087,1097.96)">
            <path d="M0,298.653C111.65,374.502 197.248,460.207 328.315,400C459.382,339.793 1207.92,0 1207.92,0L0,0C0,0 0.971,172.32 0,298.653Z" style="fill:rgb(125,80,255);fill-opacity:0.285714;"/>
        </g>
        <g transform="matrix(-0.517654,-0.719148,2.14059,-1.35679,1071.03,1529.74)">
            <path d="M675.871,303.039C675.871,285.586 655.244,268.48 618.857,255.758C582.469,243.036 533.544,235.824 483.624,235.824C483.624,235.824 483.623,235.824 483.623,235.824C389.248,235.824 315.568,261.585 315.568,294.581C315.568,449.15 315.568,855.293 315.568,855.293L675.871,855.293C675.871,855.293 675.871,463.43 675.871,303.039Z" style="fill:rgb(92,44,161);fill-opacity:0.214286;"/>
        </g>
    </g>
    <g transform="matrix(-1.28482,-7.91829e-33,0,1.28482,1920,4.54747e-13)">
        <path d="M0,298.653C111.65,374.502 197.248,460.207 328.315,400C459.382,339.793 1207.92,0 1207.92,0L0,0C0,0 0.971,172.32 0,298.653Z" style="fill:rgb(94,28,255);fill-opacity:0.564286;"/>
    </g>
    <g transform="matrix(0.965304,7.49401e-17,2.2482e-16,-1.21117,0,1080)">
        <path d="M0,298.653C111.65,374.502 197.248,460.207 328.315,400C459.382,339.793 1207.92,0 1207.92,0L0,0C0,0 0.971,172.32 0,298.653Z" style="fill:rgb(125,80,255);fill-opacity:0.285714;"/>
    </g>
    <g transform="matrix(1.63328,1.00659e-32,0,1.54555,-2293.33,-89.1264)">
        <rect x="1404.12" y="57.666" width="1175.55" height="698.778" style="fill:rgb(45,40,80);fill-opacity:0.464286;"/>
    </g>
    <path d="M705.106,0L299.74,273.809C257.361,302.434 199.802,291.285 171.176,248.906C171.176,248.905 171.176,248.905 171.175,248.904C142.55,206.525 153.7,148.966 196.078,120.34L374.239,0L705.106,0Z" style="fill:rgb(42,21,102);fill-opacity:0.164286;"/>
    <path d="M1920,259.844L1920,631L1550.36,880.676C1516.56,903.506 1475.08,911.974 1435.04,904.217C1395,896.461 1359.68,873.117 1336.85,839.318C1336.85,839.318 1336.85,839.318 1336.85,839.318C1314.02,805.52 1305.55,764.037 1313.31,723.996C1321.06,683.954 1344.41,648.634 1378.21,625.804L1920,259.844Z" style="fill:rgb(81,56,116);fill-opacity:0.5;"/>
    <path d="M0,726.067L159.527,616.124C188.821,595.935 224.936,588.209 259.927,594.648C294.917,601.086 325.917,621.161 346.106,650.455C346.106,650.455 346.106,650.455 346.106,650.455C366.295,679.75 374.021,715.865 367.582,750.855C361.144,785.845 341.069,816.845 311.775,837.034L0,1051.9L0,726.067Z" style="fill:rgb(35,0,85);fill-opacity:0.214286;"/>
    <path d="M1920,153.938L977.777,799.458C924.566,835.913 859.052,849.737 795.648,837.889C732.244,826.04 676.143,789.49 639.688,736.278C639.687,736.278 639.687,736.278 639.687,736.277C603.231,683.066 589.407,617.552 601.256,554.147C613.104,490.743 649.654,434.643 702.866,398.187L1284.07,0L1920,0L1920,153.938Z" style="fill:rgb(57,36,116);fill-opacity:0.65;"/>
    <path d="M639.545,1080L928.661,880.746C972.951,850.222 1033.6,861.381 1064.13,905.672C1064.13,905.672 1064.13,905.673 1064.13,905.673C1094.65,949.964 1083.49,1010.61 1039.2,1041.14L982.811,1080L639.545,1080Z" style="fill:rgb(114,77,167);fill-opacity:0.5;"/>
    <path d="M1111.13,0L590.511,351.658C548.132,380.283 490.572,369.134 461.947,326.755C461.946,326.755 461.946,326.754 461.946,326.754C433.321,284.375 444.47,226.815 486.849,198.19L780.263,0L1111.13,0Z" style="fill:rgb(112,70,171);fill-opacity:0.5;"/>
</svg>
