<?xml version="1.0" encoding="UTF-8" standalone="no"?>
<!DOCTYPE svg PUBLIC "-//W3C//DTD SVG 1.1//EN" "http://www.w3.org/Graphics/SVG/1.1/DTD/svg11.dtd">
<svg width="100%" height="100%" viewBox="0 0 45 59" version="1.1" xmlns="http://www.w3.org/2000/svg" xmlns:xlink="http://www.w3.org/1999/xlink" xml:space="preserve" xmlns:serif="http://www.serif.com/" style="fill-rule:evenodd;clip-rule:evenodd;stroke-linejoin:round;stroke-miterlimit:1.41421;">
    <g transform="matrix(1,0,0,1,-67.192,0)">
        <path d="M105.758,7.346L96.576,7.346C96.576,3.294 93.282,0 89.23,0C85.178,0 81.884,3.294 81.884,7.346L72.701,7.346C69.66,7.346 67.192,9.814 67.192,12.855L67.192,53.258C67.192,56.3 69.66,58.768 72.701,58.768L105.758,58.768C108.8,58.768 111.268,56.3 111.268,53.258L111.268,12.855C111.268,9.814 108.8,7.346 105.758,7.346ZM78.211,48.667C76.684,48.667 75.456,47.439 75.456,45.912C75.456,44.386 76.684,43.158 78.211,43.158C79.738,43.158 80.966,44.386 80.966,45.912C80.966,47.439 79.738,48.667 78.211,48.667ZM78.211,37.648C76.684,37.648 75.456,36.42 75.456,34.893C75.456,33.367 76.684,32.139 78.211,32.139C79.738,32.139 80.966,33.367 80.966,34.893C80.966,36.42 79.738,37.648 78.211,37.648ZM78.211,26.629C76.684,26.629 75.456,25.401 75.456,23.874C75.456,22.348 76.684,21.12 78.211,21.12C79.738,21.12 80.966,22.348 80.966,23.874C80.966,25.401 79.738,26.629 78.211,26.629ZM89.23,4.591C90.757,4.591 91.985,5.819 91.985,7.346C91.985,8.873 90.757,10.101 89.23,10.101C87.703,10.101 86.475,8.873 86.475,7.346C86.475,5.819 87.703,4.591 89.23,4.591ZM103.922,46.831C103.922,47.336 103.509,47.749 103.004,47.749L86.475,47.749C85.97,47.749 85.557,47.336 85.557,46.831L85.557,44.994C85.557,44.489 85.97,44.076 86.475,44.076L103.004,44.076C103.509,44.076 103.922,44.489 103.922,44.994L103.922,46.831L103.922,46.831ZM103.922,35.812C103.922,36.317 103.509,36.73 103.004,36.73L86.475,36.73C85.97,36.73 85.557,36.317 85.557,35.812L85.557,33.975C85.557,33.47 85.97,33.057 86.475,33.057L103.004,33.057C103.509,33.057 103.922,33.47 103.922,33.975L103.922,35.812L103.922,35.812ZM103.922,24.793C103.922,25.298 103.509,25.711 103.004,25.711L86.475,25.711C85.97,25.711 85.557,25.298 85.557,24.793L85.557,22.956C85.557,22.451 85.97,22.038 86.475,22.038L103.004,22.038C103.509,22.038 103.922,22.451 103.922,22.956L103.922,24.793Z" style="fill:white;fill-rule:nonzero;"/>
    </g>
</svg>
