<?xml version="1.0" encoding="UTF-8" standalone="no"?>
<!DOCTYPE svg PUBLIC "-//W3C//DTD SVG 1.1//EN" "http://www.w3.org/Graphics/SVG/1.1/DTD/svg11.dtd">
<svg width="100%" height="100%" viewBox="0 0 72 72" version="1.1" xmlns="http://www.w3.org/2000/svg" xmlns:xlink="http://www.w3.org/1999/xlink" xml:space="preserve" xmlns:serif="http://www.serif.com/" style="fill-rule:evenodd;clip-rule:evenodd;stroke-linejoin:round;stroke-miterlimit:1.41421;">
    <g transform="matrix(1,0,0,1,-1538.59,-823.662)">
        <g transform="matrix(1,0,0,1,402.318,14.8602)">
            <g transform="matrix(0.505689,0,0,0.505689,1054.05,388.859)">
                <circle cx="233.698" cy="901.541" r="71.106" style="fill:white;"/>
            </g>
        </g>
        <g transform="matrix(1,0,0,1,402.318,14.8602)">
            <g transform="matrix(0.102018,6.28732e-34,0,0.102018,1152.64,818.643)">
                <path d="M336,64L256,64C256,28.7 227.3,0 192,0C156.7,0 128,28.7 128,64L48,64C21.5,64 0,85.5 0,112L0,464C0,490.5 21.5,512 48,512L336,512C362.5,512 384,490.5 384,464L384,112C384,85.5 362.5,64 336,64ZM96,424C82.7,424 72,413.3 72,400C72,386.7 82.7,376 96,376C109.3,376 120,386.7 120,400C120,413.3 109.3,424 96,424ZM96,328C82.7,328 72,317.3 72,304C72,290.7 82.7,280 96,280C109.3,280 120,290.7 120,304C120,317.3 109.3,328 96,328ZM96,232C82.7,232 72,221.3 72,208C72,194.7 82.7,184 96,184C109.3,184 120,194.7 120,208C120,221.3 109.3,232 96,232ZM192,40C205.3,40 216,50.7 216,64C216,77.3 205.3,88 192,88C178.7,88 168,77.3 168,64C168,50.7 178.7,40 192,40ZM320,408C320,412.4 316.4,416 312,416L168,416C163.6,416 160,412.4 160,408L160,392C160,387.6 163.6,384 168,384L312,384C316.4,384 320,387.6 320,392L320,408ZM320,312C320,316.4 316.4,320 312,320L168,320C163.6,320 160,316.4 160,312L160,296C160,291.6 163.6,288 168,288L312,288C316.4,288 320,291.6 320,296L320,312ZM320,216C320,220.4 316.4,224 312,224L168,224C163.6,224 160,220.4 160,216L160,200C160,195.6 163.6,192 168,192L312,192C316.4,192 320,195.6 320,200L320,216Z" style="fill:rgb(66,47,135);fill-rule:nonzero;"/>
            </g>
        </g>
    </g>
</svg>
