<?xml version="1.0" encoding="UTF-8" standalone="no"?>
<!DOCTYPE svg PUBLIC "-//W3C//DTD SVG 1.1//EN" "http://www.w3.org/Graphics/SVG/1.1/DTD/svg11.dtd">
<svg width="100%" height="100%" viewBox="0 0 48 32" version="1.1" xmlns="http://www.w3.org/2000/svg" xmlns:xlink="http://www.w3.org/1999/xlink" xml:space="preserve" xmlns:serif="http://www.serif.com/" style="fill-rule:evenodd;clip-rule:evenodd;stroke-linejoin:round;stroke-miterlimit:1.41421;">
    <g transform="matrix(1,0,0,1,-2649.08,-26.0583)">
        <g transform="matrix(0.4,0,0,0.948148,1182,0)">
            <g transform="matrix(2.5,0,0,1.05469,-2947.5,0)">
                <path d="M2692.51,53.41C2693.2,53.41 2693.76,53.971 2693.76,54.663C2693.76,55.142 2693.76,55.688 2693.76,56.167C2693.76,56.859 2693.2,57.42 2692.51,57.42C2685.79,57.42 2654.05,57.42 2647.33,57.42C2646.64,57.42 2646.08,56.859 2646.08,56.167C2646.08,55.688 2646.08,55.142 2646.08,54.663C2646.08,53.971 2646.64,53.41 2647.33,53.41C2654.05,53.41 2685.79,53.41 2692.51,53.41ZM2692.51,39.734C2693.2,39.734 2693.76,40.295 2693.76,40.987C2693.76,41.466 2693.76,42.012 2693.76,42.491C2693.76,43.183 2693.2,43.744 2692.51,43.744C2685.79,43.744 2654.05,43.744 2647.33,43.744C2646.64,43.744 2646.08,43.183 2646.08,42.491C2646.08,42.012 2646.08,41.466 2646.08,40.987C2646.08,40.295 2646.64,39.734 2647.33,39.734C2654.05,39.734 2685.79,39.734 2692.51,39.734ZM2692.51,26.058C2693.2,26.058 2693.76,26.619 2693.76,27.311C2693.76,27.79 2693.76,28.336 2693.76,28.816C2693.76,29.508 2693.2,30.068 2692.51,30.068C2685.79,30.068 2654.05,30.068 2647.33,30.068C2646.64,30.068 2646.08,29.508 2646.08,28.816C2646.08,28.336 2646.08,27.79 2646.08,27.311C2646.08,26.619 2646.64,26.058 2647.33,26.058C2654.05,26.058 2685.79,26.058 2692.51,26.058Z" style="fill:white;"/>
            </g>
        </g>
    </g>
</svg>
