<?xml version="1.0" encoding="UTF-8" standalone="no"?>
<!DOCTYPE svg PUBLIC "-//W3C//DTD SVG 1.1//EN" "http://www.w3.org/Graphics/SVG/1.1/DTD/svg11.dtd">
<svg width="100%" height="100%" viewBox="0 0 72 72" version="1.1" xmlns="http://www.w3.org/2000/svg" xmlns:xlink="http://www.w3.org/1999/xlink" xml:space="preserve" xmlns:serif="http://www.serif.com/" style="fill-rule:evenodd;clip-rule:evenodd;stroke-linejoin:round;stroke-miterlimit:1.41421;">
    <g transform="matrix(1,0,0,1,-838.283,-823.662)">
        <g transform="matrix(1,0,0,1,-297.988,14.8602)">
            <g transform="matrix(0.505689,0,0,0.505689,1054.05,388.859)">
                <circle cx="233.698" cy="901.541" r="71.106" style="fill:white;"/>
            </g>
        </g>
        <g transform="matrix(1,0,0,1,-297.988,14.8602)">
            <g transform="matrix(0.0912383,5.62299e-34,0,0.0912383,1143.03,821.402)">
                <path d="M622.884,199.005L347.067,284.105C329.398,289.297 310.602,289.297 292.933,284.105L92.398,222.232C83.834,233.67 81.38,245.282 80.48,260.567C89.778,266.165 96,276.355 96,288C96,299.952 89.443,310.366 79.735,315.861L95.932,438.957C96.562,443.743 92.832,448 88,448L40,448C35.172,448 31.438,443.747 32.068,438.956L48.265,315.86C38.557,310.366 32,299.952 32,288C32,275.966 38.646,265.489 48.465,260.024C49.412,242.073 52.439,226.793 60.617,212.427L17.115,199.005C-5.761,192.204 -5.651,159.764 17.115,152.995L292.932,67.895C310.601,62.703 329.397,62.703 347.066,67.895L622.883,152.995C645.76,159.796 645.65,192.236 622.884,199.005ZM356.503,314.682L356.296,314.746L356.089,314.807C332.531,321.73 307.47,321.73 283.912,314.807L283.705,314.746L283.498,314.682L132.584,268.112L120,352C120,387.346 209.543,416 320,416C430.457,416 520,387.346 520,352L507.417,268.112L356.503,314.682Z" style="fill:rgb(66,47,135);fill-rule:nonzero;"/>
            </g>
        </g>
    </g>
</svg>
