<?xml version="1.0" encoding="UTF-8" standalone="no"?>
<!DOCTYPE svg PUBLIC "-//W3C//DTD SVG 1.1//EN" "http://www.w3.org/Graphics/SVG/1.1/DTD/svg11.dtd">
<svg width="100%" height="100%" viewBox="0 0 78 47" version="1.1" xmlns="http://www.w3.org/2000/svg" xmlns:xlink="http://www.w3.org/1999/xlink" xml:space="preserve" xmlns:serif="http://www.serif.com/" style="fill-rule:evenodd;clip-rule:evenodd;stroke-linejoin:round;stroke-miterlimit:1.41421;">
    <g transform="matrix(1,0,0,1,-30.6059,-0.000134877)">
        <path d="M106.014,16.344L72.623,26.646C70.484,27.275 68.208,27.275 66.069,26.646L41.792,19.156C40.755,20.541 40.458,21.946 40.349,23.797C41.475,24.474 42.228,25.708 42.228,27.118C42.228,28.565 41.434,29.826 40.259,30.491L42.22,45.393C42.296,45.972 41.844,46.488 41.259,46.488L35.448,46.488C34.864,46.488 34.412,45.973 34.488,45.393L36.449,30.491C35.274,29.826 34.48,28.565 34.48,27.118C34.48,25.661 35.285,24.393 36.473,23.731C36.588,21.558 36.954,19.708 37.944,17.969L32.678,16.344C29.909,15.521 29.922,11.593 32.678,10.774L66.069,0.471C68.208,-0.157 70.483,-0.157 72.622,0.471L106.013,10.774C108.783,11.597 108.77,15.524 106.014,16.344ZM73.765,30.348L73.74,30.356L73.715,30.363C70.863,31.201 67.829,31.201 64.977,30.363L64.952,30.356L64.927,30.348L46.657,24.71L45.133,34.866C45.133,39.145 55.974,42.614 69.346,42.614C82.718,42.614 93.558,39.145 93.558,34.866L92.035,24.71L73.765,30.348L73.765,30.348Z" style="fill:white;fill-rule:nonzero;"/>
    </g>
</svg>
