<?xml version="1.0" encoding="UTF-8" standalone="no"?>
<!DOCTYPE svg PUBLIC "-//W3C//DTD SVG 1.1//EN" "http://www.w3.org/Graphics/SVG/1.1/DTD/svg11.dtd">
<svg width="100%" height="100%" viewBox="0 0 46 51" version="1.1" xmlns="http://www.w3.org/2000/svg" xmlns:xlink="http://www.w3.org/1999/xlink" xml:space="preserve" xmlns:serif="http://www.serif.com/" style="fill-rule:evenodd;clip-rule:evenodd;stroke-linejoin:round;stroke-miterlimit:1.41421;">
    <g transform="matrix(1,0,0,1,-2000.81,-18.2326)">
        <g transform="matrix(0.4,0,0,0.948148,1182,0)">
            <g id="owl2" transform="matrix(0.759723,1.97528e-33,0,0.320508,1065.98,-563.591)">
                <g transform="matrix(2.01527,-1.242e-32,0,2.01527,202.865,-3012.24)">
                    <path d="M604.682,2416.86C610.651,2423.44 614.29,2432.18 614.29,2441.75C614.29,2462.23 597.668,2478.85 577.194,2478.85C556.721,2478.85 540.099,2462.23 540.099,2441.75C540.099,2433.02 543.125,2424.98 548.186,2418.64L552.524,2400.62C552.524,2400.62 555.717,2404.89 561.519,2408.13C566.282,2405.9 571.594,2404.66 577.194,2404.66C581.673,2404.66 585.967,2405.45 589.943,2406.91C596.432,2402.64 600.406,2397.03 600.406,2397.03L604.682,2416.86Z" style="fill:rgb(9,153,116);"/>
                </g>
                <g transform="matrix(2.01527,-1.242e-32,0,2.01527,202.865,-3012.24)">
                    <path d="M549.608,2466.54C554.384,2455.62 564.945,2448.02 577.194,2448.02C589.443,2448.02 600.005,2455.62 604.781,2466.54C597.988,2474.1 588.142,2478.85 577.194,2478.85C566.247,2478.85 556.4,2474.1 549.608,2466.54Z" style="fill:rgb(6,214,160);"/>
                </g>
                <g transform="matrix(0.215518,0.215518,-0.215518,0.215518,1412.02,1606.51)">
                    <rect x="564.142" y="777.347" width="100.095" height="100.095" style="fill:rgb(144,44,32);"/>
                </g>
                <g transform="matrix(0.350853,0,0,0.350853,948.853,1675.25)">
                    <circle cx="1107.35" cy="613.196" r="101.822" style="fill:white;"/>
                </g>
                <g transform="matrix(0.350853,0,0,0.350853,1006.11,1675.25)">
                    <circle cx="1107.35" cy="613.196" r="101.822" style="fill:white;"/>
                </g>
                <g id="eyelidR" transform="matrix(0.163373,-2.23569e-49,0,0.163373,1213.67,1792.55)">
                    <circle cx="1107.35" cy="613.196" r="101.822" style="fill:rgb(18,62,57);"/>
                </g>
                <g id="eyelidL" transform="matrix(0.163373,-2.23569e-49,0,0.163373,1155.85,1792.55)">
                    <circle cx="1107.35" cy="613.196" r="101.822" style="fill:rgb(18,62,57);"/>
                </g>
            </g>
        </g>
    </g>
</svg>
