<?xml version="1.0" encoding="UTF-8" standalone="no"?>
<!DOCTYPE svg PUBLIC "-//W3C//DTD SVG 1.1//EN" "http://www.w3.org/Graphics/SVG/1.1/DTD/svg11.dtd">
<svg width="100%" height="100%" viewBox="0 0 72 72" version="1.1" xmlns="http://www.w3.org/2000/svg" xmlns:xlink="http://www.w3.org/1999/xlink" xml:space="preserve" xmlns:serif="http://www.serif.com/" style="fill-rule:evenodd;clip-rule:evenodd;stroke-linejoin:round;stroke-miterlimit:1.41421;">
    <g transform="matrix(1,0,0,1,-183.697,-823.662)">
        <g transform="matrix(1,0,0,1,-952.574,14.8602)">
            <g transform="matrix(0.505689,0,0,0.505689,1054.05,388.859)">
                <circle cx="233.698" cy="901.541" r="71.106" style="fill:white;"/>
                <clipPath id="_clip1">
                    <circle cx="233.698" cy="901.541" r="71.106"/>
                </clipPath>
                <g clip-path="url(#_clip1)">
                    <g transform="matrix(0.164901,1.01628e-33,0,0.164901,180.93,851.316)">
                        <path d="M0,224L0,496C0,504.84 7.16,512 16,512L96,512L96,192L32,192C14.33,192 0,206.33 0,224ZM360,176L336,176L336,136C336,131.58 332.42,128 328,128L312,128C307.58,128 304,131.58 304,136L304,200C304,204.42 307.58,208 312,208L360,208C364.42,208 368,204.42 368,200L368,184C368,179.58 364.42,176 360,176ZM497.75,112.04L337.75,5.37C327.021,-1.776 312.979,-1.776 302.25,5.37L142.25,112.04C133.358,117.968 128.002,127.973 128,138.66L128,512L256,512L256,368C256,359.16 263.16,352 272,352L368,352C376.84,352 384,359.16 384,368L384,512L512,512L512,138.67C512,127.97 506.65,117.97 497.75,112.04ZM320,256C275.82,256 240,220.18 240,176C240,131.82 275.82,96 320,96C364.18,96 400,131.82 400,176C400,220.18 364.18,256 320,256ZM608,192L544,192L544,512L624,512C632.84,512 640,504.84 640,496L640,224C640,206.33 625.67,192 608,192Z" style="fill:rgb(66,47,135);fill-rule:nonzero;"/>
                    </g>
                </g>
            </g>
        </g>
    </g>
</svg>
