<?xml version="1.0" encoding="UTF-8" standalone="no"?>
<!DOCTYPE svg PUBLIC "-//W3C//DTD SVG 1.1//EN" "http://www.w3.org/Graphics/SVG/1.1/DTD/svg11.dtd">
<svg width="100%" height="100%" viewBox="0 0 80 64" version="1.1" xmlns="http://www.w3.org/2000/svg" xmlns:xlink="http://www.w3.org/1999/xlink" xml:space="preserve" xmlns:serif="http://www.serif.com/" style="fill-rule:evenodd;clip-rule:evenodd;stroke-linejoin:round;stroke-miterlimit:1.41421;">
    <g transform="matrix(1,0,0,1,-43.095,0.0007025)">
        <path d="M43.095,27.669L43.095,61.269C43.095,62.361 43.979,63.245 45.071,63.245L54.954,63.245L54.954,23.716L47.048,23.716C44.865,23.716 43.095,25.486 43.095,27.669ZM87.566,21.739L84.601,21.739L84.601,16.798C84.601,16.252 84.159,15.81 83.613,15.81L81.636,15.81C81.09,15.81 80.648,16.252 80.648,16.798L80.648,24.704C80.648,25.25 81.09,25.692 81.636,25.692L87.566,25.692C88.112,25.692 88.554,25.25 88.554,24.704L88.554,22.728C88.554,22.182 88.112,21.739 87.566,21.739ZM104.582,13.838L84.817,0.661C83.492,-0.221 81.757,-0.221 80.432,0.661L60.667,13.838C59.569,14.571 58.907,15.807 58.907,17.127L58.907,63.245L74.719,63.245L74.719,45.457C74.719,44.365 75.603,43.481 76.695,43.481L88.554,43.481C89.646,43.481 90.531,44.365 90.531,45.457L90.531,63.245L106.342,63.245L106.342,17.128C106.342,15.806 105.681,14.571 104.582,13.838L104.582,13.838ZM82.625,31.622C77.167,31.622 72.742,27.197 72.742,21.739C72.742,16.282 77.167,11.857 82.625,11.857C88.082,11.857 92.507,16.282 92.507,21.739C92.507,27.197 88.082,31.622 82.625,31.622ZM118.201,23.716L110.295,23.716L110.295,63.245L120.178,63.245C121.27,63.245 122.154,62.361 122.154,61.269L122.154,27.669C122.154,25.486 120.384,23.716 118.201,23.716Z" style="fill:white;fill-rule:nonzero;"/>
    </g>
</svg>
