<?xml version="1.0" encoding="UTF-8" standalone="no"?>
<!DOCTYPE svg PUBLIC "-//W3C//DTD SVG 1.1//EN" "http://www.w3.org/Graphics/SVG/1.1/DTD/svg11.dtd">
<svg width="100%" height="100%" viewBox="0 0 73 59" version="1.1" xmlns="http://www.w3.org/2000/svg" xmlns:xlink="http://www.w3.org/1999/xlink" xml:space="preserve" xmlns:serif="http://www.serif.com/" style="fill-rule:evenodd;clip-rule:evenodd;stroke-linejoin:round;stroke-miterlimit:1.41421;">
    <g transform="matrix(1,0,0,1,-28.2728,0)">
        <path d="M51.874,39.94C51.603,39.94 51.332,39.98 51.073,40.064C49.602,40.541 48.056,40.848 46.428,40.848C44.799,40.848 43.253,40.541 41.781,40.064C41.522,39.98 41.252,39.94 40.981,39.94C33.939,39.94 28.236,45.668 28.273,52.719C28.289,55.698 30.739,58.095 33.719,58.095L59.136,58.095C62.117,58.095 64.566,55.698 64.582,52.719C64.62,45.668 58.916,39.94 51.874,39.94L51.874,39.94ZM46.428,36.309C52.444,36.309 57.32,31.432 57.32,25.416C57.32,19.4 52.444,14.524 46.428,14.524C40.412,14.524 35.535,19.4 35.535,25.416C35.535,31.432 40.412,36.309 46.428,36.309ZM95.445,0L51.874,0C48.87,0 46.428,2.525 46.428,5.627L46.428,10.893C49.085,10.893 51.545,11.662 53.689,12.912L53.689,7.262L93.629,7.262L93.629,39.94L86.368,39.94L86.368,32.678L71.844,32.678L71.844,39.94L63.193,39.94C65.361,41.834 66.951,44.335 67.697,47.202L95.445,47.202C98.448,47.202 100.891,44.677 100.891,41.575L100.891,5.627C100.891,2.525 98.448,0 95.445,0Z" style="fill:white;fill-rule:nonzero;"/>
    </g>
</svg>
