<?xml version="1.0" encoding="UTF-8" standalone="no"?>
<!DOCTYPE svg PUBLIC "-//W3C//DTD SVG 1.1//EN" "http://www.w3.org/Graphics/SVG/1.1/DTD/svg11.dtd">
<svg width="100%" height="100%" viewBox="0 0 72 72" version="1.1" xmlns="http://www.w3.org/2000/svg" xmlns:xlink="http://www.w3.org/1999/xlink" xml:space="preserve" xmlns:serif="http://www.serif.com/" style="fill-rule:evenodd;clip-rule:evenodd;stroke-linejoin:round;stroke-miterlimit:1.41421;">
    <g transform="matrix(1,0,0,1,-528.907,-823.662)">
        <g transform="matrix(1,0,0,1,-607.363,14.8602)">
            <g transform="matrix(0.505689,0,0,0.505689,1054.05,388.859)">
                <circle cx="233.698" cy="901.541" r="71.106" style="fill:white;"/>
            </g>
        </g>
        <g transform="matrix(1,0,0,1,-607.363,14.8602)">
            <g transform="matrix(0.0813953,5.01637e-34,0,0.0813953,1145.18,823.922)">
                <path d="M208,352C205.61,352 203.22,352.35 200.94,353.09C187.98,357.3 174.35,360 160,360C145.65,360 132.02,357.3 119.05,353.09C116.77,352.35 114.39,352 112,352C49.94,352 -0.33,402.48 0,464.62C0.14,490.88 21.73,512 48,512L272,512C298.27,512 319.86,490.88 320,464.62C320.33,402.48 270.06,352 208,352ZM160,320C213.02,320 256,277.02 256,224C256,170.98 213.02,128 160,128C106.98,128 64,170.98 64,224C64,277.02 106.98,320 160,320ZM592,0L208,0C181.53,0 160,22.25 160,49.59L160,96C183.42,96 205.1,102.78 224,113.8L224,64L576,64L576,352L512,352L512,288L384,288L384,352L307.76,352C326.86,368.69 340.88,390.73 347.45,416L592,416C618.47,416 640,393.75 640,366.41L640,49.59C640,22.25 618.47,0 592,0Z" style="fill:rgb(66,47,135);fill-rule:nonzero;"/>
            </g>
        </g>
    </g>
</svg>
