<?xml version="1.0" encoding="UTF-8" standalone="no"?>
<!DOCTYPE svg PUBLIC "-//W3C//DTD SVG 1.1//EN" "http://www.w3.org/Graphics/SVG/1.1/DTD/svg11.dtd">
<svg width="100%" height="100%" viewBox="0 0 266 185" version="1.1" xmlns="http://www.w3.org/2000/svg" xmlns:xlink="http://www.w3.org/1999/xlink" xml:space="preserve" xmlns:serif="http://www.serif.com/" style="fill-rule:evenodd;clip-rule:evenodd;stroke-linejoin:round;stroke-miterlimit:1.41421;">
    <g transform="matrix(1,0,0,1,-2446.39,-999.498)">
        <g transform="matrix(1.14286,0,0,1.02857,39.749,832.647)">
            <g id="owls_board" transform="matrix(0.824256,0,0,0.72504,1230.39,-26.3383)">
                <g transform="matrix(0.218885,0,0,0.321768,796.772,-179.266)">
                    <path d="M2092.6,1473.24C2092.6,1451.06 2082.35,1429.78 2064.09,1414.1C2045.84,1398.41 2021.08,1389.6 1995.27,1389.6C1831.21,1389.6 1501.55,1389.6 1337.5,1389.6C1311.68,1389.6 1286.92,1398.41 1268.67,1414.1C1250.41,1429.78 1240.16,1451.06 1240.16,1473.24C1240.16,1577.1 1240.16,1753.21 1240.16,1857.07C1240.16,1879.25 1250.41,1900.52 1268.67,1916.21C1286.92,1931.89 1311.68,1940.71 1337.5,1940.71C1501.55,1940.71 1831.21,1940.71 1995.27,1940.71C2021.08,1940.71 2045.84,1931.89 2064.09,1916.21C2082.35,1900.52 2092.6,1879.25 2092.6,1857.07C2092.6,1753.21 2092.6,1577.1 2092.6,1473.24Z" style="fill:rgb(78,119,139);"/>
                </g>
                <g transform="matrix(0.218885,0,0,0.321768,796.772,-179.266)">
                    <path d="M1995.66,1365.6C2032.13,1365.74 2068.09,1380.23 2091.43,1404.25C2109.97,1423.34 2120.4,1447.93 2120.54,1472.9C2120.8,1601.07 2120.8,1729.24 2120.54,1857.4C2120.4,1882.38 2109.9,1907.05 2091.43,1926.06C2068.06,1950.1 2031.88,1964.57 1995.66,1964.71C1776.14,1965.04 1556.62,1965.04 1337.1,1964.71C1291.38,1964.53 1247.26,1941.66 1226.09,1906.3C1217.07,1891.24 1212.31,1874.3 1212.22,1857.4C1211.98,1729.24 1211.98,1601.07 1212.22,1472.91C1212.4,1440.07 1230.66,1408.05 1261.12,1387.91C1282.71,1373.64 1309.71,1365.7 1337.1,1365.6C1556.62,1365.27 1776.14,1365.27 1995.66,1365.6ZM1337.52,1413.61C1308.48,1413.65 1280.45,1430.56 1271.35,1455.2C1269.21,1460.97 1268.13,1467.01 1268.1,1473.06C1267.86,1601.18 1267.41,1729.31 1268.1,1857.44C1268.32,1882.41 1288.04,1906.22 1316.71,1913.96C1323.28,1915.74 1330.15,1916.65 1337.06,1916.7C1556.6,1917.57 1776.16,1917.57 1995.7,1916.7C2017.8,1916.56 2039.39,1906.82 2052.04,1891.36C2060.11,1881.49 2064.55,1869.57 2064.66,1857.44C2065.35,1729.25 2065.35,1601.06 2064.66,1472.87C2064.44,1448.07 2044.62,1424.05 2016.05,1416.35C2009.48,1414.57 2002.6,1413.65 1995.7,1413.61C1776.31,1412.74 1556.91,1413.61 1337.52,1413.61Z" style="fill:rgb(71,104,133);fill-rule:nonzero;"/>
                </g>
                <g id="owl2" transform="matrix(-0.734394,5.71712e-33,0,0.927656,2292.39,-1337.07)">
                    <g transform="matrix(-1.4455,8.90856e-33,0,1.4455,5211.53,276.919)">
                        <path d="M2621.99,1094.06L2627.95,1066.42C2627.95,1066.42 2633.49,1074.23 2642.53,1080.19C2648.08,1078.16 2654.06,1077.05 2660.31,1077.05C2668.12,1077.05 2675.52,1078.79 2682.16,1081.89C2690.25,1077.37 2694.7,1071.42 2694.7,1071.42L2700.75,1096.55C2707.8,1105.39 2712.02,1116.59 2712.02,1128.77C2712.02,1157.31 2688.85,1180.49 2660.31,1180.49C2631.76,1180.49 2608.59,1157.31 2608.59,1128.77C2608.59,1115.41 2613.66,1103.24 2621.99,1094.06Z" style="fill:rgb(41,196,156);"/>
                    </g>
                    <g transform="matrix(-1.4455,8.90856e-33,0,1.4455,5211.53,276.919)">
                        <path d="M2621.85,1163.33C2628.51,1148.1 2643.23,1137.51 2660.31,1137.51C2677.38,1137.51 2692.11,1148.1 2698.77,1163.33C2689.3,1173.86 2675.57,1180.49 2660.31,1180.49C2645.04,1180.49 2631.32,1173.86 2621.85,1163.33Z" style="fill:rgb(74,215,178);"/>
                    </g>
                    <g transform="matrix(0.215518,0.215518,-0.215518,0.215518,1412.02,1606.51)">
                        <rect x="564.142" y="777.347" width="100.095" height="100.095" style="fill:rgb(144,44,32);"/>
                    </g>
                    <g transform="matrix(0.350853,0,0,0.350853,948.853,1675.25)">
                        <circle cx="1107.35" cy="613.196" r="101.822" style="fill:white;"/>
                    </g>
                    <g transform="matrix(0.350853,0,0,0.350853,1006.11,1675.25)">
                        <circle cx="1107.35" cy="613.196" r="101.822" style="fill:white;"/>
                    </g>
                    <g transform="matrix(0.163373,0,0,0.163373,1221.99,1776.33)">
                        <circle cx="1107.35" cy="613.196" r="101.822" style="fill:rgb(18,62,57);"/>
                    </g>
                    <g transform="matrix(0.163373,0,0,0.163373,1164.17,1776.33)">
                        <circle cx="1107.35" cy="613.196" r="101.822" style="fill:rgb(18,62,57);"/>
                    </g>
                </g>
                <g id="owl1" transform="matrix(-0.558949,4.35131e-33,0,0.706041,1983.22,-892.388)">
                    <g transform="matrix(-1.89921,1.17048e-32,0,1.89921,6294.22,-265.992)">
                        <path d="M2565.67,1118.55L2570.21,1097.52C2570.21,1097.52 2574.43,1103.46 2581.31,1108C2585.53,1106.45 2590.09,1105.61 2594.84,1105.61C2600.78,1105.61 2606.42,1106.93 2611.47,1109.29C2617.63,1105.85 2621.02,1101.32 2621.02,1101.32L2625.62,1120.45C2630.99,1127.17 2634.2,1135.7 2634.2,1144.97C2634.2,1166.69 2616.56,1184.33 2594.84,1184.33C2573.11,1184.33 2555.48,1166.69 2555.48,1144.97C2555.48,1134.81 2559.34,1125.54 2565.67,1118.55Z" style="fill:rgb(9,153,116);"/>
                    </g>
                    <g transform="matrix(-1.89921,1.17048e-32,0,1.89921,6294.22,-265.992)">
                        <path d="M2565.57,1171.28C2570.63,1159.69 2581.84,1151.62 2594.84,1151.62C2607.84,1151.62 2619.04,1159.69 2624.11,1171.28C2616.9,1179.29 2606.45,1184.33 2594.84,1184.33C2583.22,1184.33 2572.77,1179.29 2565.57,1171.28Z" style="fill:rgb(6,214,160);"/>
                    </g>
                    <g transform="matrix(0.215518,0.215518,-0.215518,0.215518,1412.02,1606.51)">
                        <rect x="564.142" y="777.347" width="100.095" height="100.095" style="fill:rgb(144,44,32);"/>
                    </g>
                    <g transform="matrix(0.350853,0,0,0.350853,948.853,1675.25)">
                        <circle cx="1107.35" cy="613.196" r="101.822" style="fill:white;"/>
                    </g>
                    <g transform="matrix(0.350853,0,0,0.350853,1006.11,1675.25)">
                        <circle cx="1107.35" cy="613.196" r="101.822" style="fill:white;"/>
                    </g>
                    <g transform="matrix(0.163373,0,0,0.163373,1220.67,1780.97)">
                        <circle cx="1107.35" cy="613.196" r="101.822" style="fill:rgb(18,62,57);"/>
                    </g>
                    <g transform="matrix(0.163373,0,0,0.163373,1162.85,1780.97)">
                        <circle cx="1107.35" cy="613.196" r="101.822" style="fill:rgb(18,62,57);"/>
                    </g>
                </g>
                <g transform="matrix(1.06156,0,0,1.34092,-1534.92,-1080.19)">
                    <path d="M2485.49,1086.57C2486.1,1086.96 2486.66,1087.42 2486.96,1088.07C2487.06,1088.28 2487.11,1088.52 2487.18,1088.74L2490.34,1103.74C2492.47,1096.44 2494.62,1089.13 2496.79,1081.83L2496.86,1081.59C2497.3,1080.54 2498.13,1079.66 2499.2,1079.42C2499.42,1079.38 2499.64,1079.38 2499.86,1079.35L2564.23,1079.21C2564.48,1079.24 2564.73,1079.24 2564.98,1079.3C2567.15,1079.83 2568.22,1083 2566.32,1084.69C2565.94,1085.03 2565.48,1085.27 2564.99,1085.39C2564.75,1085.45 2564.49,1085.45 2564.24,1085.48L2502.21,1085.62C2499.18,1095.84 2496.16,1106.06 2493.24,1116.31L2493.06,1116.95L2492.88,1117.58L2492.59,1118.27C2492.19,1118.81 2492.13,1119 2491.55,1119.36C2490.29,1120.17 2488.43,1119.91 2487.44,1118.72C2487.01,1118.19 2487.01,1118 2486.79,1117.37L2481.56,1092.52L2473.93,1092.52L2473.18,1092.43C2472.55,1092.2 2472.35,1092.19 2471.85,1091.74C2470.56,1090.59 2470.46,1088.27 2471.85,1087.04C2472.22,1086.7 2472.68,1086.46 2473.18,1086.34C2473.42,1086.28 2473.68,1086.28 2473.93,1086.25L2484.11,1086.25L2484.82,1086.33C2485.04,1086.41 2485.26,1086.49 2485.49,1086.57ZM2546.91,1113.36C2546.52,1115.04 2544.25,1116.1 2542.78,1114.79C2542.33,1114.39 2542.03,1113.82 2541.96,1113.21C2541.95,1113.08 2541.95,1113.05 2541.95,1112.91L2542.03,1089.8C2542.05,1089.3 2542.1,1089.17 2542.2,1088.91C2542.53,1088.06 2543.34,1087.42 2544.25,1087.32C2544.54,1087.28 2544.61,1087.3 2544.7,1087.3C2545.2,1087.35 2545.33,1087.41 2545.58,1087.52C2546.36,1087.88 2546.93,1088.65 2547.04,1089.52C2547.05,1089.65 2547.05,1089.68 2547.05,1089.82L2547.03,1096.26C2547.77,1095.62 2548.61,1095.09 2549.54,1094.72C2550.54,1094.32 2551.61,1094.12 2552.69,1094.13C2555.74,1094.16 2558.62,1095.99 2560.27,1098.67C2563.15,1103.36 2562.37,1110.25 2557.89,1113.75C2555.56,1115.58 2552.27,1116.13 2549.48,1114.99C2548.53,1114.6 2547.67,1114.05 2546.91,1113.36ZM2514.54,1096.1L2514.55,1095.71C2514.56,1095.24 2514.61,1095.1 2514.7,1094.84C2515.03,1093.96 2515.87,1093.31 2516.81,1093.22C2517.06,1093.19 2517.11,1093.21 2517.19,1093.21C2517.66,1093.25 2517.8,1093.3 2518.05,1093.41C2518.87,1093.77 2519.47,1094.58 2519.55,1095.47C2519.56,1095.59 2519.56,1095.61 2519.57,1095.73L2519.5,1112.19C2519.46,1113.58 2518.2,1114.76 2516.86,1114.69C2515.78,1114.63 2514.85,1113.79 2514.57,1112.75C2514.53,1112.78 2514.5,1112.81 2514.46,1112.84C2512.2,1114.65 2508.96,1115.21 2506.24,1114.08C2500.4,1111.64 2498.32,1102.59 2502.89,1097.22C2504.47,1095.37 2506.79,1094.15 2509.25,1094.13C2509.31,1094.13 2509.31,1094.13 2509.37,1094.13C2511.26,1094.14 2513.07,1094.88 2514.54,1096.1ZM2528.22,1101.89L2528.23,1098.06C2528.24,1097.7 2528.27,1097.59 2528.35,1097.39C2528.6,1096.65 2529.3,1096.08 2530.09,1095.99C2530.28,1095.97 2530.32,1095.98 2530.38,1095.98C2530.74,1096 2530.85,1096.03 2531.05,1096.11C2531.78,1096.38 2532.33,1097.1 2532.41,1097.88C2532.41,1097.97 2532.41,1097.99 2532.41,1098.08L2532.4,1101.91L2536.21,1101.92C2537.57,1101.96 2538.65,1103.44 2538.16,1104.74C2537.87,1105.54 2537.05,1106.09 2536.2,1106.11L2532.38,1106.09L2532.37,1109.84C2532.33,1111.19 2530.84,1112.27 2529.55,1111.79C2528.75,1111.5 2528.2,1110.68 2528.18,1109.82L2528.2,1106.08L2524.43,1106.06C2523.09,1106.03 2521.99,1104.57 2522.48,1103.24C2522.78,1102.45 2523.59,1101.9 2524.45,1101.88L2528.22,1101.89ZM2552.6,1099.14C2550.11,1099.17 2548.29,1102.04 2548.29,1104.87C2548.29,1108.03 2550.67,1111.73 2553.94,1110.32C2557.22,1108.89 2557.96,1103.54 2555.51,1100.63C2554.81,1099.8 2553.8,1099.18 2552.7,1099.15C2552.67,1099.15 2552.63,1099.14 2552.6,1099.14ZM2509.29,1099.14C2505.92,1099.18 2504.02,1104.84 2506.55,1108.14C2507.37,1109.22 2508.77,1109.99 2510.2,1109.53C2513.41,1108.51 2514.29,1103.33 2511.95,1100.52C2511.31,1099.75 2510.38,1099.17 2509.36,1099.15C2509.33,1099.14 2509.31,1099.14 2509.29,1099.14ZM2613.14,1067.18C2613.38,1067.26 2613.63,1067.3 2613.85,1067.4C2615.46,1068.06 2616.46,1069.92 2616.13,1071.63C2615.84,1073.1 2614.62,1074.32 2613.15,1074.62C2612.91,1074.66 2612.66,1074.66 2612.41,1074.69L2470.5,1074.87C2470.01,1074.82 2469.51,1074.77 2469.05,1074.58C2467.67,1074.01 2466.71,1072.58 2466.71,1071.08C2466.7,1069.34 2468.04,1067.71 2469.75,1067.36C2469.99,1067.32 2470.24,1067.32 2470.49,1067.29L2612.4,1067.11C2612.65,1067.14 2612.9,1067.16 2613.14,1067.18ZM2513.09,1028.11C2513.45,1028.3 2513.81,1028.49 2514.1,1028.78C2514.39,1029.07 2514.63,1029.41 2514.79,1029.78C2514.87,1029.97 2514.91,1030.17 2514.97,1030.37L2518.26,1046.03C2520.41,1038.67 2522.57,1031.34 2524.75,1024L2524.96,1023.29C2525.37,1021.93 2526.08,1021.34 2526.93,1021.01C2527.41,1020.83 2527.55,1020.85 2528.05,1020.81L2565.53,1020.9C2565.74,1020.92 2565.95,1020.92 2566.15,1020.96C2567.55,1021.24 2568.67,1022.58 2568.67,1024.04C2568.66,1025.48 2567.57,1026.83 2566.13,1027.12C2565.93,1027.16 2565.72,1027.16 2565.52,1027.17L2530.38,1027.09C2527.18,1037.9 2523.98,1048.71 2520.9,1059.55L2520.81,1059.87C2520.74,1060.06 2520.68,1060.25 2520.59,1060.43C2519.88,1061.85 2518,1062.54 2516.53,1061.89C2515.8,1061.57 2515.2,1060.96 2514.89,1060.23C2514.82,1060.05 2514.78,1059.85 2514.72,1059.66L2509.35,1034.15L2501.46,1034.15L2500.85,1034.09C2500.65,1034.03 2500.45,1033.99 2500.26,1033.91C2498.93,1033.36 2498.1,1031.82 2498.38,1030.4C2498.63,1029.19 2499.64,1028.17 2500.85,1027.93C2501.05,1027.89 2501.26,1027.89 2501.46,1027.87L2511.9,1027.87L2512.51,1027.93C2512.7,1027.99 2512.89,1028.05 2513.09,1028.11ZM2562.74,1054.61C2564.5,1054.61 2565.93,1056.04 2565.93,1057.8C2565.93,1059.56 2564.5,1060.99 2562.74,1060.99C2560.97,1060.99 2559.54,1059.56 2559.54,1057.8C2559.54,1056.04 2560.97,1054.61 2562.74,1054.61ZM2572.06,1054.61C2573.82,1054.61 2575.25,1056.04 2575.25,1057.8C2575.25,1059.56 2573.82,1060.99 2572.06,1060.99C2570.29,1060.99 2568.86,1059.56 2568.86,1057.8C2568.86,1056.04 2570.29,1054.61 2572.06,1054.61ZM2581.38,1054.61C2583.14,1054.61 2584.57,1056.04 2584.57,1057.8C2584.57,1059.56 2583.14,1060.99 2581.38,1060.99C2579.62,1060.99 2578.18,1059.56 2578.18,1057.8C2578.18,1056.04 2579.62,1054.61 2581.38,1054.61ZM2551.27,1036.89L2551.28,1034.52C2551.28,1034.38 2551.28,1034.34 2551.3,1034.2C2551.44,1033.06 2552.4,1032.06 2553.57,1031.88C2553.87,1031.84 2553.94,1031.86 2554.04,1031.86C2554.18,1031.87 2554.22,1031.87 2554.36,1031.89C2555.5,1032.06 2556.47,1033.04 2556.61,1034.22C2556.62,1034.36 2556.62,1034.4 2556.62,1034.54L2556.53,1058.22C2556.53,1058.36 2556.53,1058.4 2556.51,1058.54C2556.36,1059.79 2555.2,1060.85 2553.93,1060.88C2552.51,1060.92 2551.23,1059.66 2551.19,1058.2L2551.2,1056.5C2550.48,1057.31 2549.66,1058.03 2548.74,1058.64C2545.88,1060.54 2542.11,1061 2538.91,1059.73C2534.79,1058.1 2531.89,1053.99 2531.08,1049.48C2530.33,1045.35 2531.23,1040.9 2533.73,1037.56C2535.83,1034.74 2539.11,1032.81 2542.66,1032.77C2542.72,1032.77 2542.77,1032.77 2542.83,1032.77C2546.03,1032.79 2549.09,1034.39 2551.27,1036.89ZM2542.76,1038.11C2540.1,1038.13 2537.82,1040.46 2536.89,1042.77C2535.56,1046.09 2536,1050.15 2538.33,1052.88C2539.89,1054.72 2542.54,1055.76 2544.97,1054.64C2547.81,1053.34 2549.35,1050.03 2549.4,1046.79C2549.44,1044.46 2548.74,1042.08 2547.18,1040.28C2546.08,1039.03 2544.52,1038.12 2542.8,1038.11C2542.79,1038.11 2542.78,1038.11 2542.76,1038.11Z" style="fill:rgb(227,227,227);fill-rule:nonzero;"/>
                </g>
            </g>
        </g>
    </g>
</svg>
