<?xml version="1.0" encoding="UTF-8" standalone="no"?>
<!DOCTYPE svg PUBLIC "-//W3C//DTD SVG 1.1//EN" "http://www.w3.org/Graphics/SVG/1.1/DTD/svg11.dtd">
<svg width="100%" height="100%" viewBox="0 0 213 173" version="1.1" xmlns="http://www.w3.org/2000/svg" xmlns:xlink="http://www.w3.org/1999/xlink" xml:space="preserve" xmlns:serif="http://www.serif.com/" style="fill-rule:evenodd;clip-rule:evenodd;stroke-linejoin:round;stroke-miterlimit:1.41421;">
    <g transform="matrix(1,0,0,1,-1287.25,-1148.69)">
        <g transform="matrix(1.14286,0,0,1.02857,3.02263,832.647)">
            <g id="owls_graduate">
                <g transform="matrix(-0.257799,0,0,0.286444,1566.05,195.094)">
                    <g transform="matrix(-3.39411,0,0,3.39411,6084.93,-3507.19)">
                        <path d="M1373.86,1199.74L1382.18,1161.12C1382.18,1161.12 1389.93,1172.03 1402.57,1180.36C1410.31,1177.53 1418.68,1175.98 1427.4,1175.98C1438.31,1175.98 1448.66,1178.4 1457.94,1182.74C1469.24,1176.43 1475.46,1168.11 1475.46,1168.11L1483.91,1203.22C1493.77,1215.57 1499.67,1231.22 1499.67,1248.24C1499.67,1288.13 1467.29,1320.51 1427.4,1320.51C1387.52,1320.51 1355.14,1288.13 1355.14,1248.24C1355.14,1229.58 1362.23,1212.56 1373.86,1199.74Z" style="fill:rgb(27,111,137);"/>
                    </g>
                    <g transform="matrix(-3.39411,0,0,3.39411,6084.93,-3507.19)">
                        <path d="M1373.66,1296.53C1382.97,1275.26 1403.54,1260.45 1427.4,1260.45C1451.27,1260.45 1471.84,1275.26 1481.14,1296.53C1467.91,1311.25 1448.73,1320.51 1427.4,1320.51C1406.08,1320.51 1386.89,1311.25 1373.66,1296.53Z" style="fill:rgb(71,144,167);"/>
                    </g>
                    <g transform="matrix(0.707107,0.707107,-0.707107,0.707107,1390.92,-261.496)">
                        <rect x="564.142" y="777.347" width="100.095" height="100.095" style="fill:rgb(204,84,63);"/>
                    </g>
                    <g transform="matrix(1.15113,0,0,1.15113,-128.703,-35.9517)">
                        <path d="M1107.35,500.456C1163.55,500.456 1209.17,556.999 1209.17,613.196C1209.17,669.393 1163.55,715.019 1107.35,715.019C1051.15,715.019 1005.52,669.393 1005.52,613.196C1005.52,556.999 1051.15,500.456 1107.35,500.456Z" style="fill:white;"/>
                    </g>
                    <g transform="matrix(1.15113,0,0,1.15113,59.1591,-35.9517)">
                        <path d="M1111.71,487.354C1153.13,488.689 1209.17,556.999 1209.17,613.196C1209.17,669.393 1163.55,715.019 1107.35,715.019C1051.15,715.019 1005.52,669.393 1005.52,613.196C1005.52,556.999 1053.67,485.482 1111.71,487.354Z" style="fill:white;"/>
                    </g>
                    <g transform="matrix(0.536022,0,0,0.536022,739.648,355.232)">
                        <circle cx="1107.35" cy="613.196" r="101.822" style="fill:rgb(18,62,57);"/>
                    </g>
                    <g transform="matrix(0.536022,0,0,0.536022,549.942,355.232)">
                        <circle cx="1107.35" cy="613.196" r="101.822" style="fill:rgb(18,62,57);"/>
                    </g>
                    <g transform="matrix(-3.39411,0,0,3.39411,6084.93,-3507.19)">
                        <path d="M1411.26,1170.09L1390.78,1162L1430.69,1148.69L1470.6,1162L1451.04,1169.72C1450.61,1173.83 1450.5,1178.68 1452.01,1180.52C1442.71,1189.54 1420.21,1191.6 1409.37,1180.52C1410.48,1178.87 1411.22,1174.17 1411.26,1170.09Z" style="fill:rgb(9,88,113);"/>
                    </g>
                </g>
                <g transform="matrix(-0.186376,0,0,0.207084,1400.55,272.937)">
                    <g transform="matrix(-4.69481,0,0,4.69481,7528.82,-5227.12)">
                        <path d="M1300.78,1233.7L1306.8,1205.78C1306.8,1205.78 1312.4,1213.67 1321.54,1219.69C1327.14,1217.64 1333.19,1216.52 1339.49,1216.52C1347.38,1216.52 1354.86,1218.27 1361.57,1221.41C1369.74,1216.85 1374.24,1210.83 1374.24,1210.83L1380.35,1236.21C1387.48,1245.14 1391.74,1256.46 1391.74,1268.76C1391.74,1297.6 1368.33,1321.01 1339.49,1321.01C1310.66,1321.01 1287.25,1297.6 1287.25,1268.76C1287.25,1255.27 1292.37,1242.97 1300.78,1233.7Z" style="fill:rgb(8,76,97);"/>
                    </g>
                    <g transform="matrix(-4.69481,0,0,4.69481,7528.82,-5227.12)">
                        <path d="M1300.64,1303.68C1307.37,1288.3 1322.24,1277.59 1339.49,1277.59C1356.74,1277.59 1371.62,1288.3 1378.35,1303.68C1368.78,1314.31 1354.91,1321.01 1339.49,1321.01C1324.08,1321.01 1310.21,1314.31 1300.64,1303.68Z" style="fill:rgb(42,104,124);"/>
                    </g>
                    <g transform="matrix(0.707107,0.707107,-0.707107,0.707107,1390.92,-261.496)">
                        <rect x="564.142" y="777.347" width="100.095" height="100.095" style="fill:rgb(204,84,63);"/>
                    </g>
                    <g transform="matrix(1.15113,0,0,1.15113,-128.703,-35.9517)">
                        <path d="M1103.17,518.356C1150.34,518.976 1198.65,544.627 1209.17,613.196C1217.69,668.744 1163.55,715.019 1107.35,715.019C1051.15,715.019 996.274,668.627 1005.52,613.196C1016.66,546.483 1043.34,517.568 1103.17,518.356Z" style="fill:white;"/>
                    </g>
                    <g transform="matrix(1.15113,0,0,1.15113,59.1591,-35.9517)">
                        <path d="M1107.35,511.374C1153.17,511.212 1199.13,554.303 1199.27,612.578C1199.42,671.9 1163.55,715.019 1107.35,715.019C1051.15,715.019 1005.52,669.393 1005.52,613.196C1005.52,556.999 1064.12,511.527 1107.35,511.374Z" style="fill:white;"/>
                    </g>
                    <g transform="matrix(0.536022,0,0,0.536022,739.648,355.232)">
                        <circle cx="1107.35" cy="613.196" r="101.822" style="fill:rgb(18,62,57);"/>
                    </g>
                    <g transform="matrix(0.536022,0,0,0.536022,549.942,355.232)">
                        <circle cx="1107.35" cy="613.196" r="101.822" style="fill:rgb(18,62,57);"/>
                    </g>
                    <g transform="matrix(-4.69481,0,0,4.69481,7528.82,-5227.12)">
                        <path d="M1326.91,1213.24L1311.08,1206.98L1341.92,1196.7L1372.76,1206.98L1357.64,1212.96C1357.31,1216.13 1357.23,1219.88 1358.39,1221.3C1351.2,1228.27 1333.82,1229.86 1325.44,1221.3C1326.3,1220.02 1326.88,1216.39 1326.91,1213.24Z" style="fill:rgb(9,88,113);"/>
                    </g>
                </g>
            </g>
        </g>
    </g>
</svg>
