<?xml version="1.0" encoding="UTF-8" standalone="no"?>
<!DOCTYPE svg PUBLIC "-//W3C//DTD SVG 1.1//EN" "http://www.w3.org/Graphics/SVG/1.1/DTD/svg11.dtd">
<svg width="100%" height="100%" viewBox="0 0 329 314" version="1.1" xmlns="http://www.w3.org/2000/svg" xmlns:xlink="http://www.w3.org/1999/xlink" xml:space="preserve" xmlns:serif="http://www.serif.com/" style="fill-rule:evenodd;clip-rule:evenodd;stroke-linejoin:round;stroke-miterlimit:1.41421;">
    <g transform="matrix(1,0,0,1,-406.023,-2165.13)">
        <g transform="matrix(1.14286,0,0,1.54286,-3951.26,2021.77)">
            <g id="owls_think">
                <g transform="matrix(0.34245,2.56673e-49,0,0.264026,3734.72,-361.937)">
                    <path d="M702.691,1791.24C710.39,1743.76 799.827,1689.64 835.606,1766.7C893.57,1696.84 1063.53,1802.71 954.975,1904.38C1094.83,1977.35 855.789,2144.01 782.774,2075.99C665.709,2116.8 547.644,1990.93 610.574,1927.77C521.948,1873.67 642.621,1720.48 702.691,1791.24Z" style="fill:rgb(245,255,255);"/>
                </g>
                <g transform="matrix(0.34245,2.56673e-49,0,0.264026,3734.72,-361.937)">
                    <path d="M782.22,1722.78C805.065,1722.95 825.492,1737.24 836.917,1757.34C836.917,1757.34 854.914,1743.89 869.262,1740.78C931.566,1727.26 1005.57,1783.86 994.849,1847.64C991.334,1868.56 979.096,1887.62 963.855,1903.23C987.158,1916.89 1005.8,1939.79 1003.3,1967.93C999.474,2010.94 960.569,2045.85 920.261,2069.22C893.719,2084.62 864.23,2096.19 833.22,2097.18C814.922,2097.76 795.744,2093.73 781.496,2082C780.884,2082.2 780.27,2082.39 779.656,2082.59C711.938,2103.39 630.098,2071.84 597.761,2008.61C585.099,1983.85 582.71,1952.72 602.152,1929.04C602.152,1929.04 603.111,1929.33 600.349,1927.23C587.257,1917.12 577.98,1902.86 574.907,1886.67C566.387,1841.77 598.627,1794.77 634.224,1776.04C654.428,1765.41 681.055,1764.6 699.812,1780.68C699.812,1780.68 706.151,1766.03 714.73,1756.17C731.159,1737.29 755.016,1723.51 780.394,1722.8C781.003,1722.78 781.611,1722.78 782.22,1722.78ZM781.564,1733.31C747.225,1733.64 713.204,1761.88 708.103,1792.09C708.103,1792.09 703.846,1800.3 696.48,1792.37C688.888,1784.34 678.629,1778.64 667.08,1778.21C649.242,1777.56 632.881,1787.54 620.586,1798.73C591.64,1825.08 572.807,1867.01 591.473,1901.01C596.499,1910.17 604.358,1917.68 613.532,1923.34C613.532,1923.34 617.892,1927.66 612.564,1933.48C604.231,1942.71 599.195,1954.49 598.604,1966.81C597.002,2000.16 620.467,2030.41 650.459,2051.26C687.408,2076.94 736.761,2086.34 780.914,2071.04C780.914,2071.04 784.104,2070.12 788.154,2073.6C808.813,2091.02 840.862,2088.03 864.39,2081.61C916.73,2067.33 966.992,2032.89 986.663,1988.17C993.52,1972.58 995.04,1953.94 986.232,1938.58C978.812,1925.63 965.943,1916.16 952.341,1909C952.341,1909 947.188,1904.36 951.761,1900.03C953.692,1898.21 953.911,1897.96 954.73,1897.15C976.643,1875.19 992.199,1843.3 980.862,1812.03C969.501,1780.7 937.491,1757.48 903.974,1751.09C881.242,1746.76 855.464,1751.37 839.88,1770C839.88,1770 838.55,1771.85 835.841,1771.96C831.282,1772.15 829.287,1765.71 826.413,1760.87C817.549,1745.93 801.807,1733.79 783.074,1733.33C782.57,1733.32 782.067,1733.31 781.564,1733.31Z" style="fill:rgb(98,114,129);fill-rule:nonzero;"/>
                </g>
                <g id="owl3" transform="matrix(0.567881,2.59247e-33,0,0.420653,3282.25,-538.104)">
                    <g transform="matrix(1.54082,-9.49601e-33,0,1.54082,308.346,-1835.96)">
                        <path d="M722.419,2397.64C730.227,2406.26 734.986,2417.68 734.986,2430.21C734.986,2456.99 713.246,2478.73 686.468,2478.73C659.69,2478.73 637.95,2456.99 637.95,2430.21C637.95,2418.78 641.908,2408.28 648.527,2399.98L654.201,2376.41C654.201,2376.41 658.377,2381.99 665.966,2386.23C672.195,2383.32 679.143,2381.69 686.468,2381.69C692.325,2381.69 697.942,2382.73 703.142,2384.64C711.629,2379.05 716.828,2371.72 716.828,2371.72L722.419,2397.64Z" style="fill:rgb(41,196,156);"/>
                    </g>
                    <g transform="matrix(1.54082,-9.49601e-33,0,1.54082,308.346,-1835.96)">
                        <path d="M650.387,2462.63C656.634,2448.35 670.447,2438.41 686.468,2438.41C702.488,2438.41 716.302,2448.35 722.549,2462.63C713.665,2472.51 700.786,2478.73 686.468,2478.73C672.149,2478.73 659.271,2472.51 650.387,2462.63Z" style="fill:rgb(74,215,178);"/>
                    </g>
                    <g transform="matrix(0.215518,0.215518,-0.215518,0.215518,1412.02,1606.51)">
                        <rect x="564.142" y="777.347" width="100.095" height="100.095" style="fill:rgb(144,44,32);"/>
                    </g>
                    <g transform="matrix(0.350853,0,0,0.350853,948.853,1675.25)">
                        <path d="M1105.18,517.701C1148.3,481.661 1198.65,556.735 1209.17,607.329C1220.61,662.35 1163.55,715.019 1107.35,715.019C1051.15,715.019 994.526,668.306 1005.52,613.196C1014.15,569.995 1052.64,561.613 1105.18,517.701Z" style="fill:white;"/>
                        <clipPath id="_clip1">
                            <path d="M1105.18,517.701C1148.3,481.661 1198.65,556.735 1209.17,607.329C1220.61,662.35 1163.55,715.019 1107.35,715.019C1051.15,715.019 994.526,668.306 1005.52,613.196C1014.15,569.995 1052.64,561.613 1105.18,517.701Z"/>
                        </clipPath>
                        <g clip-path="url(#_clip1)">
                            <g transform="matrix(0.465647,0,0,0.465647,589.545,339.825)">
                                <circle cx="1107.35" cy="613.196" r="101.822" style="fill:rgb(18,62,57);"/>
                            </g>
                        </g>
                    </g>
                    <g transform="matrix(0.350853,0,0,0.350853,1006.11,1675.25)">
                        <path d="M1104.83,620.723C1161.02,620.723 1207.21,601.983 1209.17,613.196C1218.83,668.558 1163.55,715.019 1107.35,715.019C1051.15,715.019 1005.52,669.393 1005.52,613.196C1005.52,608.391 1048.63,620.723 1104.83,620.723Z" style="fill:white;"/>
                        <clipPath id="_clip2">
                            <path d="M1104.83,620.723C1161.02,620.723 1207.21,601.983 1209.17,613.196C1218.83,668.558 1163.55,715.019 1107.35,715.019C1051.15,715.019 1005.52,669.393 1005.52,613.196C1005.52,608.391 1048.63,620.723 1104.83,620.723Z"/>
                        </clipPath>
                        <g clip-path="url(#_clip2)">
                            <g transform="matrix(0.465647,0,0,0.465647,591.147,339.825)">
                                <circle cx="1107.35" cy="613.196" r="101.822" style="fill:rgb(18,62,57);"/>
                            </g>
                        </g>
                    </g>
                </g>
                <g id="owl1" transform="matrix(0.631774,2.88415e-33,0,0.467981,2996.81,-631.886)">
                    <g transform="matrix(1.38499,-8.53565e-33,0,1.38499,728.973,-1449.88)">
                        <path d="M499.996,2388.65C508.681,2398.23 513.976,2410.94 513.976,2424.88C513.976,2454.67 489.79,2478.86 459.999,2478.86C430.209,2478.86 406.023,2454.67 406.023,2424.88C406.023,2412.17 410.426,2400.48 417.79,2391.25L424.103,2365.03C424.103,2365.03 428.748,2371.24 437.191,2375.95C444.121,2372.71 451.851,2370.9 459.999,2370.9C466.516,2370.9 472.764,2372.06 478.549,2374.18C487.992,2367.96 493.775,2359.81 493.775,2359.81L499.996,2388.65Z" style="fill:rgb(9,153,116);"/>
                    </g>
                    <g transform="matrix(1.38499,-8.53565e-33,0,1.38499,728.973,-1449.88)">
                        <path d="M419.859,2460.95C426.809,2445.06 442.176,2434 459.999,2434C477.822,2434 493.19,2445.06 500.14,2460.95C490.256,2471.94 475.929,2478.86 459.999,2478.86C444.07,2478.86 429.742,2471.94 419.859,2460.95Z" style="fill:rgb(6,214,160);"/>
                    </g>
                    <g transform="matrix(0.215518,0.215518,-0.215518,0.215518,1412.02,1606.51)">
                        <rect x="564.142" y="777.347" width="100.095" height="100.095" style="fill:rgb(144,44,32);"/>
                    </g>
                    <g transform="matrix(0.350853,0,0,0.350853,948.853,1675.25)">
                        <path d="M1105.18,539.465C1148.02,503.099 1209.17,556.999 1209.17,613.196C1209.17,669.393 1163.55,715.019 1107.35,715.019C1051.15,715.019 1005.52,669.393 1005.52,613.196C1005.52,556.999 1061.03,576.94 1105.18,539.465Z" style="fill:white;"/>
                    </g>
                    <g transform="matrix(0.350853,0,0,0.350853,1006.11,1675.25)">
                        <path d="M1107.35,511.374C1151.5,558.218 1209.17,556.999 1209.17,613.196C1209.17,669.393 1163.55,715.019 1107.35,715.019C1051.15,715.019 1005.52,669.393 1005.52,613.196C1005.52,556.999 1068.8,470.479 1107.35,511.374Z" style="fill:white;"/>
                    </g>
                    <g transform="matrix(0.163373,0,0,0.163373,1213.52,1794.48)">
                        <circle cx="1107.35" cy="613.196" r="101.822" style="fill:rgb(18,62,57);"/>
                    </g>
                    <g transform="matrix(0.163373,0,0,0.163373,1155.7,1794.48)">
                        <circle cx="1107.35" cy="613.196" r="101.822" style="fill:rgb(18,62,57);"/>
                    </g>
                </g>
                <g transform="matrix(0.400277,0.054961,-0.0741973,0.296501,3831.15,-466.851)">
                    <path d="M715.853,1967.88C716.88,1968.53 717.824,1969.32 718.328,1970.4C718.496,1970.77 718.58,1971.16 718.706,1971.54L724.024,1996.82C727.611,1984.51 731.242,1972.2 734.902,1959.9L735.022,1959.5C735.765,1957.72 737.153,1956.24 738.959,1955.84C739.325,1955.76 739.704,1955.76 740.077,1955.72L848.533,1955.48C848.955,1955.53 849.386,1955.53 849.799,1955.63C853.454,1956.52 855.266,1961.86 852.06,1964.71C851.421,1965.28 850.653,1965.69 849.822,1965.89C849.41,1966 848.979,1966 848.557,1966.05L744.035,1966.28C738.925,1983.5 733.841,2000.73 728.915,2018L728.609,2019.07L728.308,2020.13L727.815,2021.31C727.146,2022.21 727.038,2022.52 726.072,2023.14C723.945,2024.5 720.807,2024.06 719.147,2022.05C718.417,2021.17 718.411,2020.84 718.049,2019.78L709.242,1977.91L696.37,1977.91L695.105,1977.76C694.056,1977.36 693.723,1977.35 692.864,1976.59C690.694,1974.66 690.526,1970.74 692.864,1968.67C693.505,1968.1 694.274,1967.7 695.105,1967.5C695.517,1967.39 695.948,1967.39 696.37,1967.34L713.532,1967.34L714.723,1967.48C715.1,1967.61 715.477,1967.75 715.853,1967.88ZM827.685,2013.02C827.028,2015.86 823.2,2017.64 820.734,2015.44C819.972,2014.76 819.47,2013.8 819.351,2012.78C819.324,2012.55 819.328,2012.5 819.322,2012.27L819.471,1973.32C819.5,1972.49 819.584,1972.26 819.752,1971.83C820.3,1970.4 821.669,1969.32 823.207,1969.14C823.698,1969.08 823.815,1969.11 823.972,1969.12C824.803,1969.2 825.025,1969.3 825.451,1969.49C826.768,1970.09 827.731,1971.4 827.901,1972.85C827.928,1973.07 827.924,1973.13 827.93,1973.36L827.888,1984.22C829.137,1983.13 830.552,1982.24 832.119,1981.62C833.802,1980.94 835.611,1980.61 837.424,1980.61C842.577,1980.67 847.426,1983.75 850.199,1988.27C855.053,1996.18 853.734,2007.79 846.193,2013.69C842.268,2016.76 836.72,2017.69 832.023,2015.78C830.418,2015.12 828.964,2014.18 827.685,2013.02ZM773.149,1983.94L773.151,1983.28C773.174,1982.49 773.255,1982.25 773.42,1981.81C773.971,1980.34 775.389,1979.24 776.969,1979.09C777.382,1979.05 777.479,1979.07 777.611,1979.07C778.399,1979.13 778.632,1979.23 779.063,1979.41C780.44,1980.01 781.443,1981.38 781.59,1982.88C781.609,1983.07 781.606,1983.12 781.61,1983.31L781.504,2011.06C781.436,2013.39 779.319,2015.39 777.044,2015.27C775.233,2015.17 773.656,2013.75 773.186,2012C773.128,2012.05 773.07,2012.1 773.011,2012.14C769.197,2015.21 763.736,2016.14 759.154,2014.23C749.31,2010.13 745.81,1994.88 753.508,1985.83C756.17,1982.7 760.08,1980.66 764.23,1980.61C764.333,1980.61 764.332,1980.61 764.435,1980.61C767.624,1980.65 770.662,1981.89 773.149,1983.94ZM796.187,1993.7L796.212,1987.25C796.228,1986.64 796.286,1986.45 796.404,1986.11C796.835,1984.86 798.015,1983.91 799.338,1983.76C799.656,1983.72 799.731,1983.74 799.832,1983.74C800.441,1983.77 800.623,1983.83 800.963,1983.96C802.201,1984.41 803.127,1985.62 803.247,1986.94C803.26,1987.09 803.258,1987.13 803.261,1987.27L803.236,1993.73L809.66,1993.76C811.943,1993.82 813.766,1996.31 812.95,1998.51C812.453,1999.85 811.082,2000.78 809.633,2000.81L803.209,2000.78L803.185,2007.09C803.123,2009.37 800.607,2011.19 798.433,2010.38C797.091,2009.88 796.164,2008.51 796.136,2007.07L796.16,2000.75L789.813,2000.73C787.546,2000.67 785.694,1998.21 786.522,1995.98C787.02,1994.64 788.391,1993.71 789.84,1993.68L796.187,1993.7ZM837.275,1989.07C833.086,1989.12 830.017,1993.94 830.017,1998.72C830.018,2004.04 834.022,2010.28 839.534,2007.89C845.071,2005.5 846.307,1996.48 842.181,1991.57C841.004,1990.17 839.305,1989.12 837.443,1989.07C837.387,1989.07 837.331,1989.07 837.275,1989.07ZM764.294,1989.07C758.62,1989.13 755.416,1998.66 759.68,2004.24C761.062,2006.05 763.418,2007.35 765.835,2006.58C771.247,2004.86 772.719,1996.13 768.776,1991.39C767.697,1990.09 766.135,1989.11 764.409,1989.07C764.371,1989.07 764.332,1989.07 764.294,1989.07Z" style="fill:rgb(98,114,129);fill-rule:nonzero;"/>
                </g>
                <g transform="matrix(-0.102768,-0.149471,0.201786,-0.0761247,3716.39,416.499)">
                    <path d="M715.853,1967.88C716.88,1968.53 717.824,1969.32 718.328,1970.4C718.496,1970.77 718.58,1971.16 718.706,1971.54L724.024,1996.82C727.611,1984.51 731.242,1972.2 734.902,1959.9L735.022,1959.5C735.765,1957.72 737.153,1956.24 738.959,1955.84C739.325,1955.76 739.704,1955.76 740.077,1955.72L848.533,1955.48C848.955,1955.53 849.386,1955.53 849.799,1955.63C853.454,1956.52 855.266,1961.86 852.06,1964.71C851.421,1965.28 850.653,1965.69 849.822,1965.89C849.41,1966 848.979,1966 848.557,1966.05L744.035,1966.28C738.925,1983.5 733.841,2000.73 728.915,2018L728.609,2019.07L728.308,2020.13L727.815,2021.31C727.146,2022.21 727.038,2022.52 726.072,2023.14C723.945,2024.5 720.807,2024.06 719.147,2022.05C718.417,2021.17 718.411,2020.84 718.049,2019.78L709.242,1977.91L696.37,1977.91L695.105,1977.76C694.056,1977.36 693.723,1977.35 692.864,1976.59C690.694,1974.66 690.526,1970.74 692.864,1968.67C693.505,1968.1 694.274,1967.7 695.105,1967.5C695.517,1967.39 695.948,1967.39 696.37,1967.34L713.532,1967.34L714.723,1967.48C715.1,1967.61 715.477,1967.75 715.853,1967.88ZM827.685,2013.02C827.028,2015.86 823.2,2017.64 820.734,2015.44C819.972,2014.76 819.47,2013.8 819.351,2012.78C819.324,2012.55 819.328,2012.5 819.322,2012.27L819.471,1973.32C819.5,1972.49 819.584,1972.26 819.752,1971.83C820.3,1970.4 821.669,1969.32 823.207,1969.14C823.698,1969.08 823.815,1969.11 823.972,1969.12C824.803,1969.2 825.025,1969.3 825.451,1969.49C826.768,1970.09 827.731,1971.4 827.901,1972.85C827.928,1973.07 827.924,1973.13 827.93,1973.36L827.888,1984.22C829.137,1983.13 830.552,1982.24 832.119,1981.62C833.802,1980.94 835.611,1980.61 837.424,1980.61C842.577,1980.67 847.426,1983.75 850.199,1988.27C855.053,1996.18 853.734,2007.79 846.193,2013.69C842.268,2016.76 836.72,2017.69 832.023,2015.78C830.418,2015.12 828.964,2014.18 827.685,2013.02ZM773.149,1983.94L773.151,1983.28C773.174,1982.49 773.255,1982.25 773.42,1981.81C773.971,1980.34 775.389,1979.24 776.969,1979.09C777.382,1979.05 777.479,1979.07 777.611,1979.07C778.399,1979.13 778.632,1979.23 779.063,1979.41C780.44,1980.01 781.443,1981.38 781.59,1982.88C781.609,1983.07 781.606,1983.12 781.61,1983.31L781.504,2011.06C781.436,2013.39 779.319,2015.39 777.044,2015.27C775.233,2015.17 773.656,2013.75 773.186,2012C773.128,2012.05 773.07,2012.1 773.011,2012.14C769.197,2015.21 763.736,2016.14 759.154,2014.23C749.31,2010.13 745.81,1994.88 753.508,1985.83C756.17,1982.7 760.08,1980.66 764.23,1980.61C764.333,1980.61 764.332,1980.61 764.435,1980.61C767.624,1980.65 770.662,1981.89 773.149,1983.94ZM796.187,1993.7L796.212,1987.25C796.228,1986.64 796.286,1986.45 796.404,1986.11C796.835,1984.86 798.015,1983.91 799.338,1983.76C799.656,1983.72 799.731,1983.74 799.832,1983.74C800.441,1983.77 800.623,1983.83 800.963,1983.96C802.201,1984.41 803.127,1985.62 803.247,1986.94C803.26,1987.09 803.258,1987.13 803.261,1987.27L803.236,1993.73L809.66,1993.76C811.943,1993.82 813.766,1996.31 812.95,1998.51C812.453,1999.85 811.082,2000.78 809.633,2000.81L803.209,2000.78L803.185,2007.09C803.123,2009.37 800.607,2011.19 798.433,2010.38C797.091,2009.88 796.164,2008.51 796.136,2007.07L796.16,2000.75L789.813,2000.73C787.546,2000.67 785.694,1998.21 786.522,1995.98C787.02,1994.64 788.391,1993.71 789.84,1993.68L796.187,1993.7ZM837.275,1989.07C833.086,1989.12 830.017,1993.94 830.017,1998.72C830.018,2004.04 834.022,2010.28 839.534,2007.89C845.071,2005.5 846.307,1996.48 842.181,1991.57C841.004,1990.17 839.305,1989.12 837.443,1989.07C837.387,1989.07 837.331,1989.07 837.275,1989.07ZM764.294,1989.07C758.62,1989.13 755.416,1998.66 759.68,2004.24C761.062,2006.05 763.418,2007.35 765.835,2006.58C771.247,2004.86 772.719,1996.13 768.776,1991.39C767.697,1990.09 766.135,1989.11 764.409,1989.07C764.371,1989.07 764.332,1989.07 764.294,1989.07Z" style="fill:rgb(98,114,129);fill-rule:nonzero;"/>
                </g>
                <g transform="matrix(0.261039,-0.103306,0.139463,0.193362,3534.3,-153.091)">
                    <path d="M692.809,1823.58C693.808,1824.11 694.816,1824.64 695.616,1825.44C696.422,1826.23 697.065,1827.18 697.508,1828.22C697.729,1828.74 697.846,1829.29 698.015,1829.83L707.143,1873.22C713.083,1852.83 719.074,1832.52 725.114,1812.2L725.695,1810.25C726.823,1806.46 728.793,1804.82 731.131,1803.93C732.463,1803.42 732.848,1803.48 734.25,1803.36L838.064,1803.61C838.629,1803.66 839.203,1803.67 839.76,1803.78C843.662,1804.57 846.747,1808.27 846.737,1812.32C846.727,1816.3 843.7,1820.05 839.718,1820.83C839.161,1820.94 838.587,1820.94 838.022,1821L740.709,1820.76C731.821,1850.7 722.972,1880.65 714.442,1910.67L714.19,1911.56C713.991,1912.07 713.839,1912.6 713.592,1913.09C711.613,1917.02 706.401,1918.93 702.327,1917.14C700.307,1916.25 698.663,1914.58 697.809,1912.55C697.597,1912.04 697.482,1911.5 697.319,1910.97L682.453,1840.32L660.606,1840.32L658.91,1840.15C658.367,1839.98 657.804,1839.87 657.279,1839.65C653.582,1838.12 651.298,1833.86 652.08,1829.93C652.747,1826.57 655.548,1823.76 658.91,1823.1C659.468,1822.98 660.041,1822.98 660.606,1822.93L689.508,1822.93L691.19,1823.09C691.73,1823.26 692.27,1823.42 692.809,1823.58ZM830.314,1896.97C835.193,1896.97 839.155,1900.93 839.155,1905.81C839.155,1910.69 835.193,1914.65 830.314,1914.65C825.435,1914.65 821.473,1910.69 821.473,1905.81C821.473,1900.93 825.435,1896.97 830.314,1896.97ZM856.128,1896.97C861.007,1896.97 864.969,1900.93 864.969,1905.81C864.969,1910.69 861.007,1914.65 856.128,1914.65C851.248,1914.65 847.287,1910.69 847.287,1905.81C847.287,1900.93 851.248,1896.97 856.128,1896.97ZM881.942,1896.97C886.821,1896.97 890.783,1900.93 890.783,1905.81C890.783,1910.69 886.821,1914.65 881.942,1914.65C877.062,1914.65 873.101,1910.69 873.101,1905.81C873.101,1900.93 877.062,1896.97 881.942,1896.97ZM798.557,1847.89L798.582,1841.34C798.595,1840.95 798.59,1840.85 798.637,1840.46C799.028,1837.29 801.684,1834.51 804.919,1834.04C805.758,1833.92 805.96,1833.97 806.231,1833.97C806.62,1833.99 806.719,1833.99 807.104,1834.05C810.269,1834.53 812.959,1837.24 813.336,1840.52C813.381,1840.91 813.375,1841 813.385,1841.39L813.133,1906.98C813.12,1907.37 813.125,1907.47 813.078,1907.85C812.651,1911.33 809.447,1914.26 805.923,1914.35C801.986,1914.45 798.435,1910.98 798.33,1906.92L798.348,1902.21C796.375,1904.44 794.106,1906.45 791.543,1908.15C783.632,1913.4 773.195,1914.67 764.309,1911.16C752.902,1906.65 744.892,1895.27 742.631,1882.78C740.557,1871.33 743.055,1859.02 749.977,1849.75C755.793,1841.95 764.877,1836.61 774.721,1836.49C774.869,1836.49 775.018,1836.48 775.166,1836.48C784.057,1836.54 792.514,1840.97 798.557,1847.89ZM775,1851.29C767.616,1851.33 761.29,1857.8 758.734,1864.18C755.048,1873.38 756.275,1884.63 762.721,1892.2C767.037,1897.27 774.376,1900.15 781.112,1897.07C788.962,1893.48 793.238,1884.3 793.379,1875.33C793.481,1868.87 791.56,1862.28 787.223,1857.3C784.186,1853.82 779.864,1851.32 775.11,1851.29C775.073,1851.29 775.036,1851.29 775,1851.29Z" style="fill:rgb(98,114,129);fill-rule:nonzero;"/>
                </g>
                <g transform="matrix(0.489399,0.0964462,-0.0868016,0.241678,2801.3,-166.348)">
                    <g transform="matrix(0.309999,0,0,0.372178,2256.98,-86.8849)">
                        <ellipse cx="1007.36" cy="1994.06" rx="31.243" ry="34.224" style="fill:rgb(245,255,255);"/>
                    </g>
                    <g transform="matrix(0.309999,0,0,0.383467,2256.98,-109.441)">
                        <path d="M1007.6,1953.59C1024.99,1953.77 1040.74,1967.99 1044.11,1986.02C1047.54,2004.35 1037.79,2025.03 1020.43,2032.01C1005.25,2038.1 986.433,2031.8 977.032,2017.86C965.817,2001.23 968.257,1976.29 983.645,1962.71C990.189,1956.93 998.776,1953.56 1007.6,1953.59ZM1007.36,1973.97C997.895,1974.07 992.354,1975.71 989.013,1984.97C985.904,1993.59 992.137,2005.92 1000.5,2009.89C1000.97,2010.12 995.499,2007.12 1000.5,2009.89C1003.66,2011.64 1018.97,2011.19 1023.74,2005.03C1029.47,1997.61 1028.11,1974.46 1007.36,1973.97C1000.64,1973.82 1007.57,1973.97 1007.36,1973.97Z" style="fill:rgb(98,114,129);fill-rule:nonzero;"/>
                    </g>
                </g>
                <g transform="matrix(0.489399,0.0964462,-0.0868016,0.241678,2799.16,-165.341)">
                    <g transform="matrix(0.548349,1.02634e-48,0,0.753299,1988.18,-892.766)">
                        <ellipse cx="1007.36" cy="1994.06" rx="31.243" ry="34.224" style="fill:rgb(245,255,255);"/>
                    </g>
                    <g transform="matrix(0.494314,0,0,0.753299,2044.64,-892.766)">
                        <path d="M1007.6,1953.59C1024.99,1953.77 1040.74,1967.99 1044.11,1986.02C1047.54,2004.35 1037.79,2025.03 1020.43,2032.01C1005.25,2038.1 986.433,2031.8 977.032,2017.86C965.817,2001.23 968.257,1976.29 983.645,1962.71C990.189,1956.93 998.776,1953.56 1007.6,1953.59ZM1007.2,1966.09C997.736,1966.19 988.961,1972.7 984.986,1981.59C978.78,1995.47 984.394,2014.56 998.951,2020.41C1009.83,2024.78 1023.18,2019.29 1029,2008.04C1037.36,1991.9 1028.59,1966.58 1007.83,1966.09C1007.62,1966.09 1007.41,1966.09 1007.2,1966.09Z" style="fill:rgb(98,114,129);fill-rule:nonzero;"/>
                    </g>
                </g>
                <g transform="matrix(0.622258,0.122629,-0.110366,0.307288,2480.98,-293.884)">
                    <g transform="matrix(0.548349,1.02634e-48,0,0.753299,1988.18,-892.766)">
                        <ellipse cx="1007.36" cy="1994.06" rx="31.243" ry="34.224" style="fill:rgb(245,255,255);"/>
                    </g>
                    <g transform="matrix(0.494314,0,0,0.753299,2044.64,-892.766)">
                        <path d="M1007.6,1953.59C1024.99,1953.77 1040.74,1967.99 1044.11,1986.02C1047.54,2004.35 1037.79,2025.03 1020.43,2032.01C1005.25,2038.1 986.433,2031.8 977.032,2017.86C965.817,2001.23 968.257,1976.29 983.645,1962.71C990.189,1956.93 998.776,1953.56 1007.6,1953.59ZM1007.2,1966.09C997.736,1966.19 988.961,1972.7 984.986,1981.59C978.78,1995.47 984.394,2014.56 998.951,2020.41C1009.83,2024.78 1023.18,2019.29 1029,2008.04C1037.36,1991.9 1028.59,1966.58 1007.83,1966.09C1007.62,1966.09 1007.41,1966.09 1007.2,1966.09Z" style="fill:rgb(98,114,129);fill-rule:nonzero;"/>
                    </g>
                </g>
                <g transform="matrix(0.0660736,0.371921,-0.334729,0.0326289,3968.84,-675.729)">
                    <g transform="matrix(0.351291,0.452468,-0.184167,0.321717,2300.8,-441.369)">
                        <ellipse cx="1007.36" cy="1994.06" rx="31.243" ry="34.224" style="fill:rgb(245,255,255);"/>
                    </g>
                    <g transform="matrix(0.373747,0.431785,-0.177053,0.344822,2264.26,-466.065)">
                        <path d="M1007.6,1953.59C1024.99,1953.77 1040.74,1967.99 1044.11,1986.02C1047.54,2004.35 1037.79,2025.03 1020.43,2032.01C1005.25,2038.1 986.433,2031.8 977.032,2017.86C965.817,2001.23 968.257,1976.29 983.645,1962.71C990.189,1956.93 998.776,1953.56 1007.6,1953.59ZM1005.76,1970.5C996.295,1970.6 988.961,1972.7 984.986,1981.59C978.78,1995.47 987.54,2006.96 1002.1,2012.81C1012.98,2017.18 1020.21,2013.03 1026.04,2001.78C1034.4,1985.64 1019.22,1975.94 1005.76,1970.5C1004.12,1976.98 1005.97,1970.5 1005.76,1970.5Z" style="fill:rgb(98,114,129);fill-rule:nonzero;"/>
                    </g>
                </g>
                <g transform="matrix(0.506423,0,0,0.250085,2714.01,40.7993)">
                    <g transform="matrix(0.212781,3.98262e-49,0,0.304123,2105.34,77.8362)">
                        <ellipse cx="1007.36" cy="1994.06" rx="31.243" ry="34.224" style="fill:rgb(245,255,255);"/>
                    </g>
                    <g transform="matrix(0.235501,0,0,0.334167,2082.12,17.2624)">
                        <path d="M1007.6,1953.59C1024.99,1953.77 1040.74,1967.99 1044.11,1986.02C1047.54,2004.35 1037.79,2025.03 1020.43,2032.01C1005.25,2038.1 986.433,2031.8 977.032,2017.86C965.817,2001.23 968.257,1976.29 983.645,1962.71C990.189,1956.93 998.776,1953.56 1007.6,1953.59ZM1008.16,1972.64C998.696,1972.74 993.306,1976.25 989.879,1985.38C987.261,1992.37 993.826,2009.04 998.923,2011.44C1009.55,2016.45 1015.02,2014.81 1020.85,2003.55C1029.21,1987.41 1015.21,1972.77 1008.16,1972.64C1007.95,1972.64 1005.11,1978.16 1008.16,1972.64Z" style="fill:rgb(98,114,129);fill-rule:nonzero;"/>
                    </g>
                </g>
                <g transform="matrix(0.506423,0,0,0.250085,2779.08,41.9555)">
                    <g transform="matrix(0.697211,1.30497e-48,0,0.750334,1576.31,-901.524)">
                        <ellipse cx="1007.36" cy="1994.06" rx="31.243" ry="34.224" style="fill:rgb(245,255,255);"/>
                    </g>
                    <g transform="matrix(0.6419,-0.326159,0.157223,0.696206,1318.52,-466.098)">
                        <path d="M1007.6,1953.59C1024.99,1953.77 1040.74,1967.99 1044.11,1986.02C1047.54,2004.35 1037.79,2025.03 1020.43,2032.01C1005.25,2038.1 986.433,2031.8 977.032,2017.86C965.817,2001.23 968.257,1976.29 983.645,1962.71C990.189,1956.93 998.776,1953.56 1007.6,1953.59ZM1007.2,1966.09C997.736,1966.19 988.961,1972.7 984.986,1981.59C978.78,1995.47 984.394,2014.56 998.951,2020.41C1009.83,2024.78 1023.18,2019.29 1029,2008.04C1037.36,1991.9 1028.59,1966.58 1007.83,1966.09C1007.62,1966.09 1007.41,1966.09 1007.2,1966.09Z" style="fill:rgb(98,114,129);fill-rule:nonzero;"/>
                    </g>
                </g>
                <g id="owl2" transform="matrix(0.434185,1.98213e-33,0,0.321619,3369.27,-341.611)">
                    <g transform="matrix(2.01527,-1.242e-32,0,2.01527,202.865,-3012.24)">
                        <path d="M604.682,2416.86C610.651,2423.44 614.29,2432.18 614.29,2441.75C614.29,2462.23 597.668,2478.85 577.194,2478.85C556.721,2478.85 540.099,2462.23 540.099,2441.75C540.099,2433.02 543.125,2424.98 548.186,2418.64L552.524,2400.62C552.524,2400.62 555.717,2404.89 561.519,2408.13C566.282,2405.9 571.594,2404.66 577.194,2404.66C581.673,2404.66 585.967,2405.45 589.943,2406.91C596.432,2402.64 600.406,2397.03 600.406,2397.03L604.682,2416.86Z" style="fill:rgb(9,153,116);"/>
                    </g>
                    <g transform="matrix(2.01527,-1.242e-32,0,2.01527,202.865,-3012.24)">
                        <path d="M549.608,2466.54C554.384,2455.62 564.945,2448.02 577.194,2448.02C589.443,2448.02 600.005,2455.62 604.781,2466.54C597.988,2474.1 588.142,2478.85 577.194,2478.85C566.247,2478.85 556.4,2474.1 549.608,2466.54Z" style="fill:rgb(6,214,160);"/>
                    </g>
                    <g transform="matrix(0.215518,0.215518,-0.215518,0.215518,1412.02,1606.51)">
                        <rect x="564.142" y="777.347" width="100.095" height="100.095" style="fill:rgb(144,44,32);"/>
                    </g>
                    <g transform="matrix(0.350853,0,0,0.350853,948.853,1675.25)">
                        <circle cx="1107.35" cy="613.196" r="101.822" style="fill:white;"/>
                    </g>
                    <g transform="matrix(0.350853,0,0,0.350853,1006.11,1675.25)">
                        <circle cx="1107.35" cy="613.196" r="101.822" style="fill:white;"/>
                    </g>
                    <g transform="matrix(0.163373,-2.23569e-49,0,0.163373,1213.67,1772.81)">
                        <circle cx="1107.35" cy="613.196" r="101.822" style="fill:rgb(18,62,57);"/>
                    </g>
                    <g transform="matrix(0.163373,-2.23569e-49,0,0.163373,1155.85,1772.81)">
                        <circle cx="1107.35" cy="613.196" r="101.822" style="fill:rgb(18,62,57);"/>
                    </g>
                </g>
            </g>
        </g>
    </g>
</svg>
