<svg viewBox="0 0 319 402" xmlns="http://www.w3.org/2000/svg" fill-rule="evenodd" clip-rule="evenodd" stroke-linejoin="round" stroke-miterlimit="1.41421"><g transform="translate(-5185.14 -361.37)"><g id="owls_checklist"><path d="M2092.6 1473.24c0-22.18-10.25-43.46-28.51-59.14-18.25-15.69-43.01-24.5-68.82-24.5H1337.5c-25.82 0-50.58 8.81-68.83 24.5-18.26 15.68-28.51 36.96-28.51 59.14v383.83c0 22.18 10.25 43.45 28.51 59.14 18.25 15.68 43.01 24.5 68.83 24.5h657.77c25.81 0 50.57-8.82 68.82-24.5 18.26-15.69 28.51-36.96 28.51-59.14v-383.83z" fill="#4e778b" transform="matrix(.02043 -.11867 .1381 .02378 4984.16 710.846)"/><path d="M1995.66 1365.6c36.47.14 72.43 14.63 95.77 38.65 18.54 19.09 28.97 43.68 29.11 68.65.26 128.17.26 256.34 0 384.5-.14 24.98-10.64 49.65-29.11 68.66-23.37 24.04-59.55 38.51-95.77 38.65-219.52.33-439.04.33-658.56 0-45.72-.18-89.84-23.05-111.01-58.41-9.02-15.06-13.78-32-13.87-48.9-.24-128.16-.24-256.33 0-384.49.18-32.84 18.44-64.86 48.9-85 21.59-14.27 48.59-22.21 75.98-22.31 219.52-.33 439.04-.33 658.56 0zm-658.14 48.01c-29.04.04-57.07 16.95-66.17 41.59-2.14 5.77-3.22 11.81-3.25 17.86-.24 128.12-.69 256.25 0 384.38.22 24.97 19.94 48.78 48.61 56.52 6.57 1.78 13.44 2.69 20.35 2.74 219.54.87 439.1.87 658.64 0 22.1-.14 43.69-9.88 56.34-25.34 8.07-9.87 12.51-21.79 12.62-33.92.69-128.19.69-256.38 0-384.57-.22-24.8-20.04-48.82-48.61-56.52-6.57-1.78-13.45-2.7-20.35-2.74-219.39-.87-438.79 0-658.18 0z" fill="#476885" fill-rule="nonzero" transform="matrix(.02043 -.11867 .1381 .02378 4984.16 710.846)"/><path d="M806.591 1720.58c1.409.1 1.765.1 3.164.3 14.638 2.11 27.059 14.9 28.49 29.88.134 1.41.118 1.77.151 3.18v197.47c-.033 1.41-.017 1.76-.151 3.17-1.456 15.25-14.462 28.58-30.069 30.07-1.407.13-1.762.12-3.174.15h-197.47c-1.411-.03-1.767-.02-3.174-.15-15.223-1.45-28.578-14.46-30.068-30.07-.135-1.41-.118-1.76-.152-3.17v-197.47c.034-1.41.017-1.77.152-3.18 1.456-15.25 14.462-28.58 30.068-30.07 1.407-.13 1.763-.11 3.174-.15h197.47c.53.02 1.059.03 1.589.04zm-165.665 66.75v130.68h130.682v-130.68H640.926z" fill="#e3e3e3" fill-rule="nonzero" transform="matrix(.0891 .01534 -.01534 .0891 5212.61 346.262)"/><path d="M806.591 1720.58c1.409.1 1.765.1 3.164.3 14.638 2.11 27.059 14.9 28.49 29.88.134 1.41.118 1.77.151 3.18v197.47c-.033 1.41-.017 1.76-.151 3.17-1.456 15.25-14.462 28.58-30.069 30.07-1.407.13-1.762.12-3.174.15h-197.47c-1.411-.03-1.767-.02-3.174-.15-15.25-1.46-28.578-14.46-30.068-30.07-.135-1.41-.118-1.76-.152-3.17v-197.47c.034-1.41.017-1.77.152-3.18 1.453-15.22 14.462-28.58 30.068-30.07 1.407-.13 1.763-.11 3.174-.15h197.47c.53.02 1.059.03 1.589.04zm-165.665 66.75v130.68h130.682v-130.68H640.926z" fill="#e3e3e3" fill-rule="nonzero" transform="matrix(.0891 .01534 -.01534 .0891 5207.54 375.745)"/><path d="M806.591 1720.58c1.409.1 1.765.1 3.164.3 14.638 2.11 27.059 14.9 28.49 29.88.134 1.41.118 1.77.151 3.18v197.47c-.033 1.41-.017 1.76-.151 3.17-1.456 15.25-14.462 28.58-30.069 30.07-1.407.13-1.762.12-3.174.15h-197.47c-1.411-.03-1.767-.02-3.174-.15-15.25-1.46-28.578-14.46-30.068-30.07-.135-1.41-.118-1.76-.152-3.17v-197.47c.034-1.41.017-1.77.152-3.18 1.456-15.25 14.462-28.58 30.068-30.07 1.407-.13 1.763-.11 3.174-.15h197.47c.53.02 1.059.03 1.589.04zm-165.665 66.75v130.68h130.682v-130.68H640.926z" fill="#e3e3e3" fill-rule="nonzero" transform="matrix(.0891 .01534 -.01534 .0891 5202.46 405.227)"/><path d="M990.902 1814.52c.964.1 1.209.1 2.163.28 10.315 1.93 17.895 13.24 15.305 23.76-.52 2.11-1.4 4.14-2.59 5.97-.53.81-.69.99-1.29 1.76l-123.52 149.72c-.637.73-.783.93-1.48 1.61-8.305 8.03-23.917 6.39-30.153-3.91-.503-.83-.593-1.06-1.023-1.93l-34.876-75.61c-.381-.89-.496-1.11-.801-2.03-2.732-8.24.837-18.18 8.388-22.75 9.286-5.62 22.681-1.69 27.727 8.49l21.914 47.51 103.825-125.85.717-.82c4.1-4.2 9.74-6.46 15.694-6.2z" fill="#f07070" fill-rule="nonzero" transform="matrix(.21832 .03759 -.03759 .21832 5121.9 97.9402)"/><path d="M990.902 1814.52c.964.1 1.209.1 2.163.28 10.315 1.93 17.895 13.24 15.305 23.76-.52 2.11-1.4 4.14-2.59 5.97-.53.81-.69.99-1.29 1.76l-123.52 149.72c-.637.73-.783.93-1.48 1.61-8.305 8.03-23.917 6.39-30.153-3.91-.503-.83-.593-1.06-1.023-1.93l-34.876-75.61c-.381-.89-.496-1.11-.801-2.03-2.732-8.24.837-18.18 8.388-22.75 9.286-5.62 22.681-1.69 27.727 8.49l21.914 47.51 103.825-125.85.717-.82c4.1-4.2 9.74-6.46 15.694-6.2z" fill="#f07070" fill-rule="nonzero" transform="rotate(9.77171 1818.89815 29990.2279) scale(.22153)"/><path d="M2092.6 1473.24c0-22.18-10.25-43.46-28.51-59.14-18.25-15.69-43.01-24.5-68.82-24.5H1337.5c-25.82 0-50.58 8.81-68.83 24.5-18.26 15.68-28.51 36.96-28.51 59.14v383.83c0 22.18 10.25 43.45 28.51 59.14 18.25 15.68 43.01 24.5 68.83 24.5h657.77c25.81 0 50.57-8.82 68.82-24.5 18.26-15.69 28.51-36.96 28.51-59.14v-383.83z" fill="#4e778b" transform="matrix(-.04526 -.07172 .08346 -.05267 5301.5 718.525)"/><path d="M1995.66 1365.6c36.47.14 72.43 14.63 95.77 38.65 18.54 19.09 28.97 43.68 29.11 68.65.26 128.17.26 256.34 0 384.5-.14 24.98-10.64 49.65-29.11 68.66-23.37 24.04-59.55 38.51-95.77 38.65-219.52.33-439.04.33-658.56 0-45.72-.18-89.84-23.05-111.01-58.41-9.02-15.06-13.78-32-13.87-48.9-.24-128.16-.24-256.33 0-384.49.18-32.84 18.44-64.86 48.9-85 21.59-14.27 48.59-22.21 75.98-22.31 219.52-.33 439.04-.33 658.56 0zm-658.14 48.01c-29.04.04-57.07 16.95-66.17 41.59-2.14 5.77-3.22 11.81-3.25 17.86-.24 128.12-.69 256.25 0 384.38.22 24.97 19.94 48.78 48.61 56.52 6.57 1.78 13.44 2.69 20.35 2.74 219.54.87 439.1.87 658.64 0 22.1-.14 43.69-9.88 56.34-25.34 8.07-9.87 12.51-21.79 12.62-33.92.69-128.19.69-256.38 0-384.57-.22-24.8-20.04-48.82-48.61-56.52-6.57-1.78-13.45-2.7-20.35-2.74-219.39-.87-438.79 0-658.18 0z" fill="#476885" fill-rule="nonzero" transform="matrix(-.04526 -.07172 .08346 -.05267 5301.5 718.525)"/><path d="M806.591 1720.58c1.409.1 1.765.1 3.164.3 14.638 2.11 27.059 14.9 28.49 29.88.134 1.41.118 1.77.151 3.18v197.47c-.033 1.41-.017 1.76-.151 3.17-1.456 15.25-14.462 28.58-30.069 30.07-1.407.13-1.762.12-3.174.15h-197.47c-1.411-.03-1.767-.02-3.174-.15-15.223-1.45-28.578-14.46-30.068-30.07-.135-1.41-.118-1.76-.152-3.17v-197.47c.034-1.41.017-1.77.152-3.18 1.456-15.25 14.462-28.58 30.068-30.07 1.407-.13 1.763-.11 3.174-.15h197.47c.53.02 1.059.03 1.589.04zm-165.665 66.75v130.68h130.682v-130.68H640.926z" fill="#e3e3e3" fill-rule="nonzero" transform="matrix(.05384 -.03398 .03398 .05384 5249.14 420.086)"/><path d="M806.591 1720.58c1.409.1 1.765.1 3.164.3 14.638 2.11 27.059 14.9 28.49 29.88.134 1.41.118 1.77.151 3.18v197.47c-.033 1.41-.017 1.76-.151 3.17-1.456 15.25-14.462 28.58-30.069 30.07-1.407.13-1.762.12-3.174.15h-197.47c-1.411-.03-1.767-.02-3.174-.15-15.25-1.46-28.578-14.46-30.068-30.07-.135-1.41-.118-1.76-.152-3.17v-197.47c.034-1.41.017-1.77.152-3.18 1.453-15.22 14.462-28.58 30.068-30.07 1.407-.13 1.763-.11 3.174-.15h197.47c.53.02 1.059.03 1.589.04zm-165.665 66.75v130.68h130.682v-130.68H640.926z" fill="#e3e3e3" fill-rule="nonzero" transform="matrix(.05384 -.03398 .03398 .05384 5260.39 437.904)"/><path d="M806.591 1720.58c1.409.1 1.765.1 3.164.3 14.638 2.11 27.059 14.9 28.49 29.88.134 1.41.118 1.77.151 3.18v197.47c-.033 1.41-.017 1.76-.151 3.17-1.456 15.25-14.462 28.58-30.069 30.07-1.407.13-1.762.12-3.174.15h-197.47c-1.411-.03-1.767-.02-3.174-.15-15.25-1.46-28.578-14.46-30.068-30.07-.135-1.41-.118-1.76-.152-3.17v-197.47c.034-1.41.017-1.77.152-3.18 1.456-15.25 14.462-28.58 30.068-30.07 1.407-.13 1.763-.11 3.174-.15h197.47c.53.02 1.059.03 1.589.04zm-165.665 66.75v130.68h130.682v-130.68H640.926z" fill="#e3e3e3" fill-rule="nonzero" transform="matrix(.05384 -.03398 .03398 .05384 5271.63 455.721)"/><path d="M990.902 1814.52c.964.1 1.209.1 2.163.28 10.315 1.93 17.895 13.24 15.305 23.76-.52 2.11-1.4 4.14-2.59 5.97-.53.81-.69.99-1.29 1.76l-123.52 149.72c-.637.73-.783.93-1.48 1.61-8.305 8.03-23.917 6.39-30.153-3.91-.503-.83-.593-1.06-1.023-1.93l-34.876-75.61c-.381-.89-.496-1.11-.801-2.03-2.732-8.24.837-18.18 8.388-22.75 9.286-5.62 22.681-1.69 27.727 8.49l21.914 47.51 103.825-125.85.717-.82c4.1-4.2 9.74-6.46 15.694-6.2z" fill="#f07070" fill-rule="nonzero" transform="matrix(.13193 -.08326 .08326 .13193 5084.62 332.94)"/><path d="M2092.6 1473.24c0-22.18-10.25-43.46-28.51-59.14-18.25-15.69-43.01-24.5-68.82-24.5H1337.5c-25.82 0-50.58 8.81-68.83 24.5-18.26 15.68-28.51 36.96-28.51 59.14v383.83c0 22.18 10.25 43.45 28.51 59.14 18.25 15.68 43.01 24.5 68.83 24.5h657.77c25.81 0 50.57-8.82 68.82-24.5 18.26-15.69 28.51-36.96 28.51-59.14v-383.83z" fill="#4e778b" transform="matrix(.06975 -.04823 .05613 .08117 5155.76 348.637)"/><path d="M1995.66 1365.6c36.47.14 72.43 14.63 95.77 38.65 18.54 19.09 28.97 43.68 29.11 68.65.26 128.17.26 256.34 0 384.5-.14 24.98-10.64 49.65-29.11 68.66-23.37 24.04-59.55 38.51-95.77 38.65-219.52.33-439.04.33-658.56 0-45.72-.18-89.84-23.05-111.01-58.41-9.02-15.06-13.78-32-13.87-48.9-.24-128.16-.24-256.33 0-384.49.18-32.84 18.44-64.86 48.9-85 21.59-14.27 48.59-22.21 75.98-22.31 219.52-.33 439.04-.33 658.56 0zm-658.14 48.01c-29.04.04-57.07 16.95-66.17 41.59-2.14 5.77-3.22 11.81-3.25 17.86-.24 128.12-.69 256.25 0 384.38.22 24.97 19.94 48.78 48.61 56.52 6.57 1.78 13.44 2.69 20.35 2.74 219.54.87 439.1.87 658.64 0 22.1-.14 43.69-9.88 56.34-25.34 8.07-9.87 12.51-21.79 12.62-33.92.69-128.19.69-256.38 0-384.57-.22-24.8-20.04-48.82-48.61-56.52-6.57-1.78-13.45-2.7-20.35-2.74-219.39-.87-438.79 0-658.18 0z" fill="#476885" fill-rule="nonzero" transform="matrix(.06975 -.04823 .05613 .08117 5155.76 348.637)"/><path d="M806.591 1720.58c1.409.1 1.765.1 3.164.3 14.638 2.11 27.059 14.9 28.49 29.88.134 1.41.118 1.77.151 3.18v197.47c-.033 1.41-.017 1.76-.151 3.17-1.456 15.25-14.462 28.58-30.069 30.07-1.407.13-1.762.12-3.174.15h-197.47c-1.411-.03-1.767-.02-3.174-.15-15.223-1.45-28.578-14.46-30.068-30.07-.135-1.41-.118-1.76-.152-3.17v-197.47c.034-1.41.017-1.77.152-3.18 1.456-15.25 14.462-28.58 30.068-30.07 1.407-.13 1.763-.11 3.174-.15h197.47c.53.02 1.059.03 1.589.04zm-165.665 66.75v130.68h130.682v-130.68H640.926z" fill="#e3e3e3" fill-rule="nonzero" transform="matrix(.03621 .05236 -.05236 .03621 5451.73 283.767)"/><path d="M806.591 1720.58c1.409.1 1.765.1 3.164.3 14.638 2.11 27.059 14.9 28.49 29.88.134 1.41.118 1.77.151 3.18v197.47c-.033 1.41-.017 1.76-.151 3.17-1.456 15.25-14.462 28.58-30.069 30.07-1.407.13-1.762.12-3.174.15h-197.47c-1.411-.03-1.767-.02-3.174-.15-15.25-1.46-28.578-14.46-30.068-30.07-.135-1.41-.118-1.76-.152-3.17v-197.47c.034-1.41.017-1.77.152-3.18 1.453-15.22 14.462-28.58 30.068-30.07 1.407-.13 1.763-.11 3.174-.15h197.47c.53.02 1.059.03 1.589.04zm-165.665 66.75v130.68h130.682v-130.68H640.926z" fill="#e3e3e3" fill-rule="nonzero" transform="matrix(.03621 .05236 -.05236 .03621 5434.4 295.75)"/><path d="M806.591 1720.58c1.409.1 1.765.1 3.164.3 14.638 2.11 27.059 14.9 28.49 29.88.134 1.41.118 1.77.151 3.18v197.47c-.033 1.41-.017 1.76-.151 3.17-1.456 15.25-14.462 28.58-30.069 30.07-1.407.13-1.762.12-3.174.15h-197.47c-1.411-.03-1.767-.02-3.174-.15-15.25-1.46-28.578-14.46-30.068-30.07-.135-1.41-.118-1.76-.152-3.17v-197.47c.034-1.41.017-1.77.152-3.18 1.456-15.25 14.462-28.58 30.068-30.07 1.407-.13 1.763-.11 3.174-.15h197.47c.53.02 1.059.03 1.589.04zm-165.665 66.75v130.68h130.682v-130.68H640.926z" fill="#e3e3e3" fill-rule="nonzero" transform="matrix(.03621 .05236 -.05236 .03621 5417.07 307.734)"/><path d="M990.902 1814.52c.964.1 1.209.1 2.163.28 10.315 1.93 17.895 13.24 15.305 23.76-.52 2.11-1.4 4.14-2.59 5.97-.53.81-.69.99-1.29 1.76l-123.52 149.72c-.637.73-.783.93-1.48 1.61-8.305 8.03-23.917 6.39-30.153-3.91-.503-.83-.593-1.06-1.023-1.93l-34.876-75.61c-.381-.89-.496-1.11-.801-2.03-2.732-8.24.837-18.18 8.388-22.75 9.286-5.62 22.681-1.69 27.727 8.49l21.914 47.51 103.825-125.85.717-.82c4.1-4.2 9.74-6.46 15.694-6.2z" fill="#f07070" fill-rule="nonzero" transform="rotate(55.33528 2655.62486 5333.47032) scale(.15601)"/><g id="owl1"><path d="M427.025 131.061c39.466 43.538 63.524 101.298 63.524 164.633 0 135.37-109.904 245.274-245.275 245.274S-.001 431.064-.001 295.694c0-57.768 20.014-110.898 53.481-152.829L82.154 23.726s21.111 28.222 59.477 49.635c31.49-14.718 66.614-22.942 103.643-22.942 29.61 0 58.002 5.258 84.291 14.891C372.472 37.037 398.75 0 398.75 0l28.275 131.061z" fill="#2c9e90" transform="translate(5185.14 581.291) scale(.31526)"/><path d="M62.87 459.603C94.453 387.389 164.285 337.15 245.274 337.15c80.989 0 150.821 50.239 182.403 122.453-44.912 49.94-110.017 81.365-182.403 81.365-72.387 0-137.491-31.425-182.404-81.365z" fill="#34b6a6" transform="translate(5185.14 581.291) scale(.31526)"/><path fill="#604233" d="M564.142 777.347h100.095v100.095H564.142z" transform="rotate(44.99961 2217.84723 6590.76773) scale(.31526)"/><circle cx="1107.35" cy="613.196" r="101.822" fill="#fff" transform="matrix(.3629 0 0 .3629 4830.91 433.2)"/><circle cx="1107.35" cy="613.196" r="101.822" fill="#fff" transform="matrix(.3629 0 0 .3629 4890.14 433.2)"/><circle cx="1107.35" cy="613.196" r="101.822" fill="#123e39" id="eyeLidR" transform="matrix(.16899 0 0 .16899 5104.67 556.525)"/><circle cx="1107.35" cy="613.196" r="101.822" fill="#123e39" id="eyeLidL" transform="matrix(.16899 0 0 .16899 5044.87 556.525)"/></g><g id="owl3"><path d="M1404.7 3855.12l7.6-35.24s7.07 9.96 18.61 17.56c7.07-2.59 14.71-4 22.67-4 9.96 0 19.4 2.21 27.87 6.17 10.32-5.76 16-13.35 16-13.35l7.71 32.04c9 11.28 14.38 25.57 14.38 41.1 0 36.41-29.56 65.96-65.96 65.96-36.41 0-65.96-29.55-65.96-65.96 0-17.03 6.47-32.57 17.08-44.28z" fill="#29c49c" transform="matrix(1 0 0 1 3983.86903 -3207.55512)"/><path d="M1404.52 3943.48c8.5-19.42 27.28-32.93 49.06-32.93s40.56 13.51 49.05 32.93c-12.07 13.43-29.58 21.88-49.05 21.88s-36.98-8.45-49.06-21.88z" fill="#4ad7b2" transform="matrix(1 0 0 1 3983.86903 -3207.55512)"/><path fill="#902c20" d="M564.142 777.347h100.095v100.095H564.142z" transform="matrix(-.19017 .19017 .19017 .19017 5396.90438 425.33159)"/><circle cx="1107.35" cy="613.196" r="101.822" fill="#fff" transform="matrix(-.30958 0 0 .30958 5805.58627 485.9853)"/><circle cx="1107.35" cy="613.196" r="101.822" fill="#fff" transform="matrix(-.30958 0 0 .30958 5755.06476 485.9853)"/><circle cx="1107.35" cy="613.196" r="101.822" fill="#123e39" transform="matrix(-.14415 0 0 .14415 5564.58002 575.17464)"/><circle cx="1107.35" cy="613.196" r="101.822" fill="#123e39" transform="matrix(-.14415 0 0 .14415 5615.5983 575.17464)"/></g><g id="owl2"><path d="M1332.88 3886.36l5.78-26.82s5.38 7.58 14.16 13.37c5.38-1.98 11.2-3.05 17.26-3.05 7.58 0 14.77 1.68 21.21 4.69 7.85-4.38 12.17-10.16 12.17-10.16l5.88 24.39c6.84 8.59 10.94 19.46 10.94 31.28 0 27.71-22.49 50.21-50.2 50.21-27.71 0-50.21-22.5-50.21-50.21 0-12.96 4.93-24.78 13.01-33.7z" fill="#099974" transform="matrix(1 0 0 1 3983.8651 -3207.5594)"/><path d="M1332.74 3953.61c6.46-14.78 20.76-25.06 37.34-25.06 16.57 0 30.87 10.28 37.33 25.06-9.19 10.23-22.52 16.66-37.33 16.66-14.82 0-28.15-6.43-37.34-16.66z" fill="#06d6a0" transform="matrix(1 0 0 1 3983.8651 -3207.5594)"/><path fill="#902c20" d="M564.142 777.347h100.095v100.095H564.142z" transform="scale(-.20469 .20469) rotate(45 -16008.6645 -30147.06086)"/><circle cx="1107.35" cy="613.196" r="101.822" fill="#fff" transform="matrix(-.23562 0 0 .23562 5634.12974 555.82597)"/><circle cx="1107.35" cy="613.196" r="101.822" fill="#fff" transform="matrix(-.23562 0 0 .23562 5595.67771 555.82597)"/><circle cx="1107.35" cy="613.196" r="101.822" fill="#123e39" transform="matrix(-.10972 0 0 .10972 5451.58587 626.82424)"/><circle cx="1107.35" cy="613.196" r="101.822" fill="#123e39" transform="matrix(-.10972 0 0 .10972 5490.41599 626.82424)"/></g></g></g></svg>