<svg viewBox="0 0 330 191" xmlns="http://www.w3.org/2000/svg" fill-rule="evenodd" clip-rule="evenodd" stroke-linejoin="round" stroke-miterlimit="1.41421"><g transform="matrix(1.14286 0 0 .73399 -8703.785 -231.6)"><g id="owl1" transform="matrix(.875 0 0 1.36242 3100.59 -476.423)"><path d="M427.025 131.061c39.466 43.538 63.524 101.298 63.524 164.633 0 135.37-109.904 245.274-245.275 245.274S-.001 431.064-.001 295.694c0-57.768 20.014-110.898 53.481-152.829L82.154 23.726s21.111 28.222 59.477 49.635c31.49-14.718 66.614-22.942 103.643-22.942 29.61 0 58.002 5.258 84.291 14.891C372.472 37.037 398.75 0 398.75 0l28.275 131.061z" fill="#2c9e90" transform="translate(5185.14 581.291) scale(.31526)"/><path d="M62.87 459.603C94.453 387.389 164.285 337.15 245.274 337.15c80.989 0 150.821 50.239 182.403 122.453-44.912 49.94-110.017 81.365-182.403 81.365-72.387 0-137.491-31.425-182.404-81.365z" fill="#34b6a6" transform="translate(5185.14 581.291) scale(.31526)"/><path fill="#604233" d="M564.142 777.347h100.095v100.095H564.142z" transform="rotate(44.99961 2217.84723 6590.76773) scale(.31526)"/><circle cx="1107.35" cy="613.196" r="101.822" fill="#fff" transform="matrix(.3629 0 0 .3629 4830.91 433.2)"/><circle cx="1107.35" cy="613.196" r="101.822" fill="#fff" transform="matrix(.3629 0 0 .3629 4890.14 433.2)"/><circle cx="1107.35" cy="613.196" r="101.822" fill="#123e39" id="eyeLidR" transform="matrix(.16899 0 0 .16899 5104.67 543.525)"/><circle cx="1107.35" cy="613.196" r="101.822" fill="#123e39" id="eyeLidL" transform="matrix(.16899 0 0 .16899 5044.87 543.525)"/></g></g><g transform="matrix(1.14286 0 0 .73399 -8703.785 -231.6)"><g id="owl3"><path d="M1404.7 3855.12l7.6-35.24s7.07 9.96 18.61 17.56c7.07-2.59 14.71-4 22.67-4 9.96 0 19.4 2.21 27.87 6.17 10.32-5.76 16-13.35 16-13.35l7.71 32.04c9 11.28 14.38 25.57 14.38 41.1 0 36.41-29.56 65.96-65.96 65.96-36.41 0-65.96-29.55-65.96-65.96 0-17.03 6.47-32.57 17.08-44.28z" fill="#29c49c" transform="matrix(.875 0 0 1.36242 6539.4094 -4843.02003)"/><path d="M1404.52 3943.48c8.5-19.42 27.28-32.93 49.06-32.93s40.56 13.51 49.05 32.93c-12.07 13.43-29.58 21.88-49.05 21.88s-36.98-8.45-49.06-21.88z" fill="#4ad7b2" transform="matrix(.875 0 0 1.36242 6539.4094 -4843.02003)"/><path fill="#902c20" d="M564.142 777.347h100.095v100.095H564.142z" transform="matrix(-.1664 .25908 .1664 .25908 7775.81454 106.496)"/><circle cx="1107.35" cy="613.196" r="101.822" fill="#fff" transform="matrix(-.27088 0 0 .42178 8133.41096 189.13179)"/><circle cx="1107.35" cy="613.196" r="101.822" fill="#fff" transform="matrix(-.27088 0 0 .42178 8089.20466 189.13179)"/><circle cx="1107.35" cy="613.196" r="101.822" fill="#123e39" transform="matrix(-.12614 0 0 .1964 7922.53062 310.64511)"/><circle cx="1107.35" cy="613.196" r="101.822" fill="#123e39" transform="matrix(-.12614 0 0 .1964 7967.1716 310.64511)"/></g></g><path d="M27.23626 110.44557l-9.28703 2.84c.79 16.05 7.32502 31.36 17.97405 42.96l12.80103-6.93c1.737-.95 3.91101-.62 5.30001.79l15.87304 16.15c1.498 1.54 1.695 3.95.451 5.71l-11.45802 16.19c-1.199 1.7-3.40901 2.34-5.33502 1.55-44.1011-18.09-65.12116-68.46-47.06512-112.49.796-1.95 2.81401-3.05 4.84702-2.72l15.27203 2.51c-1.118 5.23-1.706 10.65-1.706 16.22 0 6.52.809 12.23 2.333 17.22zM326.17837 100.59461l-19.08565-4.40437c-2.07373-.47714-4.20251.6056-5.04669 2.55087l-8.80876 20.55372c-.77077 1.79845-.25692 3.90887 1.26626 5.13843l11.12106 9.10236c-6.60657 14.07562-18.14972 25.7839-32.51901 32.51892l-9.10239-11.12103c-1.2479-1.52318-3.33999-2.03702-5.13844-1.26626l-20.55378 8.80874c-1.96362.86252-3.04637 2.9913-2.56923 5.06502l4.40439 19.0856c.45878 1.98196 2.22054 3.41338 4.29427 3.41338 46.99842 0 85.15137-38.07943 85.15137-85.15112 0-2.05537-1.41307-3.83547-3.4134-4.29426z" fill="#3c639e" fill-rule="nonzero"/></svg>