<?xml version="1.0" encoding="UTF-8" standalone="no"?>
<!DOCTYPE svg PUBLIC "-//W3C//DTD SVG 1.1//EN" "http://www.w3.org/Graphics/SVG/1.1/DTD/svg11.dtd">
<svg width="100%" height="100%" viewBox="0 0 448 489" version="1.1" xmlns="http://www.w3.org/2000/svg" xmlns:xlink="http://www.w3.org/1999/xlink" xml:space="preserve" xmlns:serif="http://www.serif.com/" style="fill-rule:evenodd;clip-rule:evenodd;stroke-linejoin:round;stroke-miterlimit:1.41421;">
    <g transform="matrix(1,0,0,1,-393.375,-4716.71)">
        <g transform="matrix(1.14286,0,0,1.54286,-5931.43,4363.98)">
            <g id="owls_contest" transform="matrix(1,0,0,1,0,20.0926)">
                <g id="owl1" transform="matrix(0.682697,0,0,0.682697,1829.83,92.511)">
                    <g transform="matrix(0.275855,0,0,0.204337,5448.32,393.485)">
                        <path d="M427.025,131.061C466.491,174.599 490.549,232.359 490.549,295.694C490.549,431.064 380.645,540.968 245.274,540.968C109.903,540.968 -0.001,431.064 -0.001,295.694C-0.001,237.926 20.013,184.796 53.48,142.865L82.154,23.726C82.154,23.726 103.265,51.948 141.631,73.361C173.121,58.643 208.245,50.419 245.274,50.419C274.884,50.419 303.276,55.677 329.565,65.31C372.472,37.037 398.75,0 398.75,0L427.025,131.061Z" style="fill:rgb(44,158,144);"/>
                    </g>
                    <g transform="matrix(0.275855,0,0,0.204337,5448.32,393.485)">
                        <path d="M62.87,459.603C94.453,387.389 164.285,337.15 245.274,337.15C326.263,337.15 396.095,387.389 427.677,459.603C382.765,509.543 317.66,540.968 245.274,540.968C172.887,540.968 107.783,509.543 62.87,459.603Z" style="fill:rgb(52,182,166);"/>
                    </g>
                    <g transform="matrix(0.195059,0.144488,-0.195059,0.144488,5557.57,251.413)">
                        <rect x="564.142" y="777.347" width="100.095" height="100.095" style="fill:rgb(96,66,51);"/>
                    </g>
                    <g transform="matrix(0.317544,0,0,0.235218,5138.37,297.5)">
                        <circle cx="1107.35" cy="613.196" r="101.822" style="fill:white;"/>
                    </g>
                    <g transform="matrix(0.317544,0,0,0.235218,5190.19,297.5)">
                        <circle cx="1107.35" cy="613.196" r="101.822" style="fill:white;"/>
                    </g>
                    <g id="eyeLidR" transform="matrix(0.147864,0,0,0.109529,5377.91,377.433)">
                        <circle cx="1107.35" cy="613.196" r="101.822" style="fill:rgb(18,62,57);"/>
                    </g>
                    <g id="eyeLidL" transform="matrix(0.147864,0,0,0.109529,5325.58,377.433)">
                        <circle cx="1107.35" cy="613.196" r="101.822" style="fill:rgb(18,62,57);"/>
                    </g>
                    <g transform="matrix(1.28168,0,0,0.949393,2103.38,-1964.5)">
                        <path d="M2715.62,2538.62C2716.75,2539.13 2715.98,2539.87 2715.6,2540.48C2707.81,2553.05 2696.13,2563.19 2682.67,2569.26C2676.65,2571.98 2670.13,2573.77 2663.5,2573.91C2650.72,2574.17 2638.12,2569 2627.38,2561.56C2620.54,2556.83 2614.41,2551.05 2609.35,2544.48C2609.35,2544.48 2608.88,2543.92 2609.12,2543.46C2609.35,2542.99 2610.01,2542.91 2610.41,2543.34C2621.3,2557.55 2636.99,2568.32 2654.06,2571.53C2656.99,2572.09 2659.98,2572.4 2662.97,2572.37C2674.34,2572.29 2685.25,2567.29 2694.56,2560.49C2702.56,2554.65 2709.66,2547.43 2714.72,2538.96C2714.72,2538.96 2715.03,2538.5 2715.62,2538.62Z" style="fill:rgb(140,211,207);fill-rule:nonzero;"/>
                    </g>
                    <g transform="matrix(0.765679,0,0,0.56717,3478.07,-1036.16)">
                        <circle cx="2661.65" cy="2686.71" r="17.592" style="fill:rgb(140,211,207);"/>
                    </g>
                </g>
                <g id="owl3" transform="matrix(-0.772068,3.52462e-33,0,0.571903,6910.41,-670.394)">
                    <g transform="matrix(0.160339,0,0,0.160339,1246.83,1791.99)">
                        <circle cx="743.669" cy="726.986" r="466.243" style="fill:rgb(41,196,156);"/>
                        <clipPath id="_clip1">
                            <circle cx="743.669" cy="726.986" r="466.243"/>
                        </clipPath>
                        <g clip-path="url(#_clip1)">
                            <g transform="matrix(0.816972,0,0,0.852397,136.112,583.534)">
                                <circle cx="743.669" cy="726.986" r="466.243" style="fill:rgb(74,215,178);"/>
                            </g>
                        </g>
                    </g>
                    <g transform="matrix(-0.677048,4.17263e-33,0,0.677048,3168.13,142.982)">
                        <circle cx="2661.65" cy="2686.71" r="17.592" style="fill:rgb(158,73,50);"/>
                    </g>
                    <g transform="matrix(-1.13332,6.98462e-33,0,1.13332,4382.94,-970.923)">
                        <path d="M2596.15,2532.94C2596.62,2533.08 2596.82,2533.59 2597.03,2534.05C2605.09,2551.1 2620.62,2564.05 2638,2571.67C2647.21,2575.7 2657.17,2578.24 2667.19,2577.44C2692.83,2575.42 2716.52,2558.84 2727.24,2534.74C2727.24,2534.74 2727.47,2534.36 2727.8,2534.29C2728.33,2534.19 2728.91,2534.53 2728.65,2535.36C2723.45,2547.05 2715.32,2557.35 2705.06,2564.86C2693.06,2573.64 2678.32,2578.87 2663.55,2579.17C2652.22,2579.4 2641.03,2575.35 2630.82,2569.89C2616.51,2562.25 2603.91,2550.89 2596.63,2536.73C2596.38,2536.25 2596.16,2535.82 2595.96,2535.38C2595.9,2535.27 2595.85,2535.16 2595.79,2535.04C2595.74,2534.93 2595.69,2534.82 2595.63,2534.7C2595.17,2533.72 2594.96,2532.88 2596.15,2532.94Z" style="fill:rgb(158,73,50);fill-rule:nonzero;"/>
                    </g>
                    <g transform="matrix(0.215518,0.215518,-0.215518,0.215518,1412.02,1606.51)">
                        <rect x="564.142" y="777.347" width="100.095" height="100.095" style="fill:rgb(144,44,32);"/>
                    </g>
                    <g transform="matrix(0.414053,0,0,0.304789,822.538,1779.94)">
                        <path d="M1425.68,126.274C1425.68,126.274 1379.2,215.268 1312.7,222.662C1237.26,231.05 1192.63,150 1192.63,150L1171.35,270.114L1449.7,277.529L1425.68,126.274Z" style="fill:rgb(41,196,156);"/>
                    </g>
                    <g transform="matrix(0.350853,0,0,0.350853,948.853,1675.25)">
                        <circle cx="1107.35" cy="613.196" r="101.822" style="fill:white;"/>
                    </g>
                    <g transform="matrix(0.350853,0,0,0.350853,1006.11,1675.25)">
                        <circle cx="1107.35" cy="613.196" r="101.822" style="fill:white;"/>
                    </g>
                    <g transform="matrix(0.163373,0,0,0.163373,1208.39,1784.27)">
                        <circle cx="1107.35" cy="613.196" r="101.822" style="fill:rgb(18,62,57);"/>
                    </g>
                    <g transform="matrix(0.163373,0,0,0.163373,1150.57,1784.27)">
                        <circle cx="1107.35" cy="613.196" r="101.822" style="fill:rgb(18,62,57);"/>
                    </g>
                </g>
                <g id="owl2" transform="matrix(-0.794818,3.62848e-33,0,0.588754,6805.33,-783.361)">
                    <g transform="matrix(0.160339,0,0,0.160339,1246.83,1791.99)">
                        <circle cx="743.669" cy="726.986" r="466.243" style="fill:rgb(9,153,116);"/>
                        <clipPath id="_clip2">
                            <circle cx="743.669" cy="726.986" r="466.243"/>
                        </clipPath>
                        <g clip-path="url(#_clip2)">
                            <g transform="matrix(0.816972,0,0,0.852397,136.112,583.534)">
                                <circle cx="743.669" cy="726.986" r="466.243" style="fill:rgb(6,214,160);"/>
                            </g>
                        </g>
                    </g>
                    <g transform="matrix(-0.854398,5.26563e-33,0,0.854398,3640.18,-342.921)">
                        <circle cx="2661.65" cy="2686.71" r="17.592" style="fill:rgb(218,190,75);"/>
                    </g>
                    <g transform="matrix(-1.10088,6.7847e-33,0,1.10088,4297.12,-893.955)">
                        <path d="M2730.58,2538.62C2731.7,2539.1 2731.03,2539.77 2730.69,2540.31C2727.31,2545.64 2722.24,2549.82 2716.98,2553.56C2708.53,2559.57 2699.23,2564.33 2689.52,2568.01C2681.14,2571.2 2672.33,2573.73 2663.51,2573.91C2657.72,2574.02 2651.96,2572.89 2646.34,2571.42C2631.55,2567.55 2617.24,2561.15 2605.13,2552.19C2601.05,2549.17 2597.22,2545.8 2594.1,2541.78C2594.1,2541.78 2593.65,2541.28 2593.84,2540.82C2594.04,2540.34 2594.57,2540.04 2595.17,2540.64C2602.9,2550.71 2614.45,2557.18 2625.96,2562.44C2638.26,2568.06 2651.49,2572.99 2664.78,2572.32C2674.08,2571.85 2683.14,2568.99 2691.82,2565.45C2702.21,2561.21 2712.22,2555.82 2720.8,2548.69C2724.21,2545.86 2727.43,2542.74 2729.71,2538.96C2729.71,2538.96 2729.74,2538.49 2730.58,2538.62Z" style="fill:rgb(218,190,75);fill-rule:nonzero;"/>
                    </g>
                    <g transform="matrix(0.215518,0.215518,-0.215518,0.215518,1412.02,1606.51)">
                        <rect x="564.142" y="777.347" width="100.095" height="100.095" style="fill:rgb(144,44,32);"/>
                    </g>
                    <g transform="matrix(0.414053,0,0,0.304789,822.538,1779.94)">
                        <path d="M1425.68,126.274C1425.68,126.274 1379.2,215.268 1312.7,222.662C1237.26,231.05 1192.63,150 1192.63,150L1171.35,270.114L1449.7,277.529L1425.68,126.274Z" style="fill:rgb(9,153,116);"/>
                    </g>
                    <g transform="matrix(0.350853,0,0,0.350853,948.853,1675.25)">
                        <circle cx="1107.35" cy="613.196" r="101.822" style="fill:white;"/>
                    </g>
                    <g transform="matrix(0.350853,0,0,0.350853,1006.11,1675.25)">
                        <circle cx="1107.35" cy="613.196" r="101.822" style="fill:white;"/>
                    </g>
                    <g transform="matrix(0.163373,-2.23569e-49,0,0.163373,1214.07,1774.36)">
                        <circle cx="1107.35" cy="613.196" r="101.822" style="fill:rgb(18,62,57);"/>
                    </g>
                    <g transform="matrix(0.163373,-2.23569e-49,0,0.163373,1156.24,1774.36)">
                        <circle cx="1107.35" cy="613.196" r="101.822" style="fill:rgb(18,62,57);"/>
                    </g>
                </g>
                <g transform="matrix(0.875,0,0,0.648148,3644.51,-1354.7)">
                    <path d="M2454.6,2681.76C2456.51,2682.74 2458.22,2684.05 2458.86,2686.02C2459.07,2686.68 2459.07,2687.38 2459.18,2688.07L2459.18,2805.58L2600.98,2805.58L2603.03,2805.9C2604.93,2806.88 2606.64,2808.19 2607.28,2810.16C2607.49,2810.81 2607.5,2811.52 2607.61,2812.2L2607.61,2893.8C2607.26,2895.77 2607.4,2896.45 2606.05,2898.06C2603.62,2900.96 2598.45,2901.09 2595.91,2898.06C2594.56,2896.45 2594.7,2895.77 2594.36,2893.8L2594.36,2818.83L2452.56,2818.83L2450.51,2818.51C2448.6,2817.53 2446.89,2816.22 2446.26,2814.25C2446.04,2813.59 2446.04,2812.89 2445.93,2812.2L2445.93,2694.69L2316.2,2694.69L2316.2,2768.74C2315.76,2771.56 2314.21,2774.2 2311.63,2775.04C2310.97,2775.25 2310.26,2775.26 2309.58,2775.36L2172.9,2775.36L2172.9,2806.92L2172.5,2809.19C2171.5,2810.92 2171.41,2811.61 2169.59,2812.66C2166.96,2814.18 2163.19,2813.55 2161.2,2811.18C2159.86,2809.57 2160,2808.89 2159.65,2806.92L2159.65,2768.74C2160.1,2765.93 2161.59,2763.3 2164.23,2762.44C2164.89,2762.22 2165.6,2762.22 2166.28,2762.11L2302.95,2762.11L2302.95,2688.07L2303.28,2686.02C2304.25,2684.11 2305.57,2682.4 2307.53,2681.76C2308.19,2681.55 2308.9,2681.55 2309.58,2681.44L2452.56,2681.44C2453.24,2681.55 2453.92,2681.66 2454.6,2681.76Z" style="fill:rgb(86,78,148);fill-rule:nonzero;"/>
                </g>
                <g transform="matrix(0.875,0,0,0.648148,3425.22,-1310.4)">
                    <path d="M2526.02,2431.13C2530.44,2431.13 2534.02,2435.09 2534.02,2439.98C2534.02,2444.87 2530.44,2448.83 2526.02,2448.83C2521.61,2448.83 2518.03,2444.87 2518.03,2439.98C2518.03,2435.09 2521.61,2431.13 2526.02,2431.13ZM2689.14,2434.78C2692.04,2434.78 2694.4,2437.52 2694.4,2440.89C2694.4,2444.26 2692.04,2447 2689.14,2447C2686.24,2447 2683.89,2444.26 2683.89,2440.89C2683.89,2437.52 2686.24,2434.78 2689.14,2434.78ZM2536.79,2381.85C2539.69,2381.85 2542.04,2384.59 2542.04,2387.96C2542.04,2391.34 2539.69,2394.07 2536.79,2394.07C2533.89,2394.07 2531.53,2391.34 2531.53,2387.96C2531.53,2384.59 2533.89,2381.85 2536.79,2381.85Z" style="fill:rgb(237,106,90);"/>
                </g>
                <g transform="matrix(0.875,0,0,0.648148,3425.22,-1310.4)">
                    <path d="M2499.65,2482.16C2502.55,2482.16 2504.9,2484.89 2504.9,2488.27C2504.9,2491.64 2502.55,2494.38 2499.65,2494.38C2496.75,2494.38 2494.39,2491.64 2494.39,2488.27C2494.39,2484.89 2496.75,2482.16 2499.65,2482.16ZM2608.27,2343.49C2615.01,2343.49 2620.49,2348.59 2620.49,2354.86C2620.49,2361.13 2615.01,2366.23 2608.27,2366.23C2601.52,2366.23 2596.04,2361.13 2596.04,2354.86C2596.04,2348.59 2601.52,2343.49 2608.27,2343.49Z" style="fill:rgb(90,237,232);"/>
                </g>
                <g transform="matrix(0.875,0,0,0.648148,3425.22,-1310.4)">
                    <path d="M2729.45,2494C2736.18,2494 2741.64,2499.36 2741.64,2505.96C2741.64,2512.56 2736.18,2517.92 2729.45,2517.92C2722.71,2517.92 2717.24,2512.56 2717.24,2505.96C2717.24,2499.36 2722.71,2494 2729.45,2494ZM2469.82,2435.79C2476.56,2435.79 2482.04,2440.89 2482.04,2447.16C2482.04,2453.43 2476.56,2458.53 2469.82,2458.53C2463.07,2458.53 2457.6,2453.43 2457.6,2447.16C2457.6,2440.89 2463.07,2435.79 2469.82,2435.79ZM2586.91,2394.39C2593.65,2394.39 2599.13,2399.48 2599.13,2405.75C2599.13,2412.02 2593.65,2417.12 2586.91,2417.12C2580.16,2417.12 2574.68,2412.02 2574.68,2405.75C2574.68,2399.48 2580.16,2394.39 2586.91,2394.39Z" style="fill:rgb(6,214,160);"/>
                </g>
                <g transform="matrix(0.875,0,0,0.648148,3425.22,-1310.4)">
                    <path d="M2810.61,2525.39C2816.28,2525.39 2820.89,2530.32 2820.89,2536.39C2820.89,2542.46 2816.28,2547.39 2810.61,2547.39C2804.93,2547.39 2800.33,2542.46 2800.33,2536.39C2800.33,2530.32 2804.93,2525.39 2810.61,2525.39ZM2457.92,2523.24C2463.59,2523.24 2468.2,2528.17 2468.2,2534.24C2468.2,2540.32 2463.59,2545.25 2457.92,2545.25C2452.24,2545.25 2447.64,2540.32 2447.64,2534.24C2447.64,2528.17 2452.24,2523.24 2457.92,2523.24ZM2523.68,2516.53C2528.1,2516.53 2531.68,2520.5 2531.68,2525.39C2531.68,2530.27 2528.1,2534.24 2523.68,2534.24C2519.27,2534.24 2515.69,2530.27 2515.69,2525.39C2515.69,2520.5 2519.27,2516.53 2523.68,2516.53ZM2777.56,2436.98C2782.78,2436.98 2787.02,2442.29 2787.02,2448.83C2787.02,2455.37 2782.78,2460.69 2777.56,2460.69C2772.34,2460.69 2768.1,2455.37 2768.1,2448.83C2768.1,2442.29 2772.34,2436.98 2777.56,2436.98ZM2645.92,2398.68C2656.39,2398.68 2664.88,2404.84 2664.88,2412.43C2664.88,2420.01 2656.39,2426.17 2645.92,2426.17C2635.45,2426.17 2626.96,2420.01 2626.96,2412.43C2626.96,2404.84 2635.45,2398.68 2645.92,2398.68ZM2497.41,2382.88C2501.82,2382.88 2505.41,2386.85 2505.41,2391.74C2505.41,2396.62 2501.82,2400.59 2497.41,2400.59C2493,2400.59 2489.41,2396.62 2489.41,2391.74C2489.41,2386.85 2493,2382.88 2497.41,2382.88Z" style="fill:rgb(151,142,225);"/>
                </g>
            </g>
        </g>
    </g>
</svg>
