<?xml version="1.0" encoding="UTF-8" standalone="no"?>
<!DOCTYPE svg PUBLIC "-//W3C//DTD SVG 1.1//EN" "http://www.w3.org/Graphics/SVG/1.1/DTD/svg11.dtd">
<svg width="100%" height="100%" viewBox="0 0 53 58" version="1.1" xmlns="http://www.w3.org/2000/svg" xmlns:xlink="http://www.w3.org/1999/xlink" xml:space="preserve" xmlns:serif="http://www.serif.com/" style="fill-rule:evenodd;clip-rule:evenodd;stroke-linejoin:round;stroke-miterlimit:1.41421;">
    <g transform="matrix(1,0,0,1,-317.499,-1819.65)">
        <g transform="matrix(1.5,6.16298e-33,0,10.5846,0,0)">
            <g id="owl2" transform="matrix(0.232163,6.75892e-35,0,0.0329009,-88.1278,112.086)">
                <g transform="matrix(2.87155,-1.76973e-32,0,2.87155,363.78,-3414.18)">
                    <circle cx="338.918" cy="1852.2" r="5.608" style="fill:white;"/>
                </g>
                <g transform="matrix(2.87155,-1.76973e-32,0,2.87155,379.595,-3406.79)">
                    <path d="M362.824,1833.56C367.013,1838.18 369.566,1844.31 369.566,1851.03C369.566,1865.4 357.901,1877.07 343.533,1877.07C329.164,1877.07 317.499,1865.4 317.499,1851.03C317.499,1844.9 319.623,1839.26 323.175,1834.81L326.219,1822.17C326.219,1822.17 328.46,1825.16 332.532,1827.43C335.874,1825.87 339.603,1825 343.533,1825C346.676,1825 349.689,1825.56 352.48,1826.58C357.034,1823.58 359.823,1819.65 359.823,1819.65L362.824,1833.56ZM348.835,1856.26C350.27,1856.83 351.838,1857.15 353.479,1857.15C360.345,1857.15 365.92,1851.58 365.92,1844.71C365.92,1837.85 360.345,1832.27 353.479,1832.27C349.401,1832.27 345.778,1834.24 343.509,1837.27C341.239,1834.24 337.617,1832.27 333.539,1832.27C326.673,1832.27 321.098,1837.85 321.098,1844.71C321.098,1851.58 326.673,1857.15 333.539,1857.15C335.193,1857.15 336.772,1856.83 338.217,1856.24L343.533,1861.56L348.835,1856.26ZM353.36,1844.02C356.456,1844.02 358.969,1846.53 358.969,1849.63C358.969,1852.72 356.456,1855.23 353.36,1855.23C350.265,1855.23 347.752,1852.72 347.752,1849.63C347.752,1846.53 350.265,1844.02 353.36,1844.02Z" style="fill:white;"/>
                </g>
            </g>
        </g>
    </g>
</svg>
